<?xml version="1.0" encoding="utf-8"?>
<!-- Generator: Adobe Illustrator 16.0.0, SVG Export Plug-In . SVG Version: 6.00 Build 0)  -->
<!DOCTYPE svg PUBLIC "-//W3C//DTD SVG 1.1//EN" "http://www.w3.org/Graphics/SVG/1.1/DTD/svg11.dtd">
<svg version="1.1" id="Layer_1" xmlns="http://www.w3.org/2000/svg" xmlns:xlink="http://www.w3.org/1999/xlink" x="0px" y="0px"
	 width="166px" height="232px" viewBox="0 0 166 232" enable-background="new 0 0 166 232" xml:space="preserve">
<g id="Cat.svg">
	<path id="tail" fill="#FAA51D" d="M64.5,180.199c-3.809,3.48-11.92,8.453-25.229,5.211c-21.221-5.168-26.777-29.664-26.777-29.664
		s-2.35-8.611,4.502-10.18c6.852-1.564,8.223,7.635,8.223,7.635s8.416,22.906,22.121,23.297c7.023,0.201,12.557-1.912,16.281-4.021
		c0,0,1.965-0.316,2.871,1.732C67.398,176.264,64.5,180.199,64.5,180.199"/>
	<path fill="#FFFFFF" d="M28.68,173.277c1.166-2.613,2.75-4.439,4.518-5.705c-5.109-6.574-7.979-14.371-7.979-14.371
		s-1.371-9.199-8.223-7.635c-6.852,1.562-4.502,10.182-4.502,10.182s3.445,15.16,15.252,24.143
		C27.373,177.953,27.574,175.756,28.68,173.277"/>
	<path id="tailBorder" d="M47.735,187.396c-2.574,0-5.412-0.319-8.521-1.076c-21.575-5.254-27.461-30.163-27.518-30.414
		c-0.043-0.156-1.288-4.84,0.754-8.25c0.965-1.611,2.479-2.663,4.501-3.127c1.982-0.451,3.756-0.155,5.272,0.881
		c3.106,2.122,4.007,6.676,4.143,7.47c0.579,1.517,8.722,22.202,21.181,22.558c7.003,0.211,12.432-2.004,15.759-3.892l0.986,1.74
		c-3.549,2.011-9.333,4.36-16.803,4.149c-14.218-0.404-22.68-22.99-23.033-23.951l-0.05-0.196c-0.007-0.044-0.702-4.448-3.316-6.229
		c-1.051-0.716-2.259-0.898-3.694-0.578c-1.487,0.34-2.543,1.063-3.227,2.197c-1.606,2.672-0.545,6.704-0.534,6.745
		c0.064,0.279,5.691,23.997,26.051,28.954c12.96,3.16,20.8-1.764,24.318-4.979l1.349,1.478
		C62.398,183.577,56.641,187.396,47.735,187.396z"/>
	<path id="body" fill="#FAA51D" d="M63.912,169.689c-6.949-0.164-3.277-10.135-3.277-10.135s-4.191-5.007-5.799-7.414
		c-1.537-2.312-4.578-7.772,2.723-11.552c5.527-2.854,13.361-6.375,17.32-8.409l7.231,0.812l-0.057,0.021
		c1.129-0.707,2.529-1.229,4.275-1.396c6-0.586,12.574,1.315,12.574,1.315c0.093,0.185,0.188,0.379,0.3,0.594l-0.021-0.039
		c1.65-0.032,3.297,0.414,3.297,0.414c1.205,0.816,2.674,2.018,4.444,3.744c7.291,7.101,19.854,14.115,19.854,14.115
		s1.396-6.31,5.236-4.729c3.842,1.576-0.113,6.025-0.113,6.025s9.879-1.66,8.961,4.49c-0.582,3.895-4.15,7.442-10.699,6.188
		c-3.748-0.717-7.916-4.631-7.916-4.631c-7.204-1.752-13.025-5.229-16.729-9.062l0.016,0.03c1.949,7.309,2.896,15.521,0.345,22.113
		c-2.874,7.414-7.237,11.758-11.912,14.064l0.062-0.029c-1.434,3.244-4.565,11.114-4.438,17.416l0.016,0.053
		c1.941-2.182,6.9-6.646,15.295-7.229c11.158-0.781,13.313,9.594,12.527,13.898c-0.781,4.309-2.545,8.811-2.545,8.811l-41.111-0.586
		c0,0,13.076-27.979,5.977-30.546l-0.055-0.011c-0.282-0.057-0.56-0.114-0.833-0.182c-9.006-0.591-20.164,30.733-20.164,30.733
		l-31.715,2.149c0,0-7.439-5.679-6.852-13.509c0.587-7.829,10.18-15.659,20.555-15.073c6.559,0.371,10.301,5.748,12.168,9.653
		l0.16-0.061c5.217-4.207,10.35-17.216,11.645-20.661c0,0-0.95-4.118-1.076-5.836C63.456,173.523,63.912,169.689,63.912,169.689z
		 M69.184,156.257c1.9-3.521,3.971-6.993,5.689-10.511l-0.02,0.036c-0.414,0.454-0.642,0.673-0.642,0.673
		c-2.289,1.713-4.742,2.852-8.322,3.459l0.107,0.164c1.293,2.176,2.559,4.686,2.691,6.342c0,0,0.18-0.043,0.464-0.104
		L69.184,156.257z"/>
	<path id="Belly" fill="#FFFFFF" d="M99.699,182.078c2.227-5.064,8.775-22.004-2.984-22.586
		c-14.729-0.729-19.889,21.768-20.947,27.4l0.059,0.156c0.912,0.271,1.92,0.533,3.033,0.803c5.965,1.422,14.303,0.775,20.746-5.662
		L99.699,182.078z"/>
	<path id="bodyBorder" d="M26.853,221.703l-0.299-0.229c-0.322-0.246-7.864-6.104-7.243-14.38
		c0.659-8.812,11.166-16.604,21.608-15.995c6.471,0.362,10.341,5.123,12.458,9.084c4.586-4.529,9.057-15.652,10.396-19.168
		c-1.086-3.516-1.352-7.035-0.806-10.725c-1.24-0.271-2.204-0.902-2.874-1.891c-1.849-2.707-0.661-7.284-0.162-8.879
		c-1.059-1.273-4.147-5.03-5.506-7.068c-0.689-1.037-2.786-4.188-1.912-7.563c0.564-2.181,2.249-4.007,5.008-5.435
		c2.946-1.522,6.918-3.401,10.422-5.06l2.446-1.158l0.858,1.807l-2.45,1.16c-3.489,1.648-7.443,3.521-10.358,5.025
		c-2.233,1.153-3.575,2.555-3.991,4.158c-0.438,1.688,0.1,3.635,1.641,5.949c1.558,2.337,5.692,7.276,5.733,7.325l0.372,0.442
		l-0.2,0.543c-0.53,1.445-1.608,5.634-0.249,7.619c0.521,0.766,1.382,1.146,2.633,1.172c1.413,0.022,2.572-0.399,3.502-1.312
		c2.434-2.386,2.462-7.14,2.462-7.188v-1.021l1.022,0.021c1.334,0.041,3.762-0.242,4.593-1.099c0.189-0.192,0.265-0.39,0.252-0.649
		c-0.005-0.107-0.029-0.182-0.149-0.271c-0.984-0.735-4.589-0.31-6.716,0.214l-1.141,0.279l-0.094-1.171
		c-0.21-2.63-3.968-8.289-5.399-10.248l1.615-1.181c0.246,0.338,1.332,1.842,2.498,3.731c2.845-0.562,5.032-1.521,7.208-3.147
		l0.021,0.026c0.544-1.104,1.053-2.209,1.506-3.312l1.85,0.76c-1.417,3.447-3.325,6.859-5.17,10.159
		c-0.315,0.562-0.63,1.127-0.943,1.688c1.994-0.282,4.622-0.403,5.961,0.597c0.588,0.438,0.917,1.053,0.951,1.774
		c0.039,0.812-0.244,1.554-0.819,2.146c-1.254,1.285-3.709,1.604-5.095,1.68c-0.146,1.742-0.723,5.393-3.014,7.639
		c-1.173,1.146-2.622,1.775-4.313,1.873c-0.564,3.658-0.261,7.143,0.922,10.617l-0.05,0.02l0.041,0.017
		c-1.411,3.792-6.319,16.237-11.59,20.978c0.828,1.892,1.2,3.312,1.245,3.487l-1.938,0.491c-0.032-0.124-3.278-12.414-12.791-12.953
		c-10.174-0.564-18.986,7.271-19.501,14.148c-0.477,6.35,4.881,11.307,6.182,12.41l30.667-2.08
		c1.666-4.568,9.386-24.774,17.3-29.705c-5.752-1.713-7.734-3.349-7.829-3.428l1.292-1.525c0.019,0.017,2.55,2.035,10.287,3.887
		c0.382,0.033,0.74,0.109,1.073,0.23c8.703,1.664,19.503-1.486,24.845-15.27c4.186-10.802-1.376-26.257-5.063-34.508l1.826-0.814
		c1.465,3.274,3.211,7.656,4.557,12.463c3.875,4.111,9.861,7.385,16.466,8.989l0.258,0.062l0.188,0.182
		c0.039,0.037,4.006,3.729,7.42,4.38c2.791,0.537,5.188,0.164,6.934-1.071c1.406-0.998,2.331-2.52,2.594-4.276
		c0.151-1.019-0.045-1.774-0.604-2.322c-1.604-1.571-5.74-1.278-7.201-1.034l-2.783,0.469l1.868-2.117
		c0.476-0.536,1.771-2.328,1.506-3.469c-0.035-0.148-0.146-0.607-1.022-0.975c-0.586-0.236-1.071-0.236-1.535,0.003
		c-1.34,0.697-2.146,3.142-2.344,4.021l-0.295,1.311l-1.17-0.648c-0.521-0.289-12.763-7.166-20.063-14.273
		c-0.344-0.336-0.674-0.65-0.993-0.943l1.354-1.472c0.334,0.308,0.678,0.634,1.032,0.983c5.872,5.715,15.36,11.465,18.558,13.332
		c0.463-1.313,1.388-3.239,2.992-4.076c0.981-0.519,2.1-0.543,3.223-0.082c1.521,0.625,2.043,1.637,2.214,2.373
		c0.271,1.168-0.149,2.397-0.673,3.382c2.064-0.091,5.05,0.137,6.738,1.794c0.709,0.695,1.486,1.964,1.18,4.046
		c-0.346,2.306-1.561,4.299-3.416,5.615c-1.533,1.087-4.242,2.211-8.463,1.405c-3.553-0.684-7.313-3.896-8.215-4.705
		c-5.656-1.414-10.891-4-14.838-7.291c1.508,6.766,1.965,14.007-0.357,20.004c-2.834,7.312-7.197,11.832-11.985,14.342
		c-1.239,2.852-3.614,8.886-4.137,14.316c2.688-2.357,7.319-5.265,14.14-5.74c4.316-0.312,7.889,0.979,10.342,3.721
		c3.235,3.611,3.711,8.77,3.24,11.354c-0.791,4.354-2.523,8.813-2.597,8.996l-0.253,0.646l-43.351-0.618l0.655-1.401
		c2.978-6.369,10.119-23.896,7.436-28.431c-0.199-0.337-0.445-0.569-0.76-0.713c-0.273-0.054-0.545-0.112-0.812-0.175
		c-6.771-0.324-16.066,21.591-19.09,30.078l-0.22,0.617L26.853,221.703z M75.494,217.551l38.874,0.555
		c0.503-1.381,1.666-4.76,2.252-7.979c0.384-2.113-0.026-6.607-2.765-9.663c-2.057-2.291-4.979-3.319-8.711-3.06
		c-10.5,0.736-15.438,7.904-15.487,7.978l-1.663-1.11c0.044-0.063,0.297-0.438,0.768-0.994c-0.019-5.238,2.053-11.422,3.586-15.269
		c-3.283,1.205-6.666,1.57-9.819,1.334C84.939,195.574,77.867,212.268,75.494,217.551z M67.894,150.382
		c0.634,1.14,1.222,2.325,1.634,3.425c0.321-0.578,0.645-1.156,0.967-1.73c0.595-1.063,1.196-2.141,1.784-3.223
		C70.933,149.523,69.506,150.02,67.894,150.382z"/>
	<path id="Face" fill="#FAA51D" d="M145.281,112.25c1.297-2.65,2.082-5.299,2.248-7.826c0.92-14.047-4.557-18.98-4.557-18.98
		s2.932-10.48,1.471-19.854c-0.941-6.037-3.873-13.295-8.729-19.479l0.056-0.061c0.474-3.776,1.272-10.64,1.354-14.244
		c0.213-9.257-0.938-16.173-4.938-18.345c-4.375-2.379-18.428,4.42-27.352,13.009l-0.174-0.027
		c-4.91-1.146-10.209-1.688-15.861-1.464c-5.785,0.229-10.715,1.011-14.723,1.956l-0.094,0.02c-3.127-2.213-6.852-4.776-9.217-6.146
		c-8.494-4.918-15.512-7.373-19.566-4.771c-4.461,2.864-5.299,19.52-1.814,32.213l0.039,0.151c0,0-5.287,16.646-5.287,25.628
		c0,0-3.979,10.201-2.012,22.558l-4.295,4.168c0,0-11.045,8.021-9.711,12.249c1.336,4.23,9.732,3.493,9.732,3.493l11.87,0.049
		l1.104-0.062c0,0-3.428,10.146-1.525,11.804c1.904,1.66,9.889,0,9.889,0l3.78-0.378c13.187,9.01,29.251,9.986,46.578,9.298
		c7.079-0.28,13.834-2.132,19.836-4.961c1.006,0.433,8.547,3.56,11.48,1.606c2.945-1.953,0.119-7.922-0.26-8.688
		c0.201-0.166,0.4-0.33,0.604-0.498l3.902-0.589l7.572-0.355c0,0,2.819-1.123,3.471-3.84
		C150.516,118.4,147.811,115.018,145.281,112.25z"/>
	<path id="Mask" fill="#FFFFFF" d="M132.583,86.708c0.978-2.961,1.552-6.483,1.552-10.273c0-10.46-4.326-18.938-9.664-18.938
		c-5.337,0-9.664,8.479-9.664,18.938c0,4.368,0.762,8.378,2.029,11.582c-6.824,1.666-12.197,4.062-12.197,4.062
		s-5.949-2.338-12.479-3.543c0.605-2.785,0.945-5.865,0.945-9.109c0-12.395-4.924-22.438-11-22.438c-6.075,0-11,10.047-11,22.438
		c0,3.518,0.397,6.841,1.104,9.803c-7.671,2.052-14.276,6.688-14.492,16.205c-0.352,15.465,8.084,20.562,16.52,25.482
		c8.436,4.922,27.768,5.271,27.768,5.271c13.531-0.521,19.507-3.688,25.658-7.021c6.149-3.34,20.032-13.708,20.209-25.66
		C148.027,92.906,141.824,87.845,132.583,86.708z"/>
	<path id="Nose" d="M107.93,84.872c-5.803,0-11.404-0.193-11.404,4.061c0,4.252,4.445,9.476,9.479,9.476
		c5.803,0,9.666-6.575,9.086-9.667C114.504,85.645,111.217,84.872,107.93,84.872"/>
	<path id="Ears" fill="#FFFFFF" d="M70.457,33.538c-4.585,1.777-9.061,4.124-13.368,7.013c-1.878-3.051-2.678-8.607-2.114-12.183
		c0.236-1.499,0.712-2.592,1.273-2.923c0.221-0.13,0.484-0.189,0.782-0.189c1.504,0,3.867,1.494,5.83,2.734l0.458,0.289
		C65.597,29.713,68.703,32.135,70.457,33.538z M129.934,27.394c-0.518-0.307-1.617-0.199-2.953,0.28
		c-3.182,1.147-7.369,4.289-9.049,7.198c4.293,2.229,8.229,4.837,11.746,7.788c0.364-2.103,0.941-5.692,1.092-8.188l0.03-0.497
		C130.962,31.369,131.164,28.124,129.934,27.394z"/>
	<path id="Eyes_1_" d="M124.84,86.688c-1.099,0.092-2.177,0.219-3.23,0.372c-1.26-1.59-2.139-5.136-2.139-9.264
		c0-5.609,1.62-10.158,3.62-10.158c1.998,0,3.619,4.549,3.619,10.158C126.71,81.625,125.954,84.956,124.84,86.688z M83.682,78.284
		c0-5.609-1.622-10.157-3.62-10.157c-2,0-3.621,4.548-3.621,10.157c0,4.625,1.103,8.523,2.61,9.751
		c0.736-0.068,1.468-0.123,2.191-0.156C82.661,86.503,83.682,82.732,83.682,78.284z"/>
	<path id="Mouth" fill="none" stroke="#000000" stroke-width="2" stroke-linecap="round" d="M86.674,103.067
		c0,0,3.947,13.462,17.875,14.39c13.928,0.93,18.801-9.98,18.801-9.98"/>
	<path id="FaceBorder" d="M96.004,138.076c-12.645,0-28.272-1.566-40.715-9.326c-3.011,0.518-11.097,1.709-12.997-0.001
		c-1.688-1.519-0.385-7.339,0.821-11.464c-6.534,0.355-21.576,0.622-22.323-4.417c-0.747-5.026,10.608-13.774,13.97-16.242
		c-1.166-9.809,1.177-19.133,2.277-21.89c0.005-8.501,4.529-23.34,5.246-25.639c-3.309-12.185-2.918-29.847,2.276-33.183
		c4.014-2.578,10.563-1.069,20.608,4.747c2.319,1.342,5.872,3.776,8.932,5.938c4.602-1.061,9.499-1.699,14.562-1.897
		c5.397-0.214,10.704,0.26,15.771,1.406c8.799-8.267,22.951-15.618,28.133-12.801c3.979,2.161,5.709,8.277,5.457,19.246
		c-0.084,3.579-0.851,10.195-1.33,14.042c4.457,5.813,7.601,12.914,8.638,19.563c1.303,8.358-0.767,17.405-1.354,19.724
		c1.354,1.554,5.242,7.153,4.445,19.331c-0.136,2.063-0.664,4.188-1.542,6.32c3.683,4.147,5.019,7.501,3.976,9.964
		c-1.139,2.677-6.03,3.911-14.521,3.687c-0.149,0.131-0.31,0.26-0.461,0.387c1.565,4.061,1.303,7.035-0.765,8.404
		c-2.559,1.693-7.469,0.395-11.159-1.013c-6.21,2.825-13.247,4.668-20.696,4.963C100.986,138.014,98.557,138.076,96.004,138.076z
		 M55.704,126.646l0.328,0.209c14.523,9.228,33.856,9.594,47.135,9.063c22.897-0.905,42.388-17.612,43.255-30.844
		c0.871-13.294-4.182-18.132-4.232-18.18l-0.442-0.415l0.153-0.595c0.029-0.103,2.854-10.387,1.445-19.429
		c-0.89-5.707-3.414-11.775-7.021-16.986c-0.011,0.042-0.015,0.071-0.017,0.089l-1.979-0.269c0.02-0.117,1.578-11.766,1.689-16.792
		c0.229-9.999-1.213-15.704-4.41-17.443c-4.019-2.181-19.608,5.359-28.297,15.036l-1.483-1.336c0.291-0.324,0.594-0.648,0.901-0.974
		c-4.516-0.911-9.209-1.275-13.987-1.089c-4.304,0.17-8.472,0.664-12.437,1.47c2.101,1.507,3.639,2.644,3.798,2.759l-1.188,1.609
		c-0.101-0.075-10.133-7.472-14.747-10.146c-9.198-5.324-15.257-6.891-18.525-4.794c-3.686,2.367-5.021,17.877-1.39,31.108
		l0.115,0.441l-0.087,0.274c-0.052,0.165-5.24,16.604-5.24,25.326v1.192l-0.322-0.059c-0.815,2.613-3.191,11.363-1.897,21.068
		l0.079,0.593l-0.485,0.351c-5.525,3.985-14.115,11.495-13.643,14.678c0.359,2.427,11.487,3.316,21.65,2.628l1.459-0.101
		l-0.437,1.396c-1.552,4.96-2.391,9.998-1.796,10.781c0.754,0.674,6.108,0.422,11.676-0.562L55.704,126.646z M126.479,131.729
		c3.537,1.133,6.336,1.361,7.521,0.576c1.463-0.972,0.771-3.798,0.212-5.436C131.855,128.648,129.264,130.288,126.479,131.729z
		 M145.955,113.523c-1.708,3.333-4.238,6.633-7.424,9.68c5.812-0.047,9.837-0.979,10.479-2.488
		C149.66,119.177,148.579,116.645,145.955,113.523z M131.366,46.867c-4.675-4.511-10.257-8.323-16.591-11.328l0.854-1.807
		c0.17,0.079,0.344,0.16,0.512,0.242c1.938-3.441,6.524-6.874,10.156-8.183c2.008-0.722,3.569-0.761,4.65-0.12
		c2.279,1.354,2.061,4.95,1.844,8.428l-0.025,0.493c-0.192,3.211-1.033,7.982-1.33,9.602c0.442,0.403,0.888,0.815,1.314,1.231
		L131.366,46.867z M117.932,34.873c4.293,2.229,8.229,4.837,11.746,7.788c0.364-2.103,0.941-5.692,1.092-8.188l0.03-0.497
		c0.162-2.605,0.364-5.853-0.866-6.583c-0.518-0.307-1.617-0.199-2.953,0.28C123.799,28.821,119.611,31.963,117.932,34.873z
		 M56.084,43.688l-1.172-1.62c0.176-0.127,0.353-0.253,0.529-0.38c-2.228-3.543-3.082-9.578-2.443-13.632
		c0.348-2.207,1.099-3.665,2.231-4.333c2.389-1.411,5.595,0.616,8.697,2.576l0.455,0.288c2.903,1.827,6.941,5.069,8.266,6.148
		c0.614-0.214,1.23-0.414,1.849-0.606l0.593,1.91C68.51,36.081,62.116,39.327,56.084,43.688z M57.029,25.255
		c-0.298,0-0.562,0.059-0.782,0.189c-0.561,0.331-1.037,1.424-1.273,2.923c-0.563,3.574,0.236,9.132,2.114,12.183
		c4.308-2.889,8.783-5.234,13.368-7.013c-1.754-1.403-4.86-3.825-7.14-5.259l-0.458-0.289
		C60.896,26.749,58.533,25.255,57.029,25.255z"/>
	<path id="WhiskerBorder" d="M45.485,112.703l-1.008-1.729c11.271-6.575,23.698-3.007,24.222-2.852l-0.567,1.918
		C68.011,110.007,55.992,106.572,45.485,112.703z M154.645,108.219c-7.799-4.062-15.391-1.408-15.467-1.38l-0.678-1.882
		c0.343-0.123,8.499-2.976,17.066,1.489L154.645,108.219z M70.085,99.753c-0.116-0.093-11.688-9.215-25.202-3.98l-0.722-1.865
		c14.612-5.659,26.673,3.881,27.18,4.291L70.085,99.753z M137.686,97.562l-1.308-1.514c0.345-0.299,8.567-7.306,18.112-5.876
		l-0.297,1.979C145.575,90.865,137.764,97.496,137.686,97.562z"/>
</g>
</svg>
