<?xml version="1.0" encoding="utf-8"?>
<!-- Generator: Adobe Illustrator 16.0.0, SVG Export Plug-In . SVG Version: 6.00 Build 0)  -->
<!DOCTYPE svg PUBLIC "-//W3C//DTD SVG 1.1//EN" "http://www.w3.org/Graphics/SVG/1.1/DTD/svg11.dtd">
<svg version="1.1" id="Layer_1" xmlns="http://www.w3.org/2000/svg" xmlns:xlink="http://www.w3.org/1999/xlink" x="0px" y="0px"
	 width="157px" height="232px" viewBox="0 0 157 232" enable-background="new 0 0 157 232" xml:space="preserve">
<g id="Cat2.svg">
	<path id="tail" fill="#FAA51D" d="M68.154,176.545c-3.641,3.605-9.581,7.152-19.027,7.666
		c-21.811,1.186-34.209-20.656-34.209-20.656s-4.739-7.568,1.368-11.049c6.107-3.479,10.077,4.934,10.077,4.934
		s14.68,19.494,27.911,15.908c5.894-1.598,10.204-4.541,13.172-7.313"/>
	<path fill="#FFFFFF" d="M35.757,175.762c0.348-2.842,1.326-5.051,2.645-6.781c-6.812-4.785-11.844-11.395-11.844-11.395
		s-4.009-8.395-10.1-4.887c-6.09,3.506-1.317,11.053-1.317,11.053s7.743,13.48,21.664,18.607
		C35.88,180.613,35.425,178.455,35.757,175.762z"/>
	<path id="tailBorder" d="M47.439,185.257c-21.102,0-33.267-20.989-33.391-21.209c-0.087-0.137-2.633-4.266-1.662-8.122
		c0.458-1.818,1.604-3.263,3.405-4.289c1.767-1.005,3.548-1.234,5.3-0.683c3.587,1.134,5.767,5.235,6.126,5.956
		c0.992,1.283,14.77,18.727,26.795,15.473c4.837-1.313,9.127-3.693,12.75-7.081l1.366,1.462c-3.864,3.611-8.438,6.151-13.593,7.549
		c-13.73,3.731-28.355-15.453-28.972-16.271l-0.105-0.174c-0.019-0.04-1.958-4.06-4.976-5.009c-1.213-0.381-2.424-0.213-3.702,0.517
		c-1.328,0.757-2.131,1.751-2.456,3.04c-0.765,3.038,1.417,6.573,1.44,6.609c0.143,0.248,12.393,21.307,33.307,20.188
		c7.672-0.418,13.855-2.9,18.377-7.379l1.407,1.422c-4.88,4.833-11.5,7.51-19.676,7.953
		C48.594,185.241,48.013,185.257,47.439,185.257z"/>
	<path id="body" fill="#FAA51D" d="M68.4,160.426L68.4,160.426c1.031-4.859,1.924-9.482,2.581-13.438l-0.012-0.426
		c-1.518,1.733-9.33,9.5-20.285,12.492l-0.133,0.031c0.34,1.063,1.473,3.723-0.421,4.691c-1.479,0.764-4.142-2.51-4.142-2.51
		s-9.374,2.6-10.491-4.275c-1.116-6.877,5.701-8.609,10.451-5.957l0.683,0.072c11.473-1.838,22.927-11.395,26.044-14.041
		l7.104-0.887l14.854,0.506c0,0,1.013,6.021,2.073,9.998l-0.18,0.371c6.23,3.717,13.951,7.864,20.305,9.854l0.076-0.33
		c1.063-1.271,2.846-3.039,4.383-2.781c2.367,0.396,1.766,5.783,1.766,5.783s9.209-1.558,8.521,4.774
		c-0.824,7.588-10.658,5.903-10.658,5.903s-2.664,0.242-18.301-8.59c-1.201-0.679-2.375-1.418-3.511-2.188l0.008,0.313
		c0.268,3.611,0.078,7.045-0.967,9.625c-3.521,8.688-10.25,11.5-15.25,12l-0.655,0.22c2.218,4.03,6.78,8.655,16.155,11.03
		l0.008-0.537c-0.232-2.731,0.025-6.643,2.242-10.713c4.097-7.524,10.91-11.047,17.25-7.75c6.25,3.25,4.578,15.863,0,23.502
		c-7.104,11.847-20.797,5.918-20.797,5.918s-8.265-2.172-15.813-8.172c-1.937-1.537-3.64-3.065-5.128-4.59l-0.141,0.045
		c-2.183,2.271-6.161,5.808-11.441,8.004l0.31,0.306c4.683,2.741,10.481,8.058,4.936,15.883c-5.076,7.166-18.641,6.437-25.745-3.146
		c-5.952-8.025-6.616-15.469-1.206-19.363c5.667-4.082,12.276-0.059,14.297,1.383l0.165-0.063
		c6.604-2.563,10.913-8.199,12.703-10.949l0.128-0.213C70.166,182.216,64.975,174.773,68.4,160.426z"/>
	<path fill="#FFFFFF" d="M82.244,181.645c0,0,2.779-4.805,4.279-11.305s1.412-10.648,6.912-10.648s5.978,7.285,4.295,11.021
		c-1.451,3.223-3.125,5.295-5.34,7.244c-2.219,1.949-6.734,2.926-6.734,2.926L82.244,181.645z"/>
	<path id="bodyBorder" d="M59.401,220.359c-6.229,0-12.244-3.107-16.125-8.344c-3.891-5.248-5.605-10.221-4.958-14.377
		c0.405-2.604,1.778-4.815,3.971-6.396c5.855-4.223,12.432-0.678,15.018,1.066c6.021-2.471,10.052-7.673,11.7-10.138
		c-3.44-7.021-3.244-14.14-1.585-21.957c0.77-3.631,1.566-7.427,2.262-10.958c-3.048,2.829-9.33,7.885-17.592,10.43
		c0.314,0.854,0.505,1.834,0.292,2.766c-0.22,0.96-0.841,1.729-1.796,2.219c-1.756,0.904-3.919-1.12-4.963-2.284
		c-1.547,0.325-5.578,0.933-8.385-0.864c-1.496-0.959-2.415-2.43-2.729-4.366c-0.494-3.039,0.391-5.524,2.492-6.997
		c2.498-1.751,6.29-1.747,9.433,0.008l0.19,0.104c11.03-1.739,21.644-10.765,25.174-13.766l0.229-0.193l0.646,0.764l0.998,0.076
		c-0.369,4.726-2.41,14.6-4.295,23.481c-2.566,12.099-1.417,22.427,12.533,33.509c7.284,5.789,15.366,7.967,15.446,7.987
		l0.143,0.049c0.527,0.229,12.982,5.429,19.543-5.515c3.297-5.501,4.775-13.208,3.441-17.93c-0.569-2.015-1.596-3.418-3.045-4.172
		c-5.645-2.937-11.89-0.055-15.912,7.342c-3.836,7.041-1.465,13.608-1.439,13.676l-1.875,0.695
		c-0.041-0.108-0.414-1.143-0.662-2.789c-18.698-5.036-18.404-19.202-18.398-19.349l1.998,0.069
		c-0.008,0.246-0.049,3.064,1.678,6.467l-0.023-0.245c3.817-0.382,10.77-2.366,14.424-11.381c0.873-2.153,1.178-5.188,0.904-9.021
		c-7.717-5.349-13.461-12.076-13.738-12.405l1.523-1.293c0.078,0.092,7.859,9.206,17.193,14.478
		c14.599,8.244,17.674,8.456,17.798,8.463l0.129-0.014l0.052,0.023c0.051,0.01,4.771,0.771,7.54-1.318
		c1.142-0.861,1.779-2.075,1.957-3.707c0.125-1.152-0.127-2.011-0.771-2.619c-1.605-1.513-5.303-1.281-6.588-1.063l-1.309,0.223
		l0.146-1.316c0.205-1.855-0.049-4.537-0.935-4.688c-1.176-0.203-3.271,2.018-4.315,3.568l-1.164-0.779
		c-11.777-3.969-27.463-14.514-30.555-16.635l1.131-1.646c1.271,0.872,4.701,3.188,9.104,5.874
		c-0.896-3.938-1.665-8.253-1.674-8.305l1.969-0.352c0.012,0.063,1.045,5.875,2.104,10.099c5.781,3.419,12.72,7.108,18.604,9.085
		c1.231-1.436,3.19-3.213,5.126-2.885c2.443,0.408,2.725,3.703,2.674,5.646c1.809-0.131,5.143-0.08,7.049,1.719
		c1.117,1.053,1.586,2.495,1.393,4.291c-0.237,2.182-1.161,3.896-2.745,5.09c-3.294,2.484-8.317,1.813-9.005,1.703
		c-0.938-0.051-4.823-0.882-18.695-8.717c-0.646-0.365-1.291-0.751-1.923-1.146c0.116,3.445-0.265,6.269-1.127,8.4
		c-3.908,9.643-11.493,11.973-15.294,12.523c2.191,3.332,6.214,6.898,13.563,9.027c-0.117-2.807,0.312-6.525,2.426-10.404
		c4.521-8.312,11.996-11.59,18.59-8.159c1.961,1.021,3.322,2.837,4.049,5.401c1.492,5.278-0.042,13.479-3.65,19.5
		c-7.184,11.979-20.818,6.818-21.976,6.354c-0.86-0.232-8.761-2.491-16.116-8.338c-1.69-1.344-3.202-2.678-4.552-4.002
		c-2.192,2.178-5.418,4.863-9.523,6.861c2.665,1.767,5.538,4.422,6.302,7.963c0.596,2.767-0.162,5.664-2.253,8.615
		c-2.31,3.264-6.333,5.162-11.036,5.213C59.537,220.359,59.469,220.359,59.401,220.359z M48.388,191.293
		c-1.638,0-3.335,0.424-4.93,1.573c-1.774,1.276-2.838,2.987-3.164,5.081c-0.554,3.563,1.075,8.139,4.589,12.878
		c3.505,4.728,8.921,7.534,14.519,7.534c0.06,0,0.121,0,0.181-0.002c4.055-0.043,7.49-1.635,9.426-4.367
		c1.754-2.477,2.403-4.844,1.93-7.038c-0.727-3.372-3.966-5.888-6.556-7.403l-0.195-0.15l-1.386-1.358l1.393-0.579
		c4.602-1.915,8.186-4.855,10.526-7.188c-1.91-2.047-3.44-4.082-4.646-6.121c-2.331,3.271-6.578,8.029-12.732,10.291l-0.19,0.229
		C57.096,194.627,52.978,191.293,48.388,191.293z M46.351,160.137l0.413,0.506c1.189,1.455,2.615,2.402,2.909,2.25
		c0.568-0.291,0.707-0.646,0.762-0.888c0.265-1.155-0.815-2.928-1.215-3.458l1.598-1.203c0.049,0.065,0.188,0.254,0.364,0.53
		c11.428-3.396,18.958-11.882,19.035-11.97l0.096,0.082c0.458-2.457,0.839-4.691,1.091-6.534
		c-4.789,3.959-14.743,11.508-25.122,12.889l-0.63,0.084l-0.405-0.63c-2.408-1.255-5.294-1.264-7.096-0.001
		c-1.459,1.022-2.036,2.767-1.666,5.04c0.223,1.37,0.821,2.352,1.831,3c2.706,1.736,7.36,0.488,7.407,0.477L46.351,160.137z"/>
	<path id="Face" fill="#FAA51D" d="M135.281,112.25c1.297-2.65,2.082-5.299,2.248-7.826c0.92-14.047-4.557-18.98-4.557-18.98
		s2.932-10.48,1.471-19.854c-0.941-6.037-3.873-13.295-8.729-19.479l0.056-0.061c0.473-3.776,1.272-10.64,1.354-14.244
		c0.213-9.257-0.938-16.173-4.938-18.345c-4.375-2.379-18.428,4.42-27.352,13.009l-0.174-0.027
		c-4.91-1.146-10.209-1.688-15.861-1.464c-5.785,0.229-10.715,1.011-14.723,1.956l-0.094,0.02c-3.127-2.213-6.852-4.776-9.217-6.146
		c-8.494-4.918-15.512-7.373-19.566-4.771c-4.461,2.864-5.299,19.52-1.814,32.213l0.039,0.151c0,0-5.287,16.646-5.287,25.628
		c0,0-3.97,10.41-2.003,22.767l-4.304,3.96c0,0-11.045,8.021-9.711,12.249c1.336,4.23,9.732,3.493,9.732,3.493l11.87,0.049
		l1.104-0.062c0,0-3.428,10.146-1.525,11.804c1.904,1.66,9.889,0,9.889,0l3.764-0.384c13.187,9.01,29.268,9.992,46.594,9.304
		c7.079-0.28,13.834-2.132,19.836-4.961c1.006,0.433,8.547,3.56,11.48,1.606c2.945-1.953,0.119-7.922-0.26-8.688
		c0.201-0.166,0.401-0.33,0.604-0.498l3.902-0.589l7.572-0.355c0,0,2.82-1.123,3.471-3.84
		C140.516,118.4,137.811,115.018,135.281,112.25z"/>
	<path id="Mask" fill="#FFFFFF" d="M122.583,86.708c0.978-2.961,1.552-6.483,1.552-10.273c0-10.46-4.326-18.938-9.664-18.938
		c-5.337,0-9.664,8.479-9.664,18.938c0,4.368,0.762,8.378,2.029,11.582c-6.824,1.666-12.197,4.062-12.197,4.062
		s-5.949-2.338-12.479-3.543c0.605-2.785,0.945-5.865,0.945-9.109c0-12.395-4.924-22.438-11-22.438c-6.075,0-11,10.047-11,22.438
		c0,3.518,0.397,6.841,1.104,9.803c-7.671,2.052-14.276,6.688-14.492,16.205c-0.352,15.465,8.084,20.562,16.52,25.482
		c8.436,4.922,27.768,5.271,27.768,5.271c13.531-0.521,19.507-3.688,25.658-7.022c6.149-3.34,20.032-13.708,20.209-25.66
		C138.027,92.906,131.824,87.845,122.583,86.708z"/>
	<path id="Eyes_1_" d="M114.84,86.687c-1.099,0.092-2.177,0.219-3.23,0.372c-1.26-1.59-2.139-5.136-2.139-9.264
		c0-5.609,1.62-10.158,3.62-10.158c1.998,0,3.619,4.549,3.619,10.158C116.71,81.624,115.954,84.955,114.84,86.687z M73.682,78.283
		c0-5.609-1.621-10.157-3.619-10.157c-2,0-3.621,4.548-3.621,10.157c0,4.625,1.103,8.523,2.609,9.751
		c0.736-0.068,1.469-0.123,2.191-0.156C72.661,86.502,73.682,82.731,73.682,78.283z"/>
	<path id="Nose" d="M97.93,84.872c-5.803,0-11.404-0.193-11.404,4.061c0,4.252,4.445,9.476,9.478,9.476
		c5.802,0,9.666-6.575,9.086-9.667C104.504,85.645,101.217,84.872,97.93,84.872"/>
	<path id="Ears" fill="#FFFFFF" d="M60.457,33.538c-4.585,1.777-9.061,4.124-13.368,7.013c-1.878-3.051-2.678-8.607-2.114-12.183
		c0.236-1.499,0.712-2.592,1.273-2.923c0.221-0.13,0.484-0.189,0.782-0.189c1.504,0,3.867,1.494,5.83,2.734l0.458,0.289
		C55.597,29.713,58.703,32.135,60.457,33.538z M119.934,27.394c-0.518-0.307-1.617-0.199-2.953,0.28
		c-3.182,1.147-7.369,4.289-9.049,7.198c4.293,2.229,8.229,4.837,11.746,7.788c0.364-2.103,0.941-5.692,1.092-8.188l0.03-0.497
		C120.962,31.369,121.164,28.124,119.934,27.394z"/>
	<path id="Mouth" fill="none" stroke="#000000" stroke-width="2" stroke-linecap="round" d="M76.674,103.067
		c0,0,3.947,13.462,17.875,14.39c13.928,0.93,18.801-9.98,18.801-9.98"/>
	<path id="FaceBorder" d="M86.004,138.076c-12.645,0-28.272-1.566-40.715-9.326c-3.011,0.518-11.097,1.709-12.997-0.001
		c-1.688-1.519-0.385-7.339,0.821-11.464c-6.534,0.355-21.576,0.622-22.323-4.417c-0.747-5.026,10.608-13.774,13.97-16.242
		c-1.166-9.809,1.177-19.133,2.277-21.89c0.005-8.501,4.529-23.34,5.246-25.639c-3.309-12.185-2.918-29.847,2.276-33.183
		c4.014-2.578,10.563-1.069,20.608,4.747c2.319,1.342,5.872,3.776,8.932,5.938c4.602-1.061,9.499-1.699,14.562-1.897
		c5.397-0.214,10.704,0.26,15.771,1.406c8.799-8.267,22.951-15.618,28.133-12.801c3.979,2.161,5.709,8.277,5.457,19.246
		c-0.084,3.579-0.851,10.195-1.33,14.042c4.457,5.813,7.6,12.914,8.637,19.563c1.303,8.358-0.766,17.405-1.354,19.724
		c1.354,1.554,5.242,7.153,4.445,19.331c-0.136,2.063-0.664,4.188-1.542,6.32c3.683,4.147,5.019,7.501,3.976,9.964
		c-1.139,2.677-6.031,3.911-14.521,3.687c-0.15,0.131-0.309,0.26-0.461,0.387c1.566,4.06,1.303,7.035-0.764,8.404
		c-2.559,1.693-7.469,0.394-11.159-1.013c-6.21,2.825-13.248,4.668-20.697,4.963C90.986,138.014,88.557,138.076,86.004,138.076z
		 M45.704,126.646l0.328,0.209c14.523,9.228,33.856,9.594,47.135,9.064c22.897-0.906,42.388-17.613,43.255-30.844
		c0.871-13.294-4.182-18.132-4.232-18.18l-0.443-0.415l0.154-0.595c0.029-0.103,2.854-10.387,1.445-19.429
		c-0.89-5.707-3.414-11.775-7.021-16.986c-0.01,0.042-0.014,0.071-0.016,0.089l-1.979-0.269c0.02-0.117,1.578-11.766,1.689-16.792
		c0.23-9.999-1.213-15.704-4.41-17.443c-4.018-2.181-19.608,5.359-28.297,15.036l-1.483-1.336c0.291-0.324,0.594-0.648,0.901-0.974
		c-4.515-0.911-9.209-1.275-13.987-1.089c-4.301,0.17-8.472,0.664-12.437,1.47c2.101,1.507,3.639,2.644,3.798,2.759l-1.188,1.609
		c-0.101-0.075-10.133-7.472-14.747-10.146c-9.198-5.324-15.257-6.891-18.525-4.794c-3.686,2.367-5.021,17.877-1.39,31.108
		l0.115,0.441l-0.087,0.274c-0.052,0.165-5.24,16.604-5.24,25.326v1.192l-0.322-0.059c-0.815,2.613-3.191,11.363-1.897,21.068
		l0.079,0.593l-0.485,0.351c-5.525,3.985-14.115,11.495-13.643,14.678c0.359,2.427,11.487,3.316,21.65,2.628l1.459-0.101
		l-0.437,1.396c-1.552,4.96-2.391,9.998-1.796,10.781c0.754,0.674,6.108,0.422,11.676-0.563L45.704,126.646z M116.479,131.729
		c3.537,1.133,6.336,1.361,7.521,0.576c1.463-0.972,0.771-3.798,0.212-5.436C121.855,128.648,119.264,130.288,116.479,131.729z
		 M135.955,113.523c-1.708,3.333-4.238,6.633-7.424,9.68c5.812-0.047,9.837-0.979,10.479-2.488
		C139.66,119.177,138.579,116.645,135.955,113.523z M121.366,46.867c-4.675-4.511-10.257-8.323-16.591-11.328l0.854-1.807
		c0.17,0.079,0.344,0.16,0.512,0.242c1.938-3.441,6.524-6.874,10.156-8.183c2.008-0.722,3.569-0.761,4.651-0.12
		c2.278,1.354,2.06,4.95,1.843,8.428l-0.025,0.493c-0.193,3.211-1.033,7.982-1.33,9.602c0.442,0.403,0.887,0.815,1.314,1.231
		L121.366,46.867z M107.932,34.873c4.293,2.229,8.229,4.837,11.746,7.788c0.364-2.103,0.941-5.692,1.092-8.188l0.03-0.497
		c0.162-2.605,0.364-5.853-0.866-6.583c-0.518-0.307-1.617-0.199-2.953,0.28C113.799,28.821,109.611,31.963,107.932,34.873z
		 M46.084,43.688l-1.172-1.62c0.176-0.127,0.353-0.253,0.529-0.38c-2.228-3.543-3.082-9.578-2.443-13.632
		c0.348-2.207,1.099-3.665,2.231-4.333c2.389-1.411,5.595,0.616,8.697,2.576l0.455,0.288c2.903,1.827,6.941,5.069,8.266,6.148
		c0.614-0.214,1.23-0.414,1.849-0.606l0.593,1.91C58.51,36.081,52.116,39.327,46.084,43.688z M47.029,25.255
		c-0.298,0-0.562,0.059-0.782,0.189c-0.561,0.331-1.037,1.424-1.273,2.923c-0.563,3.574,0.236,9.132,2.114,12.183
		c4.308-2.889,8.783-5.234,13.368-7.013c-1.754-1.403-4.86-3.825-7.14-5.259l-0.458-0.289
		C50.896,26.749,48.533,25.255,47.029,25.255z"/>
	<path id="WhiskerBorder" d="M35.485,112.703l-1.008-1.729c11.271-6.575,23.698-3.007,24.222-2.852l-0.567,1.918
		C58.011,110.007,45.992,106.572,35.485,112.703z M144.645,108.219c-7.799-4.062-15.391-1.408-15.467-1.38l-0.678-1.882
		c0.343-0.123,8.499-2.976,17.066,1.489L144.645,108.219z M60.085,99.753c-0.116-0.093-11.688-9.215-25.202-3.98l-0.722-1.865
		c14.612-5.659,26.673,3.881,27.18,4.291L60.085,99.753z M127.686,97.562l-1.308-1.514c0.345-0.299,8.567-7.306,18.112-5.876
		l-0.297,1.979C135.575,90.865,127.764,97.496,127.686,97.562z"/>
</g>
</svg>
