<?xml version="1.0" encoding="utf-8"?>
<!-- Generator: Adobe Illustrator 15.0.0, SVG Export Plug-In . SVG Version: 6.00 Build 0)  -->
<!DOCTYPE svg PUBLIC "-//W3C//DTD SVG 1.1//EN" "http://www.w3.org/Graphics/SVG/1.1/DTD/svg11.dtd">
<svg version="1.1" id="Layer_2" xmlns="http://www.w3.org/2000/svg" xmlns:xlink="http://www.w3.org/1999/xlink" x="0px" y="0px"
	 width="300px" height="150px" viewBox="0 0 300 150" enable-background="new 0 0 300 150" xml:space="preserve">
<g>
	<g>
		<path opacity="0.2" enable-background="new    " d="M47.289,147.252c-3.773,0-7.305-1.848-9.482-4.84
			c-1.043,0.195-2.106,0.293-3.187,0.293c-6.661,0-12.808-3.889-15.658-9.908c-1.979-4.18-2.214-8.877-0.659-13.229
			c0.422-1.186,0.969-2.311,1.627-3.354l-6.793-14.34c-5.763-12.164-6.441-25.848-1.914-38.521c0.688-1.93,1.496-3.818,2.418-5.655
			c-0.396-0.567-0.773-1.16-1.132-1.78c-7.827-13.582-0.571-27.533,0.281-29.08L24.111,6.299l4.451,22.949
			c0.066,0.295,0.17,0.625,0.289,0.945c0.187-0.445,0.403-1.042,0.58-1.529c1.354-3.717,3.877-10.639,13.748-14.337
			c2.889-1.106,5.824-1.679,8.674-1.679c6.803,0,13.07,3.359,17.197,9.218c2.154,3.056,3.646,6.646,4.33,10.255
			c13.475,4.143,24.77,13.797,30.834,26.604l6.793,14.337c5.787,0.75,10.924,4.417,13.458,9.765
			c1.979,4.183,2.216,8.886,0.656,13.243c-1.031,2.889-2.771,5.395-5.039,7.334c0.392,1.084,0.617,2.211,0.676,3.365
			c0.037,0.777,0,1.545-0.11,2.295c-0.115,0.771-0.303,1.516-0.558,2.229c-1.053,2.947-3.19,5.312-6.021,6.648l-1.803,0.854
			c-1.586,0.75-3.271,1.129-5.015,1.129c-1.476,0-2.91-0.277-4.243-0.805c0.526,2.205,0.401,4.506-0.363,6.648
			c-1.056,2.943-3.189,5.307-6.017,6.646l-1.812,0.854c-1.584,0.75-3.27,1.129-5.012,1.129c-2.31,0-4.526-0.689-6.398-1.914
			c-0.18,1.66-0.71,3.27-1.567,4.713c-1.192,2.021-2.944,3.615-5.063,4.619l-1.812,0.854c-1.572,0.748-3.26,1.127-5.008,1.127
			c-3.04,0-5.93-1.174-8.139-3.311c-0.614-0.596-1.156-1.236-1.62-1.939c-0.021,0.014-0.043,0.021-0.064,0.021
			c-0.003,0.014-0.006,0.021-0.009,0.021c-1.057,2.957-3.193,5.312-6.021,6.65l-1.801,0.854
			C50.713,146.873,49.029,147.252,47.289,147.252z"/>
		<g>
			<path fill="#FFFFFF" d="M42.771,143.223c-3.774,0-7.306-1.846-9.482-4.84c-1.044,0.188-2.107,0.295-3.188,0.295
				c-6.66,0-12.808-3.896-15.658-9.908c-1.979-4.182-2.213-8.883-0.658-13.238c0.422-1.18,0.968-2.305,1.627-3.357L8.619,97.84
				C2.855,85.674,2.176,71.994,6.704,59.319c0.688-1.929,1.497-3.817,2.418-5.655c-0.396-0.566-0.772-1.16-1.131-1.779
				c-7.827-13.584-0.572-27.534,0.28-29.08L19.592,2.268l4.451,22.949c0.067,0.295,0.17,0.625,0.289,0.945
				c0.187-0.445,0.403-1.042,0.581-1.529c1.354-3.717,3.876-10.639,13.748-14.336c2.889-1.107,5.824-1.68,8.674-1.68
				c6.803,0,13.07,3.36,17.197,9.219c2.154,3.055,3.646,6.645,4.33,10.254c13.474,4.144,24.77,13.797,30.834,26.604l6.793,14.337
				c5.785,0.75,10.922,4.417,13.457,9.765c1.979,4.184,2.216,8.885,0.656,13.242c-1.031,2.889-2.771,5.396-5.041,7.334
				c0.393,1.086,0.617,2.213,0.678,3.365c0.037,0.781,0,1.547-0.111,2.297c-0.115,0.77-0.303,1.516-0.557,2.229
				c-1.055,2.951-3.191,5.312-6.021,6.646l-1.803,0.854c-1.586,0.75-3.271,1.131-5.016,1.131c-1.474,0-2.908-0.281-4.242-0.807
				c0.527,2.207,0.402,4.504-0.363,6.646c-1.055,2.947-3.189,5.311-6.018,6.646l-1.811,0.854c-1.583,0.75-3.27,1.129-5.012,1.129
				c-2.309,0-4.525-0.688-6.398-1.91c-0.179,1.656-0.709,3.266-1.566,4.715c-1.192,2.021-2.944,3.607-5.064,4.615l-1.812,0.854
				c-1.571,0.746-3.26,1.129-5.008,1.129c-3.039,0-5.93-1.178-8.138-3.311c-0.614-0.6-1.157-1.24-1.62-1.939
				c-0.021,0.012-0.043,0.021-0.064,0.021c-0.004,0.014-0.006,0.021-0.01,0.021c-1.057,2.957-3.193,5.314-6.021,6.654l-1.802,0.854
				C46.197,142.844,44.513,143.223,42.771,143.223z"/>
			<g id="Legs_1_">
				<g>
					<g>
						<path fill="#C57FE5" d="M47.48,129.281c0.758,1.6,0.074,3.518-1.527,4.273l-1.811,0.854c-1.604,0.764-3.518,0.074-4.275-1.521
							l-5.146-10.855c-0.759-1.605-0.076-3.521,1.527-4.271l1.811-0.855c1.603-0.762,3.516-0.076,4.273,1.525L47.48,129.281z"/>
						
							<path fill="none" stroke="#7F4699" stroke-width="3" stroke-linecap="round" stroke-linejoin="round" stroke-miterlimit="10" d="
							M47.48,129.281c0.758,1.6,0.074,3.518-1.527,4.273l-1.811,0.854c-1.604,0.764-3.518,0.074-4.275-1.521l-5.146-10.855
							c-0.759-1.605-0.076-3.521,1.527-4.271l1.811-0.855c1.603-0.762,3.516-0.076,4.273,1.525L47.48,129.281z"/>
					</g>
					<g>
						<path fill="#2AC699" d="M42.572,129.357c-1.266,0.602-2.565,0.975-3.834,1.146l1.129,2.383
							c0.759,1.602,2.673,2.285,4.275,1.521l1.811-0.855c1.604-0.758,2.285-2.674,1.527-4.27l-1.209-2.549
							C45.263,127.764,44.021,128.672,42.572,129.357z"/>
						<path fill="none" stroke="#138962" stroke-width="3" stroke-miterlimit="10" d="M42.572,129.357
							c-1.266,0.602-2.565,0.975-3.834,1.146l1.129,2.383c0.759,1.602,2.673,2.285,4.275,1.521l1.811-0.855
							c1.604-0.758,2.285-2.674,1.527-4.27l-1.209-2.549C45.263,127.764,44.021,128.672,42.572,129.357z"/>
					</g>
				</g>
				<g>
					<g>
						<path fill="#C57FE5" d="M70.15,125.834c0.759,1.605,0.076,3.521-1.526,4.275l-1.812,0.857
							c-1.602,0.76-3.517,0.074-4.273-1.525l-5.146-10.865c-0.761-1.604-0.076-3.514,1.526-4.275l1.812-0.854
							c1.602-0.758,3.517-0.074,4.273,1.523L70.15,125.834z"/>
						
							<path fill="none" stroke="#7F4699" stroke-width="3" stroke-linecap="round" stroke-linejoin="round" stroke-miterlimit="10" d="
							M70.15,125.834c0.759,1.605,0.076,3.521-1.526,4.275l-1.812,0.857c-1.602,0.76-3.517,0.074-4.273-1.525l-5.146-10.865
							c-0.761-1.604-0.076-3.514,1.526-4.275l1.812-0.854c1.602-0.758,3.517-0.074,4.273,1.523L70.15,125.834z"/>
					</g>
					<g>
						<path fill="#2AC699" d="M65.244,125.91c-1.268,0.6-2.567,0.975-3.834,1.146l1.129,2.385c0.758,1.6,2.673,2.285,4.273,1.523
							l1.812-0.855c1.603-0.758,2.285-2.674,1.526-4.277l-1.207-2.549C67.935,124.318,66.689,125.225,65.244,125.91z"/>
						<path fill="none" stroke="#138962" stroke-width="3" stroke-miterlimit="10" d="M65.244,125.91
							c-1.268,0.6-2.567,0.975-3.834,1.146l1.129,2.385c0.758,1.6,2.673,2.285,4.273,1.523l1.812-0.855
							c1.603-0.758,2.285-2.674,1.526-4.277l-1.207-2.549C67.935,124.318,66.689,125.225,65.244,125.91z"/>
					</g>
				</g>
				<g>
					<g>
						<path fill="#C57FE5" d="M90,116.43c0.761,1.602,0.076,3.516-1.525,4.271l-1.812,0.857c-1.603,0.76-3.517,0.072-4.276-1.527
							l-5.145-10.859c-0.76-1.604-0.076-3.52,1.525-4.271l1.812-0.854c1.603-0.762,3.517-0.074,4.274,1.523L90,116.43z"/>
						
							<path fill="none" stroke="#7F4699" stroke-width="3" stroke-linecap="round" stroke-linejoin="round" stroke-miterlimit="10" d="
							M90,116.43c0.761,1.602,0.076,3.516-1.525,4.271l-1.812,0.857c-1.603,0.76-3.517,0.072-4.276-1.527l-5.145-10.859
							c-0.76-1.604-0.076-3.52,1.525-4.271l1.812-0.854c1.603-0.762,3.517-0.074,4.274,1.523L90,116.43z"/>
					</g>
					<g>
						<path fill="#2AC699" d="M85.095,116.508c-1.27,0.6-2.568,0.975-3.837,1.146l1.128,2.383c0.76,1.602,2.676,2.285,4.276,1.527
							l1.812-0.859c1.603-0.758,2.287-2.674,1.525-4.275l-1.207-2.549C87.783,114.914,86.542,115.82,85.095,116.508z"/>
						<path fill="none" stroke="#138962" stroke-width="3" stroke-miterlimit="10" d="M85.095,116.508
							c-1.27,0.6-2.568,0.975-3.837,1.146l1.128,2.383c0.76,1.602,2.676,2.285,4.276,1.527l1.812-0.859
							c1.603-0.758,2.287-2.674,1.525-4.275l-1.207-2.549C87.783,114.914,86.542,115.82,85.095,116.508z"/>
					</g>
				</g>
				<g>
					<g>
						<path fill="#C57FE5" d="M107.445,101.951c0.759,1.602,0.076,3.516-1.526,4.275l-1.812,0.857
							c-1.604,0.758-3.518,0.066-4.274-1.525l-5.146-10.865c-0.76-1.602-0.076-3.516,1.524-4.273l1.812-0.854
							c1.604-0.763,3.52-0.074,4.276,1.522L107.445,101.951z"/>
						
							<path fill="none" stroke="#7F4699" stroke-width="3" stroke-linecap="round" stroke-linejoin="round" stroke-miterlimit="10" d="
							M107.445,101.951c0.759,1.602,0.076,3.516-1.526,4.275l-1.812,0.857c-1.604,0.758-3.518,0.066-4.274-1.525l-5.146-10.865
							c-0.76-1.602-0.076-3.516,1.524-4.273l1.812-0.854c1.604-0.763,3.52-0.074,4.276,1.522L107.445,101.951z"/>
					</g>
					<g>
						<path fill="#2AC699" d="M102.538,102.027c-1.267,0.6-2.565,0.975-3.834,1.146l1.129,2.385
							c0.758,1.602,2.672,2.283,4.274,1.525l1.812-0.857c1.604-0.76,2.285-2.674,1.526-4.275l-1.209-2.549
							C105.228,100.434,103.986,101.34,102.538,102.027z"/>
						<path fill="none" stroke="#138962" stroke-width="3" stroke-miterlimit="10" d="M102.538,102.027
							c-1.267,0.6-2.565,0.975-3.834,1.146l1.129,2.385c0.758,1.602,2.672,2.283,4.274,1.525l1.812-0.857
							c1.604-0.76,2.285-2.674,1.526-4.275l-1.209-2.549C105.228,100.434,103.986,101.34,102.538,102.027z"/>
					</g>
				</g>
			</g>
			<g id="Body_2_">
				<path fill="#C57FE5" d="M36.226,38.404C15.318,48.309,6.396,73.287,16.3,94.197l9.426,19.893c0,0,8.797,2.615,40.688-12.48
					c31.893-15.109,35.029-23.377,35.029-23.377l-9.426-19.896C82.113,37.422,57.135,28.5,36.226,38.404z"/>
				
					<path fill="none" stroke="#7F4699" stroke-width="3" stroke-linecap="round" stroke-linejoin="round" stroke-miterlimit="10" d="
					M36.226,38.404C15.318,48.309,6.396,73.287,16.3,94.197l9.426,19.893c0,0,8.797,2.615,40.688-12.48
					c31.893-15.109,35.029-23.377,35.029-23.377l-9.426-19.896C82.113,37.422,57.135,28.5,36.226,38.404z"/>
			</g>
			<g id="Eyes_2_">
				<g>
					<circle fill="#2F2831" cx="38.5" cy="64.57" r="8.061"/>
					<path fill="#FFFFFF" d="M37.927,59.836c1.53,0.807,1.982,2.955,1.014,4.795c-0.971,1.842-2.998,2.682-4.524,1.875
						c-1.532-0.807-1.985-2.951-1.017-4.793C34.371,59.871,36.398,59.032,37.927,59.836z"/>
					<path fill="#FFFFFF" d="M42.509,63.129c0.811,0.391,0.992,1.701,0.402,2.936c-0.588,1.23-1.727,1.914-2.537,1.523
						c-0.812-0.389-0.994-1.701-0.404-2.934C40.558,63.422,41.693,62.74,42.509,63.129z"/>
				</g>
				<g>
					<circle fill="#2F2831" cx="55.06" cy="56.726" r="8.06"/>
					<path fill="#FFFFFF" d="M54.486,51.994c1.529,0.807,1.982,2.952,1.012,4.793c-0.969,1.842-2.995,2.682-4.525,1.875
						c-1.529-0.805-1.981-2.953-1.015-4.794C50.929,52.027,52.957,51.188,54.486,51.994z"/>
					<path fill="#FFFFFF" d="M59.066,55.285c0.812,0.389,0.994,1.702,0.404,2.936c-0.589,1.23-1.727,1.912-2.539,1.523
						c-0.813-0.386-0.992-1.701-0.404-2.933C57.119,55.579,58.254,54.896,59.066,55.285z"/>
				</g>
				
					<path fill="none" stroke="#282828" stroke-width="1.4708" stroke-linecap="round" stroke-linejoin="round" stroke-miterlimit="10" d="
					M29.261,73.275c-0.887-0.604-1.631-1.446-2.123-2.488c-0.629-1.326-0.748-2.762-0.443-4.088"/>
				
					<path fill="none" stroke="#282828" stroke-width="1.4708" stroke-linecap="round" stroke-linejoin="round" stroke-miterlimit="10" d="
					M67.62,55.105c0.094-1.071-0.087-2.18-0.581-3.221c-0.628-1.324-1.661-2.328-2.885-2.932"/>
			</g>
			<g id="Mouth_2_">
				<path fill="#FFA4DC" stroke="#6E2C91" stroke-width="2" stroke-miterlimit="10" d="M49.189,74.842l2.557,5.396
					c0.918,1.938,3.234,2.766,5.174,1.848c1.938-0.918,2.768-3.232,1.85-5.175l-2.559-5.396L49.189,74.842z"/>
				
					<line fill="none" stroke="#6E2C91" stroke-width="2" stroke-linecap="round" stroke-miterlimit="10" x1="47.197" y1="75.784" x2="58.203" y2="70.571"/>
			</g>
			<g id="Arms_2_">
				<g>
					<path fill="#C57FE5" d="M31.255,96.941c4.113,1.643,12.066,3.264,13.161,0.693c1.091-2.57-11.956-8.711-11.956-8.711"/>
					
						<path fill="none" stroke="#7F4699" stroke-width="3" stroke-linecap="round" stroke-linejoin="round" stroke-miterlimit="10" d="
						M31.255,96.941c4.113,1.643,12.066,3.264,13.161,0.693c1.091-2.57-11.956-8.711-11.956-8.711"/>
				</g>
				<g>
					<path fill="#C57FE5" d="M77.263,70.27c-0.664,4.292-1.195,12.373,1.434,13.052c2.632,0.677,6.008-11.7,6.008-11.7"/>
					
						<path fill="none" stroke="#7F4699" stroke-width="3" stroke-linecap="round" stroke-linejoin="round" stroke-miterlimit="10" d="
						M77.263,70.27c-0.664,4.292-1.195,12.373,1.434,13.052c2.632,0.677,6.008-11.7,6.008-11.7"/>
				</g>
			</g>
			<g id="Hair_x5F_Color_1_">
				<path fill="#68D649" d="M24.463,40.146c4.146,0.754,6.513-5.722,11.763-6.808c6.988-1.418,12.896,8.797,20.488,3.965
					c1.538-0.98,2.828-1.975,3.926-2.939c0.438-2.593-0.109-6.006-1.59-9.116c-0.229,0.421-0.445,0.829-0.64,1.205
					c-1.076,2.073-5.296,7.944-14.813,2.981c-5.236-2.731-8.371-2.713-10.759-1.727c-1.044,2.86-2.09,5.553-6.093,7.174
					c-3.534,1.432-6.006,0.422-7.704-1.295C19.961,37.121,21.533,39.612,24.463,40.146z"/>
				<path fill="#42B0F4" d="M43.599,29.434c9.517,4.963,13.735-0.908,14.812-2.981c0.193-0.375,0.411-0.784,0.64-1.205
					c-2.721-5.706-8.599-10.372-17.405-6.995c-6.311,2.362-7.558,6.028-8.806,9.455C35.226,26.721,38.361,26.702,43.599,29.434z"/>
				<path fill="#FFF24D" d="M60.64,34.363c-1.098,0.965-2.388,1.958-3.926,2.939c-7.594,4.832-13.5-5.383-20.488-3.965
					c-5.25,1.086-7.617,7.562-11.763,6.808c-2.931-0.533-4.502-3.024-5.421-6.56c-2.525-2.554-3.328-6.681-3.328-6.681
					s-1.26,2.292-2.084,5.713c1.428,5.113,3.625,9.785,5.783,11.812c2.969,2.795,8.264,2.674,11.333-0.756
					c3.583-4.086,5.985-5.965,10.875-4.164c4.889,1.802,8.892,4.517,16.01,0.074c0.164-0.104,0.315-0.199,0.478-0.3
					c0.931-1.003,1.691-2.182,2.188-3.569C60.445,35.299,60.56,34.846,60.64,34.363z"/>
				<path fill="#F7466C" d="M41.622,39.51c-4.89-1.801-7.292,0.078-10.875,4.164c-3.069,3.431-8.364,3.551-11.333,0.756
					c-2.158-2.026-4.355-6.698-5.783-11.812c-0.977,4.052-1.343,9.692,1.725,15.015c5.658,9.815,15.746,4.733,18.099,1.403
					c2.353-3.332,4.462-6.75,10.141-5.608c4.519,0.908,10.882-0.223,14.517-4.144c-0.162,0.101-0.313,0.196-0.479,0.3
					C50.513,44.026,46.51,41.312,41.622,39.51z"/>
			</g>
			
				<path id="Hair_x5F_Outline_1_" fill="none" stroke="#661B4D" stroke-width="3" stroke-linecap="round" stroke-miterlimit="10" d="
				M60.295,35.717c2.425-6.791-4.153-23.021-18.651-17.465c-11.578,4.338-6.104,13.069-14.896,16.631
				c-8.793,3.561-11.032-7.977-11.032-7.977S9.7,37.82,15.357,47.635c5.656,9.814,15.746,4.732,18.098,1.402
				c2.354-3.332,4.462-6.75,10.141-5.609C49.275,44.569,57.87,42.508,60.295,35.717z"/>
			
				<path id="Skirt_1_" fill="#FF94F0" stroke="#B2348E" stroke-width="3" stroke-linecap="round" stroke-linejoin="round" stroke-miterlimit="10" d="
				M100.517,78.235c-2.127,1.008-17.389,11.674-34.434,19.747c-17.945,8.502-37.706,14.428-39.764,15.402
				c-4.402,2.084-6.279,7.344-4.194,11.744c2.087,4.396,7.345,6.273,11.747,4.188c3.025-1.438,4.857-4.365,5.033-7.482
				c2.852,4.967,9.085,6.98,14.35,4.486c5.061-2.396,7.454-8.127,5.829-13.314c2.95,4.682,8.991,6.523,14.119,4.104
				c5.124-2.43,7.519-8.273,5.767-13.521c2.989,4.549,8.939,6.324,14,3.936c5.535-2.623,7.896-9.236,5.273-14.771
				c-0.043-0.096-0.098-0.182-0.146-0.271c2.563,2.525,6.524,3.334,9.971,1.697c4.402-2.084,6.283-7.34,4.197-11.748
				C110.179,78.027,104.921,76.149,100.517,78.235z"/>
		</g>
	</g>
	<g>
		<path opacity="0.2" enable-background="new    " d="M224.726,131.854c-13.045-4.918-22.375-7.363-28.957-18.643
			c-1.688-0.391-3.805-0.938-5.627-1.617c-2.082-0.785-4.641-2.008-5.934-4.504c-1.572-3.041-0.383-6.285,0.438-8.018
			c-2.791-1.137-5.104-2.291-6.896-3.443c-1.688-1.084-2.963-2.191-3.899-3.383c-1.627-2.068-2.246-4.488-1.742-6.812
			c1.022-4.733,6.07-7.473,9.779-9.117c2.133-0.948,4.354-1.737,6.188-2.332c2.188-6.641,5.664-11.848,7.562-14.209
			c2.504-5.938,7.959-13.453,10.649-16.99c0.674-5.098,2.254-10.791,4.338-15.544c3.063-7.001,6.729-10.999,10.875-11.883
			c2.209-0.474,4.508-0.269,6.826,0.606c3.896,1.468,7.916,4.854,12.662,10.662c0.979,1.2,2.305,3.006,3.944,5.381
			c3.297,0.578,6.646,1.429,9.979,2.539c0.701,0.232,1.406,0.482,2.104,0.744c2.846,1.072,5.58,2.373,8.154,3.875
			c7.934-2.77,18.029-4.223,24.062-1.947c1.729,0.65,3.138,1.599,4.188,2.812c5.021,5.812,2.414,14.596-0.414,21.598
			c-0.904,2.256-2.631,5.711-4.188,8.72c1.414,5.854,1.594,12.138,0.455,17.562c-1.104,5.25-3.373,10.248-5.256,13.42
			c0.066,0.025-0.031-0.076,0,0c5.729,13.646-5.688,24.312-5.688,24.312c0.961,2.268-0.91,6.881-2.601,8.535
			c-2.207,2.168-4.627,2.467-8.705,1.896c-0.905-0.127-1.887-0.324-2.922-0.598c-1.244,2.371-3.25,3.961-5.772,4.541
			c-1.812,0.416-3.771,0.229-5.826-0.541c-1.942-0.729-3.815-1.951-5.354-3.146c-5.73,0.135-11.354-0.705-16.738-2.494
			C228.353,133.176,226.5,132.523,224.726,131.854z"/>
		<g>
			<path fill="#FFFFFF" d="M220.25,127.043c-13.045-4.92-22.375-7.363-28.957-18.643c-1.694-0.383-3.806-0.932-5.627-1.617
				c-2.082-0.785-4.644-2.008-5.935-4.504c-1.571-3.041-0.385-6.285,0.438-8.012c-2.791-1.137-5.104-2.291-6.896-3.446
				c-1.688-1.084-2.963-2.19-3.896-3.382c-1.627-2.069-2.247-4.488-1.742-6.812c1.023-4.731,6.07-7.471,9.779-9.117
				c2.133-0.947,4.354-1.736,6.188-2.332c2.188-6.639,5.664-11.848,7.562-14.209c2.502-5.938,7.957-13.452,10.646-16.989
				c0.674-5.099,2.254-10.791,4.338-15.544c3.064-7.001,6.729-10.999,10.875-11.883c2.209-0.474,4.516-0.27,6.826,0.605
				c3.896,1.469,7.916,4.855,12.66,10.662c0.979,1.201,2.307,3.006,3.947,5.382c3.297,0.578,6.645,1.429,9.979,2.538
				c0.701,0.233,1.406,0.483,2.104,0.744c2.853,1.073,5.582,2.374,8.16,3.875c7.928-2.77,18.022-4.223,24.062-1.945
				c1.729,0.649,3.135,1.598,4.188,2.813c5.018,5.812,2.411,14.596-0.412,21.598c-0.91,2.255-2.638,5.711-4.188,8.72
				c1.408,5.854,1.59,12.138,0.449,17.563c-1.098,5.251-3.367,10.249-5.256,13.419c0.074,0.027-0.027-0.074,0,0
				c5.729,13.643-5.688,24.314-5.688,24.314c0.963,2.268-0.904,6.883-2.604,8.537c-2.207,2.168-4.627,2.465-8.697,1.896
				c-0.908-0.127-1.895-0.326-2.93-0.598c-1.236,2.369-3.25,3.963-5.771,4.541c-1.812,0.414-3.771,0.229-5.82-0.541
				c-1.947-0.732-3.82-1.951-5.354-3.146c-5.738,0.135-11.356-0.705-16.744-2.494C223.878,128.365,222.023,127.711,220.25,127.043z"
				/>
			<g>
				<path fill="#F5A220" d="M264.837,111.457l-2.936,4.334l-2.869,2.988l-4.287,3.207l4.016,0.857l5.771,1.871
					c0,0,2.43-0.043,3.68-1.896S264.837,111.457,264.837,111.457"/>
			</g>
			<g>
				<path fill="#F5A220" d="M255.075,122.314c0,0,0.696,5.977-2.25,6.652c-2.947,0.678-8.216-4.521-8.216-4.521"/>
			</g>
			<g>
				<path fill="#221E20" d="M257.812,123.471c-1.521-0.574-2.768-1.135-3.312-1.396l0.683-1.447
					c4.104,1.926,10.521,3.98,11.938,2.492c1.894-1.986-0.886-8.58-3.078-12.271l1.375-0.816c0.646,1.084,6.197,10.688,2.856,14.189
					C266.382,126.203,261.32,124.797,257.812,123.471z"/>
			</g>
			<g>
				<path fill="#221E20" d="M250.308,128.793c-2.854-1.08-5.867-3.975-6.299-4.395l1.121-1.145c1.918,1.893,5.646,4.729,7.477,4.311
					c1.836-0.428,1.795-4.416,1.645-5.781l1.59-0.188c0.08,0.688,0.684,6.711-2.859,7.521
					C252.159,129.303,251.238,129.145,250.308,128.793z"/>
			</g>
			<g>
				<path fill="#F5A220" d="M278.284,63.489c1.422-2.694,3.959-7.604,5.039-10.278c2.772-6.869,3.862-12.371,1.485-15.125
					c-2.604-3.016-15.043-1.895-24.147,2.017l-0.121-0.071c-3.354-2.242-7.166-4.145-11.461-5.574
					c-4.396-1.462-8.306-2.268-11.572-2.691l-0.073-0.014c-1.718-2.539-3.781-5.51-5.164-7.203
					c-4.974-6.08-9.531-9.897-13.304-9.095c-4.146,0.886-9.478,13.116-10.45,23.604l-0.015,0.123c0,0-8.66,10.969-11.192,17.691
					c0,0-11.854,15.287-6.875,32.85c5.5,19.391,20.332,27.039,38.004,32.916c17.67,5.883,37.521-1.867,42.172-12.127
					c4.654-10.254,1.949-15.498,1.949-15.498s5.151-7.019,6.702-14.445c1-4.785,0.855-11.045-1.028-17.045L278.284,63.489z"/>
			</g>
			<g>
				<g>
					<path fill="#FFFFFF" d="M268.482,85.772c-2.953,7.831-8.588,12.96-12.584,11.452c-3.994-1.506-4.84-9.077-1.885-16.909
						c2.942-7.83,8.586-12.957,12.571-11.45C270.589,70.372,271.435,77.943,268.482,85.772"/>
				</g>
			</g>
			<g>
				<g>
					<path fill="#FFFFFF" d="M236.923,76.426c-3.5,9.277-10.021,15.41-14.57,13.692c-4.545-1.715-5.396-10.626-1.896-19.903
						c3.5-9.278,10.021-15.41,14.567-13.694C239.575,58.237,240.423,67.148,236.923,76.426"/>
				</g>
			</g>
			<g>
				<path fill="#FFFFFF" d="M220.642,37.611c4.484-1.111,9.154-1.705,13.812-1.634l0.15-0.003c0,0-2.66-4.653-4.619-7.237
					c-1.688-2.226-3.471-4.735-5.271-4.424c-2.771,0.483-5.395,8.868-4.127,13.134L220.642,37.611z"/>
			</g>
			<g>
				<path fill="#FFFFFF" d="M274.902,60.281c-2.062-3.906-4.678-7.521-7.646-10.743l0.09-0.108
					c2.939-2.988,11.092-4.635,12.746-2.564c1.074,1.344-0.189,3.959-1.268,6.362c-1.111,2.491-3.334,6.188-3.805,6.96
					L274.902,60.281z"/>
			</g>
			<g>
				<path fill="#221E20" d="M257.12,82.651c-1.584,4.2-1.654,8.063-0.156,8.628c1.496,0.564,3.994-2.384,5.578-6.584
					c1.584-4.199,1.653-8.062,0.158-8.626C261.202,75.504,258.704,78.452,257.12,82.651"/>
			</g>
			<g>
				<path fill="#221E20" d="M224.771,70.868c-1.584,4.201-1.648,8.064-0.158,8.629c1.496,0.565,3.994-2.384,5.578-6.585
					c1.584-4.197,1.65-8.061,0.158-8.625C228.853,63.723,226.355,66.67,224.771,70.868"/>
			</g>
			<g>
				<path fill="#FFFFFF" d="M227.56,121.43c0,0-14.371-5.721-19.299-11.785c-4.926-6.064-9.801-12.264-5.172-23.74
					c4.631-11.477,18.244-8.557,26.537-5.018c6.084,2.594,12.357,8.268,12.357,8.268s11.373-0.67,19.742,2.637
					c8.371,3.307,12.896,9.223,9.396,18.119c-3.506,8.896-16.824,12.74-22.371,13.502S237.837,124.857,227.56,121.43"/>
			</g>
			<g>
				<path fill="#F5A220" d="M190.579,73.351l-5.539,1.747c0,0-10.531,2.885-10.729,6.428c-0.188,3.544,6.299,5.361,6.299,5.361
					l8.875,3.39l0.848,0.265c0,0-5.434,6.629-4.479,8.408s7.396,2.791,7.396,2.791l4.146,0.918l-0.242-9.361L190.579,73.351z"/>
			</g>
			<g>
				<path fill="#221E20" d="M246.482,84.689c-4.344-1.639-8.479-3.364-9.688-0.18c-1.194,3.184,0.654,8.348,4.418,9.766
					c4.347,1.639,9.097-2.191,9.529-4.671C251.185,87.125,248.943,85.617,246.482,84.689"/>
			</g>
			<g>
				<path fill="#221E20" d="M237.118,33.067l0.205-1.587c3.831,0.497,7.774,1.415,11.723,2.727
					c4.199,1.396,8.117,3.303,11.654,5.668l-0.892,1.329c-3.418-2.284-7.207-4.126-11.271-5.479
					C244.691,34.444,240.849,33.551,237.118,33.067z"/>
			</g>
			<g>
				<path fill="#221E20" d="M219.7,38.647c-1.229-3.222-0.111-8.804,1.7-11.996c0.886-1.556,1.854-2.435,2.896-2.615
					c2.188-0.383,4.019,2.041,5.783,4.384l0.26,0.344c1.97,2.595,4.565,7.133,4.677,7.324l-1.39,0.793
					c-0.024-0.045-2.658-4.639-4.562-7.152l-0.269-0.346c-1.342-1.775-3.01-3.983-4.229-3.771c-0.512,0.09-1.178,0.773-1.771,1.831
					c-1.604,2.812-2.621,7.957-1.604,10.635L219.7,38.647z"/>
			</g>
			<g>
				<path fill="#221E20" d="M219.298,39.221l-0.418-1.543c5.914-1.605,11.789-2.25,17.467-1.909l-0.098,1.597
					C230.749,37.037,225.044,37.662,219.298,39.221z"/>
			</g>
			<g>
				<path fill="#221E20" d="M277.693,66.271l-1.407-0.76c0.047-0.082,4.504-8.362,6.01-12.09c2.994-7.42,3.524-12.099,1.623-14.305
					c-2.396-2.77-16.194-1.523-25.428,3.268l-0.736-1.42c8.815-4.576,23.963-6.843,27.373-2.893
					c2.365,2.74,1.938,7.809-1.349,15.948C282.238,57.832,277.878,65.93,277.693,66.271z"/>
			</g>
			<g>
				<path fill="#221E20" d="M275.333,61.258l-1.365-0.834c0.027-0.043,2.632-4.302,3.845-7.014l0.162-0.363
					c0.856-1.906,1.926-4.277,1.211-5.172c-0.302-0.373-1.147-0.606-2.289-0.625c-3.039-0.045-7.742,1.438-9.479,3.487l-1.225-1.036
					c2.113-2.486,7.254-4.102,10.729-4.051c1.703,0.025,2.893,0.438,3.521,1.225c1.324,1.656,0.145,4.285-1,6.827l-0.162,0.36
					C278.015,56.87,275.441,61.082,275.333,61.258z"/>
			</g>
			<g>
				<path fill="#221E20" d="M274.757,62.857c-2.227-4.696-5.326-9.125-9.221-13.165l1.15-1.11c4.016,4.164,7.215,8.737,9.516,13.588
					L274.757,62.857z"/>
			</g>
			<g>
				<path fill="#221E20" d="M235.687,109.383c-0.416-0.156-0.838-0.332-1.266-0.525c-10.551-4.803-9.795-16.49-9.783-16.609
					l1.596,0.121c-0.023,0.436-0.668,10.699,8.854,15.031c9.543,4.348,15.935-1.936,15.994-1.998l1.137,1.127
					C252.146,106.598,245.54,113.102,235.687,109.383z"/>
			</g>
			<g>
				<path fill="#221E20" d="M222.534,121.15c-9.464-3.568-20.722-9.154-27.845-18.477c-2.399-0.463-8.789-1.854-9.729-3.67
					c-0.834-1.611,1.785-5.604,3.853-8.354c-4.99-1.577-16.326-5.628-15.457-9.608c0.858-3.974,11.832-7.315,15.041-8.216
					c1.896-7.672,6.28-13.989,7.892-15.743c2.397-6.361,9.979-16.193,11.157-17.709c0.974-10.057,6.242-23.168,11.072-24.199
					c3.729-0.797,8.211,2.183,14.088,9.373c2.756,3.373,8.062,11.553,8.276,11.899l-1.344,0.87
					c-0.058-0.084-5.478-8.454-8.177-11.757c-5.383-6.581-9.479-9.468-12.521-8.819c-3.428,0.73-8.807,11.965-9.816,22.896
					L208.984,40l-0.146,0.182c-0.086,0.107-8.606,10.949-11.069,17.478l-0.054,0.134l-0.092,0.107
					c-0.062,0.064-5.688,6.686-7.789,15.754l-0.104,0.467l-0.463,0.125c-5.268,1.426-13.812,4.623-14.354,7.137
					c-0.43,1.979,7.691,5.733,15.467,8.08l1.119,0.336l-0.725,0.924c-2.562,3.271-4.609,6.809-4.395,7.562
					c0.367,0.705,4.529,2.061,8.9,2.875l0.303,0.059l0.188,0.25c8.271,11.01,22.643,16.744,32.729,20.1
					c17.396,5.783,36.703-1.225,41.088-10.879c4.404-9.705,1.988-14.754,1.972-14.805l-0.227-0.438l0.287-0.396
					c0.051-0.068,5.062-6.973,6.562-14.138c1.063-5.125,0.698-11.19-1.019-16.642l1.524-0.48c1.793,5.704,2.179,12.064,1.054,17.448
					c-1.388,6.626-5.479,12.813-6.578,14.384c0.567,1.547,1.901,6.838-2.131,15.729c-4.75,10.467-24.595,17.871-43.052,11.729
					C226.284,122.51,224.445,121.871,222.534,121.15z"/>
			</g>
			<g>
				<g>
					<path fill="#221E20" d="M265.175,102.592l-0.553-1.502c0.342-0.125,8.48-3.057,15.219,0.715l-0.779,1.396
						C272.978,99.801,265.251,102.564,265.175,102.592z"/>
				</g>
				<g>
					<path fill="#221E20" d="M274.859,115.357c-4.672-5.225-11.123-5.4-11.188-5.4l0.027-1.6c0.29,0.002,7.2,0.172,12.354,5.932
						L274.859,115.357z"/>
				</g>
				<g>
					<path fill="#221E20" d="M213.952,85.146c-0.062-0.103-6.146-10.197-17.74-10.097l-0.017-1.601
						c12.537-0.108,18.873,10.438,19.136,10.886L213.952,85.146z"/>
				</g>
				<g>
					<path fill="#221E20" d="M191.88,87.895l-0.266-1.578c10.293-1.742,18.588,4.438,18.936,4.703l-0.967,1.275
						C209.503,92.236,201.478,86.271,191.88,87.895z"/>
				</g>
			</g>
		</g>
	</g>
	<g>
		<g enable-background="new    ">
			
				<radialGradient id="SVGID_1_" cx="-726.0293" cy="1606.75" r="62.4685" gradientTransform="matrix(0.9616 0 0 0.9616 851.889 -1466.1511)" gradientUnits="userSpaceOnUse">
				<stop  offset="0.5" style="stop-color:#000000"/>
				<stop  offset="1" style="stop-color:#000000;stop-opacity:0"/>
			</radialGradient>
			<path fill="url(#SVGID_1_)" d="M153.741,138.969c-33.125,0-60.071-26.945-60.071-60.07c0-33.123,26.947-60.07,60.071-60.07
				c33.121,0,60.067,26.947,60.067,60.07C213.808,112.023,186.862,138.969,153.741,138.969z"/>
		</g>
		<path fill="#FFFFFF" d="M145.539,134.568c-33.123,0-60.07-26.947-60.07-60.071c0-33.122,26.947-60.069,60.07-60.069
			s60.07,26.947,60.07,60.069C205.609,107.621,178.662,134.568,145.539,134.568z M145.539,29.813
			c-24.641,0-44.686,20.045-44.686,44.684c0,24.64,20.045,44.688,44.686,44.688c24.639,0,44.686-20.049,44.686-44.688
			C190.224,49.858,170.179,29.813,145.539,29.813z"/>
		<circle fill="#28A5DA" cx="145.539" cy="74.499" r="52.378"/>
		
			<linearGradient id="SVGID_2_" gradientUnits="userSpaceOnUse" x1="-782.46" y1="1574.2148" x2="-782.46" y2="1510.0762" gradientTransform="matrix(1 0 0 1 928 -1487.9551)">
			<stop  offset="0" style="stop-color:#FFFFFF;stop-opacity:0"/>
			<stop  offset="1" style="stop-color:#FFFFFF;stop-opacity:0.65"/>
		</linearGradient>
		<path fill="url(#SVGID_2_)" d="M197.917,74.497c0,3.544-23.449,11.763-52.377,11.763s-52.379-9.481-52.379-11.763
			c0-28.927,23.45-52.376,52.379-52.376C174.466,22.121,197.917,45.57,197.917,74.497z"/>
		<g>
			<path opacity="0.3" fill="#333333" enable-background="new    " d="M134.831,108.146c-2.771,0-5.341-1.223-7.052-3.354
				c-1.462-1.822-2.235-4.197-2.233-6.867l0.044-41.526c0.01-5.913,3.915-10.203,9.287-10.203c1.895,0,3.791,0.543,5.639,1.614
				l35.937,20.797c3.452,1.998,5.433,5.138,5.428,8.613c-0.003,3.477-1.989,6.613-5.448,8.604l-35.983,20.723
				C138.607,107.609,136.718,108.146,134.831,108.146z"/>
			<path fill="#FFFFFF" d="M133.831,106.146c-2.771,0-5.341-1.223-7.052-3.354c-1.462-1.822-2.235-4.197-2.233-6.867l0.044-41.526
				c0.01-5.913,3.915-10.203,9.287-10.203c1.895,0,3.791,0.543,5.639,1.614l35.937,20.797c3.452,1.998,5.433,5.138,5.428,8.613
				c-0.003,3.477-1.989,6.613-5.448,8.604l-35.983,20.723C137.607,105.609,135.718,106.146,133.831,106.146z"/>
			<path fill="#F9A737" d="M130.589,54.406c0.006-3.753,2.668-5.287,5.918-3.404l35.938,20.799c3.248,1.879,3.246,4.951-0.01,6.826
				l-35.981,20.727c-3.252,1.875-5.91,0.334-5.908-3.424L130.589,54.406z"/>
		</g>
	</g>
</g>
</svg>
