<?xml version="1.0" encoding="utf-8"?>
<!-- Generator: Adobe Illustrator 15.0.0, SVG Export Plug-In . SVG Version: 6.00 Build 0)  -->
<!DOCTYPE svg PUBLIC "-//W3C//DTD SVG 1.1//EN" "http://www.w3.org/Graphics/SVG/1.1/DTD/svg11.dtd">
<svg version="1.1" id="Layer_2" xmlns="http://www.w3.org/2000/svg" xmlns:xlink="http://www.w3.org/1999/xlink" x="0px" y="0px"
	 width="220px" height="77px" viewBox="0 0 220 77" enable-background="new 0 0 220 77" xml:space="preserve">
<g>
	<g>
		<path fill="#28A5DA" d="M213.801,31.074c0,0,2.098,6.137,0.791,13.137c-1.305,6.998-3.211,0.205-3.211,0.205l0.896-9.338
			L213.801,31.074z"/>
	</g>
	<path fill="#28A5DA" d="M186.713,9.002c-6.521,0-12.521,2.211-17.307,5.916c-1.477-1.471-3.911-3.471-6.366-3.588
		c-0.858-0.041-2.312-0.062-4.317-0.062c-3.379,0-7.25,0.059-7.289,0.061l-0.274,0.004l-0.271,0.08
		c-0.67,0.201-3.748,1.185-5.644,2.785h-7.332c-1.892,0-4.53,1.664-8.743,4.734c-0.16,0.116-0.324,0.235-0.482,0.352
		c-0.225-0.242-0.467-0.52-0.672-0.756c-1.354-1.555-3.045-3.488-5.104-4.002l-0.24-0.062H96.598
		c-1.433-1.321-4.677-4.006-7.413-4.006c-0.294,0-0.681-0.018-1.144-0.041c-0.767-0.035-1.72-0.082-2.81-0.082
		c-6.618,0-11.601,1.851-14.811,5.5c-0.229,0.181-0.315,0.181-0.432,0.181c-0.309,0-0.828-0.111-1.433-0.24
		c-1.347-0.289-3.381-0.728-6.529-0.728l-10.354,0.063l-0.457,0.264c-1.247,0.717-7.484,4.369-9.493,6.943
		c-0.124,0.029-0.579,0.049-0.991-0.01c-0.631-4.132-3.474-10.013-11.156-10.013c-3.352,0-5.732,1.261-6.926,2.08
		c-0.377-0.047-0.842-0.084-1.378-0.084c-2.995,0-10.349,1.271-13.938,13.039l-0.088,0.287v9.641
		c-0.808,1.082-2.117,3.369-2.201,6.932c-0.072,3.057-0.041,5.523-0.019,7.328c0.009,0.705,0.019,1.312,0.019,1.832
		c0,5.791,6.33,11.914,12.313,11.914h0.255l0.247-0.062c0.189-0.054,4.688-1.231,7.705-3.56c0.675-0.521,1.451-0.783,2.308-0.783
		c0.807,0,1.405,0.231,1.405,0.231l1.003,0.435l0.962-0.641c2.211,1.481,7.146,4.377,11.949,4.377c4.326,0,7.509-1.736,9.408-2.775
		c0.444-0.239,0.988-0.536,1.234-0.629c2.132-0.004,8.312-0.11,11.091-1.19c0.181,0.101,0.442,0.269,0.65,0.396
		c1.406,0.895,3.755,2.383,8.273,2.398c0.105,0.006,0.279,0.016,0.516,0.016c1.894,0,8.095-0.572,12.049-7.576
		c1.964,0.764,4.072,0.932,4.349,0.949l3.691,0.004c1.073,1.779,3.522,4.854,7.629,4.854h14.63l0.393-0.177
		c1.021-0.456,1.767-0.895,2.306-1.295c1.426,1.07,3.711,2.724,6.235,2.724h8.64l0.308-0.104c0.637-0.213,2.03-0.699,2.977-1.211
		c0.277-0.019,0.812-0.037,1.789-0.037c1.406,0,3.082,0.041,4.078,0.07c1.182,1.284,3.668,3.582,6.346,3.582
		c3.132,0,6.445-0.142,9.477-1.175c0.613-0.209,1.443-0.271,2.325-0.336c2.382-0.177,5.565-0.42,8.28-3.709
		c4.709,3.494,10.537,5.563,16.854,5.563c15.631,0,28.303-12.672,28.303-28.306C215.018,21.671,202.344,9.002,186.713,9.002z
		 M161.283,59.758c-1.094,0.082-2.225,0.164-3.323,0.539c-2.817,0.961-6.308,0.961-8.185,0.961c-1.025,0-2.896-1.631-3.844-2.807
		l-0.576-0.715l-0.914-0.033c-0.115-0.002-2.867-0.1-5.088-0.1c-1.875,0-2.479,0.064-2.828,0.137l-0.438,0.107l-0.336,0.225
		c-0.248,0.168-1.194,0.559-2.127,0.883h-7.979c-1.281,0-2.976-1.271-3.982-2.033c-0.98-0.738-1.635-1.229-2.53-1.229
		c-0.823,0-1.56,0.463-1.921,1.184c-0.238,0.203-0.811,0.543-1.376,0.826h-13.75c-2.979,0-4.566-3.602-4.578-3.627l-0.516-1.229
		h-6.01c-0.717-0.062-2.608-0.332-3.766-0.98c-0.498-0.277-1.032-0.338-1.392-0.338c-1.075,0-1.95,0.494-2.34,1.322
		c-2.879,6.143-7.707,6.621-9.117,6.621c-0.139,0-0.229-0.01-0.241-0.01l-0.193-0.01c-3.408,0-4.961-0.98-6.209-1.771
		c-0.836-0.531-1.7-1.08-2.83-1.08c-0.306,0-0.609,0.041-0.91,0.125l-0.223,0.062L63.555,56.9c-1.037,0.564-5.93,0.953-9.85,0.953
		c-0.976,0-1.834,0.469-3.023,1.113c-1.766,0.971-4.184,2.287-7.488,2.287c-4.939,0-10.634-4.346-10.688-4.389l-1.139-0.883
		l-1.617,1.08c-0.504-0.115-1.146-0.215-1.875-0.215c-1.737,0-3.38,0.561-4.752,1.615c-2.015,1.551-5.115,2.521-6.013,2.781
		c-3.752-0.182-8.061-4.359-8.061-7.903c0-0.53-0.007-1.159-0.018-1.884c-0.021-1.771-0.054-4.197,0.018-7.182
		c0.078-3.248,1.557-4.818,1.597-4.861l0.606-0.59V28.219c2.723-8.625,7.436-9.922,10.021-9.922c0.819,0,1.353,0.131,1.353,0.131
		l1.091,0.285l0.82-0.75c0.073-0.067,1.856-1.662,5.04-1.662c6.847,0,7.271,6.88,7.296,7.656l0.032,1.367l1.287,0.467
		c0.162,0.06,1.617,0.57,3.138,0.57c2.009,0,3.055-0.879,3.552-1.58c1.021-1.377,5.189-4.092,7.879-5.67l9.282-0.057
		c2.711,0,4.424,0.366,5.676,0.637c0.826,0.176,1.54,0.33,2.273,0.33c1.174,0,2.176-0.396,3.149-1.24l0.207-0.209
		c2.445-2.846,6.332-4.23,11.885-4.23c0.994,0,1.896,0.043,2.619,0.076c0.54,0.027,0.992,0.047,1.333,0.047
		c1.055,0,3.537,1.769,5.192,3.418l0.586,0.589h27.152c0.848,0.356,2.107,1.803,2.883,2.688c1.287,1.478,2.219,2.541,3.604,2.541
		c0.396,0,0.787-0.1,1.131-0.289c0.354-0.19,0.83-0.539,1.797-1.242c1.304-0.948,5.262-3.834,6.388-3.967h9.077l0.6-0.715
		c0.648-0.771,2.789-1.705,4.193-2.16c0.959-0.014,4.124-0.055,6.938-0.055c1.941,0,3.332,0.02,4.127,0.057
		c0.633,0.029,1.506,0.545,2.367,1.226c0.409,0.319,0.814,0.68,1.19,1.041c-4.946,5.098-7.998,12.045-7.998,19.709
		c0,7.877,3.221,14.997,8.412,20.131C165.186,59.465,163.441,59.6,161.283,59.758z"/>
	<polygon fill="#FFFFFF" points="165.218,16.555 152.799,33.756 156.07,57.803 166.604,57.854 167.043,57.35 169.365,54.023 
		164.48,38.18 170.389,20.924 165.331,16.645 	"/>
	<path fill="#FFFFFF" d="M161.283,59.943c-1.094,0.082-2.225,0.164-3.323,0.539c-2.817,0.961-6.308,0.961-8.185,0.961
		c-1.025,0-2.896-1.633-3.844-2.811l-0.576-0.715l-0.914-0.029c-0.115-0.006-2.867-0.104-5.088-0.104
		c-1.875,0-2.479,0.066-2.828,0.137l-0.438,0.107l-0.336,0.225c-0.248,0.168-1.194,0.561-2.127,0.887h-7.979
		c-1.281,0-2.976-1.273-3.982-2.033c-0.98-0.74-1.635-1.229-2.53-1.229c-0.823,0-1.56,0.463-1.921,1.185
		c-0.238,0.203-0.811,0.543-1.376,0.826h-13.75c-2.979,0-4.566-3.603-4.578-3.63l-0.517-1.229h-6.01
		c-0.717-0.061-2.608-0.332-3.766-0.979c-0.498-0.276-1.032-0.338-1.392-0.338c-1.075,0-1.95,0.494-2.34,1.322
		c-2.879,6.144-7.707,6.62-9.117,6.62c-0.139,0-0.229-0.006-0.241-0.006l-0.193-0.01c-3.408,0-4.961-0.984-6.209-1.777
		c-0.836-0.528-1.7-1.077-2.83-1.077c-0.306,0-0.609,0.041-0.91,0.125l-0.223,0.063l-0.205,0.107
		c-1.037,0.568-5.93,0.955-9.85,0.955c-0.976,0-1.834,0.469-3.023,1.115c-1.766,0.969-4.184,2.287-7.488,2.287
		c-4.939,0-10.634-4.347-10.688-4.391l-1.139-0.881l-1.617,1.078c-0.504-0.115-1.146-0.213-1.875-0.213
		c-1.737,0-3.38,0.56-4.752,1.615c-2.015,1.551-5.115,2.521-6.013,2.781c-3.752-0.184-8.061-4.359-8.061-7.902
		c0-0.531-0.007-1.16-0.018-1.883c-0.021-1.773-0.054-4.201,0.018-7.186c0.078-3.248,1.557-4.816,1.597-4.857l0.606-0.595V28.404
		c2.723-8.625,7.436-9.922,10.021-9.922c0.819,0,1.353,0.131,1.353,0.131l1.091,0.285l0.82-0.75c0.073-0.068,1.856-1.662,5.04-1.662
		c6.847,0,7.271,6.881,7.296,7.656l0.032,1.366l1.287,0.468c0.162,0.059,1.617,0.567,3.138,0.567c2.009,0,3.055-0.877,3.552-1.578
		c1.021-1.377,5.189-4.092,7.879-5.67l9.282-0.057c2.711,0,4.424,0.367,5.676,0.635c0.826,0.178,1.54,0.332,2.273,0.332
		c1.174,0,2.176-0.395,3.149-1.24l0.207-0.209c2.445-2.846,6.332-4.229,11.885-4.229c0.994,0,1.896,0.043,2.619,0.076
		c0.54,0.024,0.992,0.047,1.333,0.047c1.055,0,3.537,1.768,5.192,3.418l0.586,0.588h27.151c0.849,0.357,2.107,1.803,2.884,2.688
		c1.287,1.479,2.219,2.541,3.604,2.541c0.396,0,0.787-0.1,1.131-0.288c0.352-0.191,0.83-0.539,1.795-1.244
		c1.303-0.947,5.261-3.832,6.387-3.965h9.077l0.6-0.716c0.647-0.771,2.789-1.705,4.193-2.159c0.959-0.015,4.124-0.056,6.938-0.056
		c1.939,0,3.328,0.021,4.127,0.058c0.933,0.045,2.387,1.139,3.56,2.266c-4.946,5.098-7.998,12.045-7.998,19.709
		c0,7.877,3.221,14.999,8.412,20.129C165.186,59.65,163.441,59.785,161.283,59.943z"/>
	<polygon fill="#FFFFFF" points="182.971,15.199 198.089,21.207 207.902,26.947 207.201,44.236 198.891,55.154 176.562,57.453 
		166.049,49.342 165.549,29.617 172.395,17.902 	"/>
	<path fill="#F9A737" stroke="#F9A737" stroke-miterlimit="10" d="M184.34,40.279c-0.135-4.922-0.594-10.611-1.021-12.064
		c0-0.002-0.002-0.002-0.002-0.002c0-0.012,0.004-0.021,0.002-0.03c-0.301-1.117-0.426-1.234-1.43-1.234h-3.799
		c-0.789,0-1.471,0.154-1.43,1.234c0.038,0.985,0.641,1.233,1.43,1.233h3.217c0.295,1.787,0.705,5.935,0.799,9.965
		c0.1,4.121-1.068,9.16-4.773,9.16c-2.336,0-2.333-2.25-2.42-2.703c-0.164-0.852-0.516-1.438-1.312-1.389
		c-0.802,0.049-1.289,0.637-1.188,1.639s0.147,4.559,4.876,4.559C182.369,50.645,184.46,44.592,184.34,40.279z"/>
	<path fill="#F9A737" stroke="#F9A737" stroke-miterlimit="10" d="M203.479,31.242c0,0-0.332-2.168-3.787-2.168
		c-2.439,0-3.938,1.014-4.637,1.545l-0.009-0.354c-0.044-0.699-0.646-1.23-1.345-1.188l-4.6,0.285
		c-0.695,0.045-1.229,0.646-1.188,1.346c0.044,0.699,0.646,1.23,1.344,1.188l3.193-0.199l0.253,11.293l-1.414,0.043
		c-0.689,0.023-1.23,0.6-1.211,1.291c0.021,0.689,0.598,1.234,1.289,1.211l6.205-0.193c0.688-0.021,1.23-0.6,1.212-1.291
		c-0.021-0.689-0.603-1.23-1.29-1.211L195.63,42.9l-0.39-8.395c0.678-2.084,2.867-3.1,4.248-3.137
		c1.893-0.049,1.432,2.619,3.205,2.111C204.1,33.08,203.479,31.242,203.479,31.242z"/>
	<path fill="#F9A737" stroke="#F9A737" stroke-miterlimit="10" d="M31.379,25.143l-0.535,11.479c0,0-0.117,1.203-1.469,1.203
		c-1.353,0-1.953-0.752-2.002-1.854c-0.052-1.103,0.252-4.511-2.904-6.107c-2.87-1.451-3.565,0.947-3.705,1.701
		c-0.107,0.592-0.212,4.682-0.12,5.188c0.2,1.101,1.068,1.83,2.837,2.313c0.871,0.234,9.449,1.509,9.449,7.166
		c0,6.408-4.956,8.062-8.061,8.062c-2.104,0-5.392-1.385-5.941-1.888c0,0,0.035,3.371,0.035,3.773c0,0.397-0.502,1.016-1.402,1.016
		c-0.901,0-1.803-0.5-1.803-1.2c0-0.701,0-11.363,0-11.363s0.005-1.985,1.852-1.854c1.619,0.117,1.503,3.104,1.503,4.308
		s1.603,3.81,5.231,3.81c3.628,0,5.182-1.901,5.182-4.261c0-2.353-1.302-2.698-2.254-2.948c-0.95-0.252-3.583-0.994-5.855-1.556
		c-1.688-0.414-3.667-1.147-3.915-3.541c-0.174-1.666-0.134-6.043-0.04-7.123c0.089-1.018,0.25-5.606,4.905-5.606
		c4.655,0,5.508,2.604,5.508,2.604v-3.319c0,0,0.101-1.187,1.702-1.187S31.379,25.143,31.379,25.143z"/>
	<path fill="#F9A737" stroke="#F9A737" stroke-miterlimit="10" d="M50.603,37.828c0-1.303,0-6.943,0-6.943s-0.2-1.469-1.603-1.469
		s-1.603,1.604-1.603,1.604v3.137c0,0-1.135-2.537-5.541-2.537c-4.405,0-6.607,3.205-6.607,6.608c0,3.402,0,8.543,0,9.847
		c0,1.937,1.269,7.125,7.877,7.125c6.607,0,8.878-4.423,8.878-6.56c0-2.138,0-2.938,0-3.57c0-0.635-0.167-1.735-1.702-1.735
		c-1.368,0-1.368,1.638-1.368,1.638v3.137c0,0-0.002,4.072-5.307,4.072c-5.308,0-5.24-3.904-5.24-4.974c0-1.067,0-8.629,0-8.629
		s0.301-3.521,3.771-3.521c3.47,0,4.505,2.338,5.239,3.521c0.22,0.358,0.534,1.118,1.603,1.118
		C50.068,39.697,50.603,39.129,50.603,37.828z"/>
	<path fill="#F9A737" stroke="#F9A737" stroke-miterlimit="10" d="M136.178,36.326c0-1.303,0-6.943,0-6.943
		s-0.201-1.467-1.602-1.467c-1.402,0-1.604,1.603-1.604,1.603v3.137c0,0-1.137-2.537-5.541-2.537c-4.406,0-6.606,3.205-6.606,6.609
		c0,3.403,0,8.543,0,9.846c0,1.936,1.269,7.125,7.876,7.125s8.879-4.422,8.879-6.559c0-2.139,0-2.938,0-3.57
		c0-0.635-0.168-1.736-1.702-1.736c-1.368,0-1.368,1.637-1.368,1.637v3.139c0,0-0.002,4.072-5.309,4.072s-5.238-3.904-5.238-4.975
		s0-8.629,0-8.629s0.301-3.521,3.77-3.521c3.476,0,4.511,2.338,5.242,3.521c0.219,0.359,0.533,1.119,1.604,1.119
		C135.645,38.195,136.178,37.627,136.178,36.326z"/>
	<path fill="#F9A737" stroke="#F9A737" stroke-miterlimit="10" d="M76.785,46.836c-0.5,0-1.702-0.146-1.702,1.205
		s-0.551,2.104-1.952,1.926c-2.229-0.299-2.104-5.682-2.104-9.586c0-3.903-3.305-4.006-2.003-4.006c1.303,0,3.863-2.99,3.705-6.457
		c-0.233-5.071-7.561-4.807-7.561-4.807h-10.66c0,0-1.804,0.033-1.804,1.586c0,1.551,1.781,1.668,1.781,1.668h2.374v7.51
		c-3.505,0-2.652,3.754-0.501,3.529c0.218,0.002,0.461-0.012,0.718-0.031v9.096c-1.351,0.15-2.443,0.273-2.707,0.305
		c-0.707,0.078-1.23,0.402-1.063,2.008c0.166,1.602,1.701,1.268,1.701,1.268s7.783-0.646,9.051-0.979
		c1.269-0.334,0.862-3.463-0.678-3.299c-0.54,0.061-1.728,0.188-3.066,0.338V38.88c2.005-0.379,4.108-0.815,5.375-0.772
		c0.983,0.035,1.347,0.594,1.521,1.001c0.832,1.929,0.771,6.525,0.812,8.386c0.052,2.252,0.952,6.207,5.457,6.207
		c4.506,0,4.906-4.058,4.906-5.31S77.285,46.836,76.785,46.836z M60.314,35.512V28.24c0,0,8.812-0.859,8.812,2.229
		C69.125,34.557,60.314,35.512,60.314,35.512z"/>
	<path fill="#F9A737" stroke="#F9A737" stroke-miterlimit="10" d="M101.779,40.812c-0.483-1.039-1.195-1.383-1.604-1.192
		c-0.164,0.075-1.646,0.769-3.358,1.565L88.308,22.17c0-0.014,0-0.024,0-0.041c-0.003-1.194-0.457-1.834-0.863-1.834
		c-0.406,0.002-8.949,0.029-8.949,0.029s-1.039,0.178-1.032,1.84C77.465,23.83,78.234,24,78.234,24s3.323-0.012,6.012-0.02
		l-3.514,18.235c-2.688,0-5.648,0-5.648,0s-1.151,0.166-1.151,1.762c0,1.598,0.853,1.764,0.853,1.764s10.036,0,10.362,0
		c0.324,0,0.802-0.615,0.802-1.764c0-1.146-0.502-1.762-0.951-1.762c-0.084,0-0.479,0-1.068,0l0.515-2.086l7.258-1.258l1.805,3.855
		c-1.323,0.613-2.314,1.08-2.314,1.08s-0.973,0.637-0.299,2.082c0.674,1.441,1.515,1.232,1.515,1.232s9.099-4.242,9.395-4.381
		C102.092,42.609,102.264,41.852,101.779,40.812z M85.229,36.943l1.922-7.791l3.431,7.328L85.229,36.943z"/>
	<path fill="#F9A737" stroke="#F9A737" stroke-miterlimit="10" d="M118.889,23.877l-20.943,0.396
		c-1.84,0.035-1.393,2.164-1.393,2.164s0.959,7.084,1.176,8.037c0.217,0.948,0.734,1.352,2.236,1.2
		c1.502-0.15,1.102-1.553,1.102-1.553l-0.649-6.508l6.558-0.219v21.245h-3.163c-0.953,0-1.727,0.771-1.727,1.729
		s0.772,1.729,1.727,1.729h9.695c0.955,0,1.729-0.771,1.729-1.729c0-0.953-0.771-1.729-1.729-1.729h-2.736l-0.225-21.364
		l6.391-0.213c0,0,0.021,3.879,0.021,4.68c0,0.803,0.919,1.139,1.787,1.133c1.05-0.006,1.676-0.557,1.686-0.924
		c0.01-0.365,0.115-3.004,0.115-5.74C120.541,23.711,118.889,23.877,118.889,23.877z"/>
	<path fill="#F9A737" stroke="#F9A737" stroke-miterlimit="10" d="M160.809,50.842l-1.979,0.26l-0.321-26.688h2.571
		c0.771,0,1.396-0.717,1.396-1.602c0-0.886-0.627-1.603-1.396-1.603h-8.545c-0.775,0-1.402,0.717-1.402,1.603
		c0,0.885,0.627,1.602,1.402,1.602h2.65l0.029,11.096l-9.711,1.898l0.109-10.189h2.777c0.771,0,1.399-0.629,1.399-1.401
		c0-0.773-0.628-1.402-1.399-1.402h-8.543c-0.773,0-1.4,0.629-1.4,1.402c0,0.772,0.627,1.401,1.4,1.401h2.521V49.01l-2.771,0.033
		c-0.787,0.01-1.414,0.732-1.404,1.619c0.011,0.885,0.656,1.594,1.441,1.584l8.688-0.104c0.787-0.013,1.416-0.733,1.406-1.619
		c-0.015-0.887-0.658-1.596-1.444-1.584l-2.902,0.035l0.087-8.058l9.758-1.883l0.032,12.532l-3.062,0.397
		c-0.78,0.104-1.319,0.896-1.206,1.772c0.114,0.877,0.842,1.505,1.62,1.402l8.611-1.125c0.778-0.104,1.317-0.896,1.203-1.772
		C162.314,51.365,161.589,50.738,160.809,50.842z"/>
	<g>
		<g opacity="0.9">
			<g>
				<path fill="none" d="M199.426,37.988c-0.396-0.289-0.447-0.406,0.252-0.383c2.305,0.078,7.607-0.346,7.607-5.952
					c0-4.707-4.355-7.478-6.859-7.478l-13.084,0.478c0,0-0.629-0.01-0.629-0.627c0-1.906-0.717-7.303-7.932-6.726
					c0,0-6.262,0.757-7.01,8.011c-0.668,6.475,2.703,6.809,3.807,7.477c0,0,1.033,0.935,1.334,4.873
					c0.126,1.651,0.123,2.588,0.074,3.116c-0.062,0.729-0.312,0.457-0.58,0.175c-0.45-0.47-1.361-1.084-3.031-1.021
					c-2.67,0.1-5.809,0.897-5.908,6.207c-0.1,5.307,5.508,8.741,8.379,8.741c0,0,5.014,0.57,10.354-5.528
					c0.151-0.179,0.875-0.353,1.084-0.269c2.1,0.851,4.248,0.959,5.655,0.976l-0.772-0.729c1.071-0.289,1.649-1.735,0.774-2.423
					c1.42-0.196,2.258-1.206,2.479-2.604c1.844-1.371,4.629-1.982,6.143-2.529c0.562,0.033,0.379,0.729,0.875,0.688
					c0.018-0.012,0.027-0.021,0.043-0.034C201.934,40.188,200.391,38.691,199.426,37.988z"/>
			</g>
			<polygon opacity="0.3" fill="#FFFFFF" enable-background="new    " points="194.205,56.572 194.156,56.215 194.354,56.438 			"/>
			<path opacity="0.3" fill="#FFFFFF" enable-background="new    " d="M194.734,57.166l-0.312,0.545l0.206,0.08l-0.776,0.027
				C194.471,58.066,194.1,57.197,194.734,57.166z"/>
			<path opacity="0.3" fill="#FFFFFF" enable-background="new    " d="M198.373,58.859c-0.307,0.404-0.281-0.02-0.199-0.229
				C198.322,58.504,198.521,58.727,198.373,58.859z"/>
			<path opacity="0.3" fill="#FFFFFF" enable-background="new    " d="M195.043,61.553c0.204,0.086,0.057,0.217,0.048,0.356
				C195.025,61.836,194.684,61.605,195.043,61.553z"/>
			<polygon opacity="0.3" fill="#FFFFFF" enable-background="new    " points="195.885,61.604 195.34,61.289 195.488,61.158 			"/>
			<path opacity="0.3" fill="#FFFFFF" enable-background="new    " d="M197.404,60.916c-0.711,0.104-0.196-0.223-0.051-0.354
				L197.404,60.916z"/>
			<path opacity="0.3" fill="#FFFFFF" enable-background="new    " d="M198.271,61.746c-0.229,0.338-0.479-0.242-0.676-0.465
				C197.982,61.867,197.959,61.092,198.271,61.746z"/>
			<polygon opacity="0.3" fill="#FFFFFF" enable-background="new    " points="197.38,62.537 197.396,62.256 197.818,62.281 			"/>
		</g>
	</g>
	<path fill="#F9A737" d="M191.281,58.371c1.438-1.676,0.451-2.932,1.339-4.785c-0.454-0.662-0.786,0.166-1.241-0.494
		c1.529-0.826,0.01-2.535,1.587-3.01l-0.024-0.021c-1.406-0.016-3.559-0.125-5.654-0.975c-0.209-0.084-0.936,0.09-1.084,0.268
		c-5.344,6.104-10.354,5.529-10.354,5.529c-2.871,0-8.479-3.438-8.381-8.742c0.104-5.309,3.238-6.105,5.908-6.207
		c1.67-0.062,2.581,0.553,3.031,1.021c0.271,0.281,0.521,0.561,0.582-0.174c0.047-0.529,0.05-1.467-0.076-3.117
		c-0.303-3.938-1.334-4.873-1.334-4.873c-1.104-0.668-4.475-1.002-3.807-7.477c0.748-7.254,7.01-8.011,7.01-8.011
		c7.215-0.577,7.932,4.818,7.932,6.726c0,0.617,0.629,0.627,0.629,0.627l13.086-0.479c2.502,0,6.857,2.771,6.857,7.479
		c0,5.606-5.305,6.029-7.607,5.951c-0.699-0.022-0.646,0.095-0.252,0.384c0.965,0.702,2.508,2.198,3.055,4.438
		c1.326-1.119,2.625,0.455,3.746-0.805c0.959,1.08,3.045,0.91,4.404,1.734c0.49-1.938,0.75-3.967,0.75-6.058
		c0-13.639-11.055-24.692-24.691-24.692s-24.69,11.055-24.69,24.692c0,13.64,11.058,24.693,24.69,24.693
		c2.357,0,4.641-0.332,6.8-0.949c-0.185-0.84-0.354-1.678-0.452-2.502L191.281,58.371z"/>
	<path fill="#FAB250" d="M210.631,43.361c-1.361-0.826-3.447-0.656-4.406-1.736c-1.121,1.26-2.42-0.314-3.744,0.803
		c0.125,0.521,0.199,1.078,0.199,1.678c0,4.236-4.438,5.643-4.438,5.643l-4.551,0.314c-0.215,0-0.471,0-0.752-0.002l0.024,0.021
		c-1.575,0.475-0.058,2.184-1.587,3.01c0.455,0.66,0.787-0.168,1.241,0.494c-0.888,1.854,0.099,3.109-1.341,4.785l1.754,0.176
		c0.101,0.824,0.27,1.662,0.451,2.502C201.902,58.645,208.482,51.885,210.631,43.361z"/>
	<g opacity="0.27">
		<g>
			<g>
				<g>
					<g>
						<g>
							<path fill="#CCCCCC" d="M212.605,44.452c-0.771,1.976-1.164,2.594-1.5,2.868c-0.326,0.279-0.521,0.256-0.974,0.871
								c0,0,0.193-0.479,0.388-0.961c0.211-0.474,0.332-0.979,0.332-0.979c0.254-0.631,0.588-1.336,0.85-2.062
								c0.238-0.723,0.477-1.438,0.688-2.07c0.34-1.256,0.579-2.104,0.688-1.669c0.008,0.137,0.028,0.7,0.009,1.458
								C213.021,42.66,212.846,43.591,212.605,44.452z"/>
							<path fill="#CCCCCC" d="M212.152,39.545c-0.047,0.375-0.104,0.434-0.146,0.805l-0.22-1.115L212.152,39.545z"/>
							<path fill="#CCCCCC" d="M208.794,50.938c0.045,0.028-1.084,1.608-1.083,1.608c-0.3,0.337,0.296-0.592,0.219-0.567
								c0,0-1.408,1.65-1.451,1.609c1.006-1.066,1.338-1.729,1.604-2.064C208.339,51.174,208.43,51.066,208.794,50.938z"/>
							<path fill="#CCCCCC" d="M187.328,60.9c-0.68-0.129-0.415-0.2,0.072-0.295c0.488-0.117,1.205-0.239,1.467-0.336
								c0.555-0.002,1.076-0.017,1.355,0.012c0.278,0.037,0.319,0.133-0.111,0.289C188.657,60.744,188.029,60.818,187.328,60.9z"/>
							<g>
								<path fill="#CCCCCC" d="M200.854,58.988c0.105-0.178,0.434-0.42,0.813-0.732c0.373-0.326,0.828-0.691,1.254-1.037
									c0.437-0.33,0.806-0.684,1.034-0.949c0.232-0.261,0.334-0.42,0.197-0.412c-0.231,0.016-0.463,0.025-0.889,0.295
									c0,0-0.084,0.104-0.228,0.236c-0.146,0.133-0.339,0.311-0.53,0.483c-0.388,0.354-0.773,0.708-0.773,0.708
									c-2.209,1.406-1.838,0.951-1.26,0.468c0.279-0.254,0.604-0.53,0.646-0.677c0.047-0.137-0.142-0.062-0.917,0.305
									c-0.619,0.399-0.932,0.6-1.165,0.812c-1.396,0.936-0.94,0.783,0.038,0.512c-1.107,0.551-1.854,0.882-2.398,1.02
									c-0.557,0.115-0.89,0.113-1.152,0.084c-0.537-0.086-0.771-0.158-2.028,0.151c-1.695,0.548-2.021,0.72-1.986,0.921
									c0.029,0.193,0.41,0.34-0.01,0.52c-0.041-0.311-1.712-0.217-4.004-0.346c-2.293-0.168-5.187-0.625-7.67-1.416
									c-2.369-0.604-4.706-1.843-6.861-3.465c-2.159-1.631-4.128-3.658-5.93-5.964c-1.345-2.104-2.662-5.118-3.312-8.297
									c0.029-0.006,0.062-0.021,0.092-0.021c-0.045-0.07-0.086-0.111-0.116-0.104c-0.011-0.604-0.077-1.394-0.21-2.242
									c-0.075-0.854-0.133-1.782-0.188-2.654c0.027-0.873,0.06-1.693,0.126-2.323c0.133-0.625,0.284-1.06,0.475-1.173l0.021-0.572
									c0.064-0.71,0.197-1.045,0.251-1.195c0.062-0.148,0.087-0.104,0.111-0.021c0.047,0.165,0.082,0.474,0.343-0.29
									c0.479-2.588,2.43-5.415,2.712-6.771c0.142-0.159,0.022,0.096,0.165-0.064c0,0,0.062-0.115,0.154-0.289
									c0.084-0.179,0.227-0.398,0.376-0.613c0.291-0.436,0.583-0.872,0.583-0.872c-0.028-0.194,0.094-0.645-0.232-0.452
									c0.285-0.404,0.459-0.824,0.975-1.324c1.197-1.333,0.354,0.036,0.867-0.357c1.5-1.635,3.36-3.177,5.433-4.334
									c2.088-1.119,4.334-1.844,6.411-2.179c0.057,0.251,1.248,0.121,2.68-0.008c0.721-0.01,1.499-0.101,2.227-0.09
									c0.729,0.021,1.399,0.04,1.9,0.054c1.957,0.454,4.089,0.673,6.027,1.333c0.496,0.129,0.979,0.278,1.428,0.482
									c0.458,0.193,0.898,0.38,1.322,0.56c0.812,0.446,1.561,0.898,2.135,1.405c-1.646-0.749-4.273-2.407-4.77-2.121
									c0,0,0.711,0.418,0.699,0.439c1.676,0.792,3.953,2.539,5.01,2.945c-0.695-0.761-0.651-0.952-0.848-1.279
									c0.719,0.426,0.924,0.389,1.792,0.989c0.584,0.505,1.188,1.047,1.606,1.495c0.385,0.484,0.607,0.848,0.519,0.932
									c-0.319-0.271-0.593-0.611-0.899-0.903c-0.312-0.29-0.606-0.581-0.897-0.829c-0.192,0.013,0.205,0.474,0.728,1.007
									c0.492,0.56,1.056,1.254,1.328,1.602c-0.295-0.787,0.312-0.459,0.688-0.343c0.36,0.117,0.506,0.004-0.863-1.781
									c0,0,0.438,0.431,0.878,0.862c0.221,0.217,0.438,0.435,0.604,0.597c0.147,0.177,0.245,0.295,0.245,0.295
									c0.396,0.289,0.322,0.018,0.027-0.519c-0.334-0.503-0.922-1.24-1.457-1.931c-1.185-1.257-2.187-2.361-0.312-1.099
									c0.443,0.195,0.146-0.394,1.355,0.588c-0.188-0.412-0.668-0.847-1.121-1.276c-0.465-0.419-0.936-0.804-1.271-0.943
									c-0.33-0.522-1.646-1.563-2.983-2.33c-0.643-0.438-1.315-0.74-1.795-1.034c-0.482-0.288-0.787-0.53-0.768-0.687
									c-1.104-0.316-2.043-0.593-2.896-0.891c-0.871-0.229-1.647-0.493-2.427-0.76c-0.784-0.2-1.59-0.406-2.417-0.618
									c-0.854-0.16-1.777-0.247-2.832-0.32c-2.686,0.062-3.141,0.236-3.109,0.391c0.031,0.143,0.522,0.27-0.196,0.552
									c-2.655,0.094-5.068,1.337-6.454,2.028c-1.273,0.585-2.146,0.795-1.337,0.288c-1.259,0.483-2.415,1.17-3.593,1.843
									l-1.67,1.16c-0.562,0.381-1.049,0.861-1.572,1.294c-2.025,1.814-3.846,3.924-5.203,6.325
									c-1.362,2.395-2.367,4.999-2.958,7.7c-0.521,2.713-0.669,5.486-0.412,8.234c0.122,2.245,0.597,4.402,1.396,6.412
									c0.713,2.054,1.738,3.933,2.646,6.021l-0.293-0.699c0.008-0.133,0.316,0.349,0.602,0.699
									c-0.301-0.688-0.545-1.365-0.785-2.004c0.326,0.568,0.649,1.141,0.977,1.704c0.377,0.535,0.768,1.062,1.161,1.574
									c0.298,0.228,0.76,0.672,1.321,1.228c0.273,0.283,0.57,0.596,0.883,0.92c0.318,0.314,0.681,0.617,1.027,0.938
									c0.354,0.312,0.698,0.646,1.062,0.936c0.376,0.268,0.739,0.523,1.084,0.771c0.346,0.233,0.67,0.446,0.963,0.618
									c0.31,0.146,0.584,0.258,0.81,0.322c1.479,0.992,2.531,1.463,3.269,1.867c0.729,0.418,1.229,0.571,1.696,0.814
									c0.484,0.201,0.945,0.496,1.771,0.727c0.812,0.246,1.938,0.647,3.749,0.903c1.947,0.194,4.094,0.083,6.288-0.173
									c2.185-0.37,4.438-0.848,6.569-1.686c0.394-0.144,0.777-0.27,1.137-0.38c0.345-0.139,0.66-0.257,0.926-0.347
									c0.527-0.182,0.85-0.246,0.748-0.139c0.921-0.42,1.919-1.146,2.979-1.779c0.971-0.762,2.012-1.451,2.752-2.188
									c0.789-0.787,1.334-1.392,1.652-1.867c0.34-0.459,0.514-0.734,0.559-0.862c0.088-0.257-0.332,0.067-0.985,0.67
									c-0.315,0.313-0.726,0.664-1.185,1.022c-0.455,0.358-0.92,0.774-1.414,1.146C202.541,57.872,201.574,58.607,200.854,58.988z
									"/>
								<path fill="#CCCCCC" d="M177.684,16.497c-0.06,0.201,0.312,0.07,0.812-0.016c0.495-0.102,1.076-0.259,1.377-0.31
									c0,0,0.18-0.092,0.357-0.185c0.188-0.073,0.375-0.146,0.375-0.146c1.904-0.607,1.935-0.948,0.629-0.771
									c-0.194,0.197-0.842,0.356-1.53,0.655C179.018,16.027,178.205,16.24,177.684,16.497z"/>
								<path fill="#CCCCCC" d="M166.521,28.058l-0.14-0.358c0,0-0.062,0.145-0.153,0.363c-0.105,0.212-0.201,0.516-0.293,0.817
									c-0.188,0.603-0.381,1.204-0.381,1.204C165.77,30.083,166.105,28.91,166.521,28.058z"/>
								<path fill="#CCCCCC" d="M209.689,28.071c-0.194-0.62-0.414-1.126-0.614-1.59c-0.191-0.468-0.367-0.899-0.546-1.331
									c-0.211-0.415-0.438-0.828-0.702-1.286c-0.259-0.463-0.568-0.958-1.021-1.484l-0.103,0.708
									c1.313,2.305,2.252,4.906,3.049,7.863c0.521,0.941,0.37,0.023,0.171-1.05C209.671,28.85,209.277,27.679,209.689,28.071z"/>
								<path fill="#CCCCCC" d="M207.828,22.584c1.58,1.909,2.734,4.391,3.486,6.863c0.746,2.493,1.031,4.949,1.496,7.053
									c0.278-0.297,0.387-0.989,0.385-1.909c0.02-0.462-0.062-0.972-0.162-1.516c-0.102-0.544-0.205-1.124-0.352-1.709
									c-0.664-2.339-1.791-4.736-2.406-6.24c-1.105-1.837-1.901-2.841-3.66-4.833c-0.756-0.639-0.609-0.342-0.182,0.23
									C206.854,21.143,207.466,22.049,207.828,22.584z"/>
								<path fill="#CCCCCC" d="M212.223,37.811c-0.031,0.532,0.004,1.151,0.021,1.462c0.074,0.391,0.217-0.601,0.312-1.062
									C212.586,37.663,212.383,36.274,212.223,37.811z"/>
							</g>
						</g>
					</g>
				</g>
			</g>
		</g>
	</g>
	
		<ellipse transform="matrix(0.9259 -0.3779 0.3779 0.9259 4.3479 69.6623)" fill="#F9A737" stroke="#F9A737" stroke-miterlimit="10" cx="179.699" cy="23.751" rx="2.54" ry="1.752"/>
</g>
</svg>
