<?xml version="1.0" encoding="utf-8"?>
<!-- Generator: Adobe Illustrator 15.0.0, SVG Export Plug-In . SVG Version: 6.00 Build 0)  -->
<!DOCTYPE svg PUBLIC "-//W3C//DTD SVG 1.1//EN" "http://www.w3.org/Graphics/SVG/1.1/DTD/svg11.dtd">
<svg version="1.1" id="Layer_1" xmlns="http://www.w3.org/2000/svg" xmlns:xlink="http://www.w3.org/1999/xlink" x="0px" y="0px"
	 width="230px" height="63px" viewBox="-0.5 0 230 63" enable-background="new -0.5 0 230 63" xml:space="preserve">
<g id="Buttons_x5F_Released">
	<path opacity="0.3" fill="#333333" enable-background="new    " d="M146.23,14.419c-5.043,0-9.688,1.71-13.389,4.576
		c-1.141-1.137-3.023-2.685-4.925-2.775c-0.663-0.032-1.788-0.048-3.34-0.048c-2.613,0-5.606,0.045-5.64,0.046l-0.215,0.003
		l-0.207-0.092c-0.519,0.156-2.897,1-4.365,2h-5.672c-1.461,0-3.504,1.441-6.763,3.816c-0.124,0.09-0.251,0.261-0.374,0.35
		c-0.173-0.188-0.359-0.364-0.52-0.547c-1.049-1.202-2.355-2.436-3.947-2.834l-0.186,0.215h-20.17c-1.107-2-3.617-3.341-5.733-3.341
		c-0.228,0-0.526-0.136-0.885-0.153c-0.593-0.027-1.33-0.123-2.173-0.123c-5.119,0-8.973,1.4-11.456,4.223
		c-0.177,0.14-0.244,0.125-0.334,0.125c-0.238,0-0.642-0.094-1.107-0.194c-1.042-0.224-2.615-0.566-5.051-0.566l-8.011,0.047
		l-0.354,0.202c-0.964,0.554-5.788,3.38-7.343,5.37c-0.097,0.023-0.448,0.038-0.767-0.008c-0.489-3.197-2.688-7.745-8.631-7.745
		c-2.591,0-4.434,0.975-5.356,1.608c-0.292-0.036-0.651-0.064-1.065-0.064c-2.316,0-7.954,0.982-10.73,10.086L7.51,28.817v7.458
		c-1,0.836-1.69,2.604-1.756,5.358C5.7,44,5.7,45.911,5.717,47.307c0.007,0.543,0,1.112,0,1.512c0,4.479,4.883,9.312,9.512,9.312
		h0.197l0.191-0.145c0.146-0.038,3.625-1,5.96-2.799c0.521-0.402,1.122-0.629,1.784-0.629c0.624,0,1.088,0.168,1.088,0.168
		l0.774,0.33l0.745-0.5c1.71,1.146,5.527,3.385,9.243,3.385c3.347,0,5.808-1.344,7.277-2.147c0.344-0.188,0.765-0.418,0.955-0.487
		c1.649-0.002,6.431-0.088,8.579-0.923c0.14,0.075,0.343,0.204,0.504,0.306c1.088,0.69,2.904,1.844,6.4,1.856
		c0.081,0.005,0.216,0.013,0.397,0.013c1.465,0,6.262-0.442,9.32-5.859c1.519,0.588,3.15,0.718,3.364,0.732l2.855-0.026
		c0.83,1.378,2.725,3.728,5.9,3.728h11.316l0.304-0.105c0.79-0.354,1.364-0.691,1.781-0.998c1.103,0.828,2.87,2.104,4.825,2.104
		h6.68l0.239-0.064c0.489-0.164,1.569-0.535,2.3-0.93c0.217-0.015,0.629-0.025,1.385-0.025c1.09,0,2.385,0.033,3.154,0.056
		c0.913,0.994,2.838,2.772,4.908,2.772c2.422,0,4.986-0.109,7.328-0.908c0.476-0.162,1.119-0.208,1.8-0.26
		c1.843-0.137,4.307-0.324,6.405-2.869c3.643,2.703,8.15,4.305,13.037,4.305c12.09,0,21.894-9.802,21.894-21.893
		C168.124,24.222,158.32,14.419,146.23,14.419z M10.513,29.285c2-6.672,5.748-7.676,7.748-7.676c0.634,0,1.043,0.103,1.044,0.103
		l0.842,0.22l0.634-0.58c0.058-0.053,1.436-1.286,3.898-1.286c5.297,0,5.624,5.322,5.645,5.923l0.025,1.058l0.996,0.36
		c0.124,0.045,1.25,0.441,2.426,0.441c1.554,0,2.362-0.68,2.747-1.222c0.791-1.064,4.015-3.165,6.095-4.386l7.181-0.044
		c2.097,0,3.422,0.285,4.39,0.493c0.64,0.137,1.191,0.256,1.759,0.256c0.908,0,1.683-0.305,2.437-0.959l0.161-0.162
		c1.891-2.202,4.897-3.272,9.192-3.272c0.77,0,1.467,0.033,2.026,0.059c0.417,0.02,0.767,0.036,1.031,0.036
		c0.815,0,2.735,1.561,4.017,2.838l0.453,0.647h21.004c0.654,0,1.631,1.202,2.229,1.888c0.995,1.141,1.717,1.869,2.786,1.869
		c0.308,0,0.609-0.125,0.875-0.272c0.271-0.149,0.644-0.645,1.391-1.189c1.006-0.733,4.066-2.295,4.938-3.295h7.021l0.464-0.35
		c0.503-0.597,2.157-1.216,3.244-1.569c0.741-0.01,3.188,0.008,5.367,0.008c1.503,0,2.575,0.04,3.19,0.069
		c0.489,0.023,1.166,0.434,1.832,0.959c0.316,0.249,0.631,0.533,0.922,0.813c-0.023,0.025-0.045,0.057-0.069,0.082
		c-0.896-0.849-1.979-1.653-2.685-1.686c-0.615-0.029-1.688-0.043-3.19-0.043c-2.179,0-4.626,0.032-5.367,0.043
		c-1.087,0.353-2.741,1.299-3.244,1.896l-0.464,0.778h-7.021c-0.871,0-3.934,2.11-4.938,2.843c-0.747,0.545-1.118,0.701-1.391,0.85
		c-0.266,0.146-0.567,0.167-0.875,0.167c-1.069,0-1.791-0.73-2.786-1.872c-0.601-0.687-1.574-1.988-2.229-1.988H75.259l-0.453-0.576
		c-1.281-1.276-3.201-2.704-4.017-2.704c-0.265,0-0.614-0.047-1.031-0.066c-0.56-0.026-1.257-0.074-2.026-0.074
		c-4.295,0-7.302,1.063-9.192,3.265l-0.161,0.157c-0.754,0.655-1.528,0.958-2.437,0.958c-0.567,0-1.119-0.12-1.759-0.257
		c-0.968-0.208-2.293-0.493-4.39-0.493l-7.181,0.044c-2.08,1.22-5.304,3.321-6.095,4.386c-0.385,0.542-1.193,1.222-2.747,1.222
		c-1.176,0-2.302-0.396-2.426-0.441l-0.996-0.36l-0.025-1.058c-0.021-0.601-0.348-5.923-5.645-5.923
		c-2.462,0-3.841,1.234-3.898,1.287l-0.635,0.58l-0.843-0.22c-0.001,0-0.409-0.103-1.042-0.103c-2,0-5.748,1.003-7.748,7.675
		L10.513,29.285L10.513,29.285z M8.801,41.711c0.061-2.513,1.208-3.729,1.239-3.762l0.473-0.456v0.143l-0.473,0.457
		c-0.031,0.033-1.177,1.249-1.237,3.761c-0.026,1.121-0.034,2.137-0.033,3.045C8.768,43.954,8.774,42.891,8.801,41.711z
		 M130.777,51.958c-3.977-3.965-6.439-9.442-6.439-15.501c0-0.018,0.002-0.032,0.002-0.049c0.026,6.056,2.51,11.527,6.504,15.477
		C130.822,51.912,130.799,51.932,130.777,51.958z"/>
	<g>
		<g>
			<g>
				<g>
					<g>
						<path fill="#28A5DA" d="M143.23,11.813c-5.043,0-9.688,1.71-13.389,4.576c-1.141-1.137-3.023-2.685-4.925-2.775
							c-0.663-0.032-1.788-0.048-3.34-0.048c-2.613,0-5.606,0.045-5.64,0.046l-0.215,0.003l-0.207,0.062
							c-0.519,0.156-2.897,0.916-4.365,2.155h-5.672c-1.461,0-3.504,1.287-6.763,3.662c-0.124,0.09-0.251,0.184-0.374,0.272
							c-0.173-0.188-0.359-0.403-0.52-0.585c-1.049-1.202-2.355-2.697-3.947-3.096l-0.186-0.046h-20.17
							c-1.107-1.023-3.617-3.098-5.733-3.098c-0.228,0-0.526-0.015-0.885-0.032c-0.593-0.027-1.33-0.063-2.173-0.063
							c-5.119,0-8.973,1.431-11.456,4.253c-0.177,0.14-0.244,0.14-0.334,0.14c-0.238,0-0.642-0.086-1.107-0.188
							c-1.042-0.224-2.615-0.562-5.051-0.562l-8.011,0.049l-0.354,0.203c-0.964,0.554-5.788,3.38-7.343,5.371
							c-0.097,0.023-0.448,0.039-0.767-0.008c-0.489-3.197-2.688-7.745-8.631-7.745c-2.591,0-4.434,0.975-5.356,1.608
							c-0.292-0.036-0.651-0.064-1.065-0.064c-2.316,0-8.006,0.982-10.782,10.086L4.404,26.21v7.458
							c-0.625,0.837-1.638,2.605-1.703,5.359C2.644,41.391,2.67,43.3,2.687,44.695c0.007,0.545,0.014,1.018,0.014,1.418
							c0,4.479,4.896,9.217,9.525,9.217h0.197l0.191-0.049c0.146-0.038,3.625-0.952,5.96-2.751c0.521-0.402,1.122-0.605,1.784-0.605
							c0.624,0,1.088,0.181,1.088,0.181l0.774,0.336l0.745-0.498c1.71,1.146,5.527,3.388,9.243,3.388
							c3.347,0,5.808-1.345,7.277-2.147c0.344-0.188,0.765-0.416,0.955-0.484c1.649-0.004,6.431-0.09,8.579-0.924
							c0.14,0.074,0.343,0.203,0.504,0.307c1.088,0.689,2.904,1.842,6.4,1.855c0.081,0.004,0.216,0.013,0.397,0.013
							c1.465,0,6.262-0.443,9.32-5.86c1.519,0.588,3.15,0.719,3.364,0.733l2.855,0.003c0.83,1.378,2.725,3.757,5.9,3.757h11.316
							l0.304-0.138c0.79-0.354,1.364-0.691,1.781-1c1.104,0.828,2.87,2.104,4.824,2.104h6.681l0.239-0.08
							c0.49-0.163,1.568-0.542,2.3-0.936c0.217-0.015,0.629-0.03,1.385-0.03c1.089,0,2.384,0.032,3.154,0.055
							c0.913,0.994,2.838,2.771,4.907,2.771c2.423,0,4.986-0.11,7.33-0.909c0.475-0.162,1.117-0.209,1.799-0.259
							c1.843-0.137,4.307-0.325,6.406-2.87c3.642,2.704,8.149,4.306,13.035,4.306c12.092,0,21.895-9.803,21.895-21.894
							C165.124,21.616,155.32,11.813,143.23,11.813z M123.561,51.076c-0.847,0.062-1.722,0.126-2.569,0.417
							c-2.183,0.743-4.88,0.743-6.33,0.743c-0.795,0-2.239-1.262-2.976-2.17l-0.442-0.553l-0.709-0.025
							c-0.091-0.004-2.22-0.078-3.937-0.078c-1.451,0-1.92,0.053-2.188,0.105l-0.342,0.082l-0.258,0.174
							c-0.192,0.129-0.928,0.432-1.646,0.683h-6.172c-0.992,0-2.301-0.984-3.083-1.573c-0.761-0.572-1.263-0.949-1.958-0.949
							c-0.638,0-1.205,0.357-1.484,0.914c-0.188,0.158-0.625,0.422-1.064,0.641H77.767c-2.305,0-3.531-2.785-3.541-2.807
							l-0.398-0.951h-4.649c-0.554-0.045-2.019-0.258-2.913-0.759c-0.385-0.215-0.798-0.261-1.076-0.261
							c-0.832,0-1.508,0.381-1.809,1.021c-2.227,4.752-5.963,5.121-7.054,5.121c-0.106,0-0.176-0.004-0.187-0.004l-0.149-0.009
							c-2.637,0-3.838-0.762-4.803-1.374c-0.646-0.41-1.315-0.835-2.189-0.835c-0.236,0-0.472,0.032-0.703,0.099l-0.173,0.047
							l-0.159,0.088c-0.803,0.441-4.587,0.736-7.618,0.736c-0.754,0-1.419,0.362-2.339,0.864c-1.366,0.747-3.237,1.769-5.793,1.769
							c-3.821,0-8.226-3.359-8.269-3.395l-0.881-0.682l-1.251,0.834c-0.39-0.09-0.887-0.165-1.45-0.165
							c-1.344,0-2.614,0.432-3.676,1.25c-1.557,1.198-3.957,1.95-4.65,2.149c-2.901-0.141-6.234-3.373-6.234-6.113
							c0-0.41-0.006-0.896-0.014-1.456c-0.018-1.371-0.041-3.249,0.013-5.556c0.061-2.513,1.204-3.728,1.235-3.762l0.47-0.456
							v-8.209c2.105-6.672,5.751-7.676,7.751-7.676c0.634,0,1.045,0.103,1.046,0.103l0.843,0.22l0.635-0.58
							c0.058-0.053,1.437-1.286,3.898-1.286c5.297,0,5.624,5.322,5.645,5.923l0.025,1.058l0.996,0.36
							c0.124,0.045,1.25,0.441,2.426,0.441c1.554,0,2.362-0.68,2.747-1.222c0.791-1.064,4.015-3.165,6.095-4.386l7.181-0.044
							c2.097,0,3.422,0.285,4.39,0.493c0.64,0.137,1.191,0.256,1.759,0.256c0.908,0,1.683-0.305,2.437-0.959l0.161-0.162
							c1.891-2.202,4.897-3.272,9.192-3.272c0.77,0,1.467,0.033,2.026,0.059c0.417,0.02,0.767,0.036,1.031,0.036
							c0.815,0,2.735,1.368,4.017,2.645l0.453,0.454h21.003c0.654,0.278,1.631,1.396,2.229,2.082
							c0.994,1.141,1.717,1.965,2.785,1.965c0.309,0,0.609-0.077,0.875-0.224c0.271-0.149,0.645-0.417,1.392-0.962
							c1.006-0.733,4.065-2.964,4.938-3.068h7.021l0.464-0.553c0.504-0.597,2.157-1.318,3.244-1.67
							c0.741-0.01,3.188-0.042,5.367-0.042c1.503,0,2.576,0.015,3.191,0.044c0.488,0.023,1.164,0.421,1.832,0.946
							c0.315,0.249,0.629,0.526,0.92,0.807c-3.824,3.942-6.187,9.316-6.187,15.245c0,6.093,2.491,11.603,6.507,15.571
							C126.579,50.848,125.23,50.952,123.561,51.076z"/>
					</g>
					<polygon fill="#FFFFFF" points="126.604,17.655 116.997,30.961 119.527,49.562 127.674,49.602 128.016,49.212 129.811,46.639 
						126.033,34.384 130.602,21.035 126.691,17.725 					"/>
					<g>
						<path fill="#FFFFFF" d="M123.561,51.219c-0.847,0.063-1.722,0.127-2.569,0.417c-2.183,0.743-4.88,0.743-6.33,0.743
							c-0.795,0-2.239-1.262-2.976-2.17l-0.442-0.554l-0.709-0.025c-0.091-0.003-2.22-0.078-3.937-0.078
							c-1.451,0-1.92,0.054-2.188,0.105l-0.342,0.083l-0.258,0.173c-0.192,0.129-0.928,0.432-1.646,0.683h-6.172
							c-0.992,0-2.301-0.984-3.083-1.572c-0.761-0.572-1.263-0.949-1.958-0.949c-0.638,0-1.205,0.357-1.484,0.915
							c-0.188,0.157-0.625,0.42-1.064,0.639H77.767c-2.305,0-3.531-2.785-3.541-2.808l-0.398-0.948h-4.649
							c-0.554-0.046-2.019-0.258-2.913-0.761c-0.385-0.215-0.798-0.26-1.076-0.26c-0.832,0-1.508,0.381-1.809,1.021
							c-2.227,4.752-5.963,5.122-7.054,5.122c-0.106,0-0.176-0.004-0.187-0.004l-0.149-0.009c-2.637,0-3.838-0.762-4.803-1.373
							c-0.646-0.409-1.315-0.834-2.189-0.834c-0.236,0-0.472,0.031-0.703,0.098l-0.173,0.048l-0.159,0.087
							c-0.803,0.441-4.587,0.737-7.618,0.737c-0.754,0-1.419,0.362-2.339,0.864c-1.366,0.748-3.237,1.77-5.793,1.77
							c-3.821,0-8.226-3.359-8.269-3.395l-0.881-0.683l-1.251,0.834c-0.39-0.089-0.887-0.165-1.45-0.165
							c-1.344,0-2.614,0.432-3.676,1.25c-1.557,1.2-3.957,1.951-4.65,2.151C9.135,52.232,5.802,49,5.802,46.26
							c0-0.41-0.006-0.896-0.014-1.457c-0.018-1.371-0.041-3.248,0.013-5.555c0.061-2.514,1.204-3.729,1.235-3.762l0.47-0.457
							v-8.208c2.105-6.672,5.751-7.675,7.751-7.675c0.634,0,1.045,0.103,1.046,0.103l0.843,0.22l0.635-0.58
							c0.058-0.053,1.437-1.287,3.898-1.287c5.297,0,5.624,5.323,5.645,5.923l0.025,1.058l0.996,0.36
							c0.124,0.045,1.25,0.441,2.426,0.441c1.554,0,2.362-0.679,2.747-1.222c0.791-1.064,4.015-3.166,6.095-4.386l7.181-0.044
							c2.097,0,3.422,0.285,4.39,0.492c0.64,0.138,1.191,0.256,1.759,0.256c0.908,0,1.683-0.305,2.437-0.959l0.161-0.161
							c1.891-2.202,4.897-3.272,9.192-3.272c0.77,0,1.467,0.033,2.026,0.059c0.417,0.02,0.767,0.036,1.031,0.036
							c0.815,0,2.735,1.368,4.017,2.644l0.453,0.455h21.004c0.654,0.278,1.631,1.395,2.229,2.082
							c0.995,1.141,1.717,1.965,2.786,1.965c0.308,0,0.609-0.077,0.875-0.224c0.271-0.149,0.644-0.417,1.391-0.962
							c1.006-0.733,4.066-2.964,4.938-3.068h7.021l0.464-0.553c0.503-0.597,2.157-1.318,3.244-1.67
							c0.741-0.011,3.188-0.042,5.367-0.042c1.503,0,2.575,0.015,3.19,0.044c0.723,0.034,1.849,0.88,2.754,1.753
							c-3.825,3.942-6.188,9.316-6.188,15.245c0,6.094,2.491,11.604,6.507,15.571C126.579,50.992,125.23,51.096,123.561,51.219z"/>
					</g>
					<polygon fill="#FFFFFF" points="140.335,16.607 152.031,21.254 159.621,25.695 159.079,39.068 152.65,47.514 135.378,49.292 
						127.246,43.02 126.859,27.761 132.154,18.699 					"/>
					<g>
						<path fill="#F9A737" d="M141.395,36.008c-0.104-3.808-0.459-8.209-0.789-9.332c0-0.002,0-0.003-0.002-0.005
							c0-0.007,0.004-0.014,0.002-0.021c-0.23-0.865-0.328-0.955-1.104-0.955h-2.938c-0.61,0-1.14,0.119-1.105,0.955
							c0.027,0.761,0.495,0.955,1.105,0.955h2.486c0.229,1.381,0.547,4.588,0.618,7.708c0.074,3.188-0.829,7.086-3.694,7.086
							c-1.808,0-1.806-1.74-1.873-2.092c-0.125-0.658-0.396-1.113-1.017-1.074c-0.619,0.039-0.997,0.494-0.92,1.269
							c0.078,0.774,0.116,3.522,3.772,3.522C139.871,44.025,141.488,39.343,141.395,36.008z"/>
						<path fill="#F9A737" d="M135.936,44.275c-3.697,0-3.932-2.725-4.009-3.618l-0.012-0.132c-0.047-0.467,0.053-0.859,0.288-1.137
							c0.207-0.244,0.506-0.385,0.863-0.406c0.688-0.043,1.106,0.389,1.276,1.275c0.009,0.041,0.017,0.1,0.024,0.172
							c0.104,0.85,0.373,1.717,1.604,1.717c0.706,0,1.322-0.264,1.83-0.782c1.073-1.099,1.678-3.36,1.614-6.048
							c-0.063-2.842-0.342-5.892-0.582-7.463h-2.272c-0.869,0-1.326-0.403-1.355-1.195c-0.016-0.383,0.077-0.681,0.271-0.884
							c0.28-0.292,0.705-0.331,1.084-0.331h2.938c0.943,0,1.102,0.216,1.35,1.14l0.016,0.059l-0.002,0.014
							c0.35,1.271,0.688,5.83,0.783,9.343c0.057,1.996-0.512,4.976-2.289,6.804C138.408,43.781,137.256,44.275,135.936,44.275z
							 M133.156,39.48l-0.057,0.002c-0.225,0.014-0.396,0.091-0.517,0.229c-0.146,0.171-0.204,0.437-0.172,0.765l0.013,0.139
							c0.082,0.945,0.271,3.16,3.512,3.16c1.182,0,2.211-0.443,3.062-1.318c1.669-1.716,2.2-4.542,2.146-6.441
							c-0.104-3.885-0.471-8.216-0.777-9.269l-0.012-0.067c-0.197-0.734-0.222-0.734-0.854-0.734h-2.938
							c-0.383,0-0.604,0.055-0.725,0.178c-0.098,0.102-0.143,0.276-0.133,0.518c0.02,0.521,0.252,0.715,0.855,0.715h2.698
							l0.035,0.209c0.249,1.516,0.554,4.745,0.621,7.743c0.022,1.058-0.029,4.642-1.757,6.408c-0.604,0.619-1.342,0.934-2.188,0.934
							c-1.838,0-2.034-1.625-2.1-2.157c-0.007-0.058-0.013-0.104-0.019-0.138C133.707,39.584,133.418,39.48,133.156,39.48z"/>
					</g>
					<g>
						
							<ellipse transform="matrix(-0.9257 0.3783 -0.3783 -0.9257 274.6813 -7.841)" fill="#F9A737" cx="138.111" cy="23.06" rx="1.964" ry="1.356"/>
						<path fill="#F9A737" d="M137.63,24.769L137.63,24.769c-0.747,0-1.347-0.333-1.565-0.871c-0.168-0.413-0.101-0.888,0.192-1.336
							c0.274-0.419,0.72-0.77,1.251-0.987c0.356-0.145,0.733-0.222,1.092-0.222c0.746,0,1.346,0.333,1.564,0.871
							c0.13,0.317,0.12,0.674-0.029,1.031c-0.226,0.539-0.755,1.022-1.414,1.292C138.365,24.692,137.988,24.769,137.63,24.769z
							 M138.6,21.854c-0.295,0-0.604,0.064-0.9,0.185c-0.439,0.179-0.805,0.463-1.022,0.798c-0.198,0.306-0.252,0.617-0.146,0.873
							c0.141,0.345,0.562,0.56,1.103,0.56c0.293,0,0.604-0.064,0.901-0.185c0.539-0.22,0.966-0.602,1.142-1.021
							c0.068-0.162,0.128-0.406,0.028-0.649C139.561,22.068,139.139,21.854,138.6,21.854z"/>
					</g>
					<g>
						<path fill="#F9A737" d="M156.199,29.017c0,0-0.258-1.677-2.93-1.677c-1.892,0-3.047,0.784-3.586,1.195l-0.01-0.274
							c-0.031-0.541-0.499-0.952-1.037-0.919l-3.559,0.221c-0.54,0.034-0.951,0.499-0.918,1.04s0.499,0.952,1.039,0.918l2.471-0.153
							l0.195,8.735l-1.096,0.032c-0.535,0.019-0.953,0.466-0.938,0.998c0.016,0.534,0.463,0.954,0.998,0.938l4.8-0.15
							c0.535-0.017,0.954-0.464,0.938-0.999c-0.019-0.534-0.465-0.954-0.998-0.937l-1.443,0.045l-0.302-6.489
							c0.524-1.613,2.219-2.398,3.286-2.427c1.464-0.038,1.106,2.025,2.479,1.633C156.678,30.439,156.199,29.017,156.199,29.017z"/>
						<path fill="#F9A737" d="M146.802,40.323c-0.661,0-1.196-0.519-1.217-1.181c-0.01-0.324,0.106-0.636,0.33-0.871
							c0.224-0.237,0.524-0.373,0.851-0.386l0.846-0.024l-0.184-8.229l-2.289,0.14c-0.646,0-1.187-0.507-1.228-1.155
							c-0.041-0.678,0.476-1.263,1.151-1.305l3.633-0.224c0.59,0,1.089,0.418,1.205,0.98c0.599-0.398,1.714-0.979,3.367-0.979
							c2.854,0,3.166,1.812,3.178,1.889l0,0c0.004,0,0.271,0.821-0.051,1.435c-0.149,0.286-0.396,0.479-0.732,0.575
							c-0.139,0.04-0.27,0.06-0.391,0.06l0,0c-0.608,0-0.879-0.47-1.115-0.884c-0.246-0.429-0.458-0.799-1.002-0.799
							c-0.997,0.026-2.568,0.729-3.075,2.212l0.288,6.195l1.197-0.037l0,0c0.701,0,1.233,0.519,1.256,1.18
							c0.021,0.671-0.51,1.234-1.18,1.256L146.802,40.323z M147.916,29.103l0.207,9.243l-1.342,0.043
							c-0.191,0.006-0.37,0.086-0.502,0.227c-0.131,0.14-0.199,0.32-0.193,0.514c0.012,0.391,0.326,0.695,0.717,0.695v0.25
							l0.023-0.25l4.8-0.15c0.396-0.013,0.708-0.345,0.694-0.74c-0.012-0.391-0.326-0.695-0.717-0.695l-1.713,0.054l-0.314-6.781
							l0.014-0.043c0.567-1.744,2.399-2.57,3.52-2.6c0.892-0.011,1.215,0.582,1.481,1.049c0.232,0.404,0.378,0.633,0.683,0.633l0,0
							c0.074,0,0.16-0.014,0.254-0.04c0.201-0.058,0.342-0.164,0.427-0.326c0.228-0.426,0.013-1.08,0.01-1.086
							c-0.021-0.1-0.286-1.506-2.69-1.506c-1.934,0-3.063,0.861-3.438,1.144l-0.39,0.296l-0.021-0.763
							c-0.021-0.376-0.343-0.677-0.729-0.677l-3.604,0.223c-0.4,0.025-0.709,0.373-0.685,0.775c0.022,0.384,0.345,0.686,0.729,0.686
							L147.916,29.103z"/>
					</g>
					<g>
						<path fill="#F9A737" d="M23.075,22.752l-0.414,8.881c0,0-0.091,0.93-1.136,0.93c-1.046,0-1.511-0.581-1.549-1.433
							c-0.039-0.852,0.195-3.489-2.246-4.724c-2.221-1.123-2.758,0.732-2.866,1.316c-0.084,0.457-0.164,3.622-0.093,4.014
							c0.154,0.851,0.826,1.415,2.194,1.79c0.674,0.186,7.31,1.168,7.31,5.543c0,4.957-3.834,6.236-6.235,6.236
							c-1.627,0-4.17-1.072-4.596-1.459c0,0,0.026,2.608,0.026,2.918c0,0.312-0.388,0.787-1.085,0.787
							c-0.696,0-1.394-0.388-1.394-0.93s0-8.791,0-8.791s0.003-1.536,1.433-1.434c1.252,0.09,1.161,2.4,1.161,3.33
							c0,0.931,1.24,2.942,4.047,2.942c2.809,0,4.009-1.472,4.009-3.292c0-1.818-1.007-2.091-1.743-2.285
							c-0.735-0.191-2.771-0.769-4.53-1.199c-1.306-0.32-2.837-0.891-3.028-2.738c-0.135-1.289-0.104-4.675-0.031-5.51
							c0.068-0.787,0.193-4.337,3.795-4.337s4.26,2.014,4.26,2.014v-2.569c0,0,0.078-0.917,1.316-0.917
							C22.919,21.835,23.075,22.752,23.075,22.752z"/>
						<path fill="#F9A737" d="M12.385,47.799c-0.79,0-1.644-0.451-1.644-1.18v-8.791c0.002-0.608,0.344-1.778,1.701-1.682
							c1.411,0.102,1.399,2.332,1.394,3.401l-0.001,0.177c0,0.768,1.13,2.692,3.797,2.692c2.389,0,3.759-1.108,3.759-3.042
							c0-1.633-0.827-1.852-1.557-2.043c-0.208-0.055-0.519-0.141-0.897-0.243c-0.943-0.258-2.369-0.646-3.629-0.957
							c-1.391-0.341-3.013-0.985-3.218-2.956c-0.134-1.285-0.105-4.704-0.031-5.558l0.009-0.107c0.232-2.958,1.59-4.458,4.035-4.458
							c2.285,0,3.445,0.783,4.01,1.412v-1.717c0.034-0.417,0.405-1.167,1.566-1.167c1.147,0,1.576,0.735,1.643,1.125l0.004,0.027
							l-0.415,8.908c-0.04,0.414-0.38,1.167-1.386,1.167c-1.096,0-1.751-0.609-1.799-1.671c-0.004-0.086-0.005-0.19-0.006-0.309
							c-0.013-1.025-0.039-3.158-2.104-4.203c-0.429-0.218-0.813-0.327-1.142-0.327c-0.988,0-1.284,1.025-1.365,1.466
							c-0.083,0.453-0.157,3.57-0.093,3.924c0.137,0.757,0.759,1.25,2.014,1.593c0.058,0.016,0.158,0.035,0.296,0.064
							c4.776,1.014,7.198,2.938,7.198,5.719c0,4.787-3.494,6.485-6.485,6.485c-1.391,0-3.417-0.753-4.341-1.251
							c0.008,0.764,0.021,2.232,0.021,2.46C13.72,47.188,13.245,47.799,12.385,47.799z M12.289,36.643
							c-1.008,0-1.046,1.066-1.047,1.188v8.789c0,0.354,0.545,0.68,1.144,0.68c0.578,0,0.835-0.389,0.835-0.536
							c0-0.311-0.026-2.916-0.026-2.916l-0.006-0.574l0.424,0.388c0.376,0.342,2.835,1.396,4.428,1.396
							c2.761,0,5.985-1.568,5.985-5.986c0-2.512-2.289-4.271-6.803-5.229c-0.149-0.03-0.261-0.056-0.322-0.071
							c-1.446-0.396-2.201-1.027-2.375-1.986c-0.082-0.452,0.01-3.651,0.093-4.104c0.081-0.44,0.456-1.875,1.857-1.875
							c0.407,0,0.868,0.128,1.368,0.381c2.336,1.182,2.364,3.607,2.377,4.644c0.001,0.112,0.002,0.211,0.006,0.292
							c0.035,0.804,0.461,1.195,1.299,1.195c0.81,0,0.885-0.675,0.888-0.706l0.411-8.836c-0.033-0.131-0.226-0.687-1.145-0.687
							c-0.965,0-1.06,0.62-1.067,0.69l0.001,4.114L20.127,25.4c-0.025-0.074-0.669-1.841-4.022-1.841
							c-3.223,0-3.459,3.008-3.537,3.997l-0.01,0.112c-0.072,0.839-0.1,4.2,0.031,5.462c0.172,1.646,1.466,2.187,2.84,2.521
							c1.267,0.312,2.695,0.701,3.641,0.959c0.378,0.104,0.688,0.188,0.894,0.242c0.722,0.19,1.93,0.508,1.93,2.526
							c0,2.218-1.592,3.542-4.259,3.542c-2.86,0-4.297-2.047-4.297-3.193l0.001-0.179c0.005-0.92,0.015-2.834-0.931-2.901
							C12.366,36.643,12.327,36.643,12.289,36.643z"/>
					</g>
					<g>
						<path fill="#F9A737" d="M37.945,34.111c0-1.008,0-5.37,0-5.37s-0.155-1.136-1.239-1.136c-1.085,0-1.239,1.239-1.239,1.239
							v2.427c0,0-0.878-1.962-4.286-1.962c-3.408,0-5.112,2.479-5.112,5.112c0,2.634,0,6.609,0,7.615
							c0,1.498,0.982,5.513,6.094,5.513c5.112,0,6.867-3.421,6.867-5.072s0-2.271,0-2.763s-0.129-1.343-1.316-1.343
							c-1.059,0-1.059,1.266-1.059,1.266v2.428c0,0-0.001,3.148-4.105,3.148s-4.053-3.021-4.053-3.847c0-0.826,0-6.675,0-6.675
							s0.232-2.725,2.917-2.725s3.485,1.809,4.054,2.725c0.169,0.277,0.413,0.865,1.239,0.865
							C37.531,35.557,37.945,35.118,37.945,34.111z"/>
						<path fill="#F9A737" d="M32.162,47.799c-5.018,0-6.344-3.769-6.344-5.763v-7.615c0-2.583,1.679-5.362,5.362-5.362
							c2.251,0,3.452,0.824,4.036,1.442v-1.657c0.064-0.535,0.456-1.489,1.489-1.489c1.03,0,1.423,0.885,1.487,1.353l0.002,5.403
							c0,1.125-0.501,1.695-1.489,1.695c-0.889,0-1.224-0.584-1.403-0.898l-0.05-0.085c-0.052-0.083-0.105-0.175-0.163-0.273
							c-0.549-0.928-1.379-2.331-3.677-2.331c-2.427,0-2.659,2.396-2.668,2.495l0.001,6.653c0,0.458-0.001,1.349,0.47,2.135
							c0.581,0.971,1.702,1.461,3.333,1.461c3.811,0,3.855-2.781,3.855-2.898v-2.428c0-0.522,0.273-1.516,1.309-1.516
							c1.01,0,1.566,0.566,1.566,1.593v2.763C39.279,44.145,37.487,47.799,32.162,47.799z M31.18,29.56
							c-3.358,0-4.862,2.442-4.862,4.862v7.615c0,0.053,0.067,5.263,5.844,5.263c4.951,0,6.617-3.313,6.617-4.823v-2.762
							c0-0.746-0.339-1.093-1.066-1.093c-0.779,0-0.808,0.913-0.809,1.017v2.426c0,0.033-0.051,3.398-4.355,3.398
							c-1.819,0-3.085-0.574-3.762-1.705c-0.542-0.904-0.541-1.926-0.541-2.361v-6.705c0.004-0.051,0.286-2.974,3.167-2.974
							c2.583,0,3.537,1.613,4.106,2.577c0.057,0.094,0.109,0.184,0.16,0.266l0.058,0.101c0.165,0.289,0.37,0.646,0.969,0.646
							c0.514,0,0.989-0.146,0.989-1.195v-5.369c-0.003-0.003-0.141-0.886-0.989-0.886s-0.985,0.979-0.991,1.021l0.002,3.564
							l-0.479-1.067C35.205,31.301,34.367,29.56,31.18,29.56z"/>
					</g>
					<g>
						<path fill="#F9A737" d="M104.141,32.95c0-1.007,0-5.37,0-5.37s-0.156-1.136-1.24-1.136s-1.237,1.239-1.237,1.239v2.427
							c0,0-0.878-1.962-4.286-1.962c-3.406,0-5.109,2.479-5.109,5.112c0,2.635,0,6.609,0,7.616c0,1.498,0.979,5.513,6.092,5.513
							c5.113,0,6.867-3.421,6.867-5.074c0-1.651,0-2.271,0-2.763c0-0.489-0.129-1.342-1.315-1.342c-1.06,0-1.06,1.265-1.06,1.265
							v2.428c0,0,0,3.148-4.104,3.148s-4.054-3.02-4.054-3.846c0-0.827,0-6.674,0-6.674s0.231-2.724,2.918-2.724
							c2.685,0,3.484,1.808,4.054,2.724c0.169,0.277,0.413,0.865,1.239,0.865C103.727,34.396,104.141,33.957,104.141,32.95z"/>
						<path fill="#F9A737" d="M98.357,46.637c-5.02,0-6.344-3.769-6.344-5.762v-7.616c0-2.583,1.678-5.362,5.36-5.362
							c2.252,0,3.452,0.824,4.036,1.443v-1.657c0.062-0.535,0.457-1.489,1.488-1.489c1.029,0,1.424,0.884,1.486,1.352l0.002,5.404
							c0,1.125-0.5,1.696-1.488,1.696c-0.889,0-1.225-0.586-1.402-0.899l-0.051-0.085c-0.051-0.083-0.104-0.176-0.162-0.271
							c-0.551-0.93-1.379-2.333-3.678-2.333c-2.428,0-2.658,2.394-2.668,2.497v6.651c0,0.458,0,1.349,0.472,2.135
							c0.581,0.97,1.7,1.461,3.333,1.461c3.812,0,3.854-2.78,3.854-2.899v-2.426c0-0.523,0.273-1.516,1.311-1.516
							c1.01,0,1.564,0.564,1.564,1.592v2.764C105.475,42.982,103.682,46.637,98.357,46.637z M97.375,28.397
							c-3.357,0-4.861,2.442-4.861,4.862v7.616c0,0.053,0.067,5.262,5.844,5.262c4.951,0,6.617-3.312,6.617-4.822v-2.764
							c0-0.744-0.34-1.092-1.065-1.092c-0.779,0-0.81,0.912-0.81,1.016V40.9c0,0.035-0.052,3.398-4.354,3.398
							c-1.819,0-3.085-0.572-3.763-1.704c-0.543-0.903-0.541-1.926-0.541-2.36V33.53c0.004-0.052,0.285-2.974,3.166-2.974
							c2.584,0,3.539,1.614,4.107,2.578c0.057,0.095,0.108,0.183,0.159,0.265l0.058,0.101c0.166,0.289,0.37,0.646,0.969,0.646
							c0.516,0,0.99-0.145,0.99-1.194v-5.37c-0.004-0.003-0.142-0.886-0.99-0.886c-0.854,0-0.984,0.979-0.989,1.021l0.002,3.566
							l-0.479-1.069C101.4,30.139,100.562,28.397,97.375,28.397z"/>
					</g>
					<g>
						<g>
							<path fill="#F9A737" d="M58.198,41.08c-0.387,0-1.316-0.114-1.316,0.931c0,1.046-0.426,1.628-1.511,1.491
								c-1.723-0.232-1.626-4.396-1.626-7.416s-2.556-3.098-1.549-3.098c1.007,0,2.989-2.313,2.865-4.996
								c-0.181-3.924-5.848-3.717-5.848-3.717h-8.248c0,0-1.395,0.025-1.395,1.226c0,1.2,1.378,1.291,1.378,1.291h1.836v5.81
								c-2.71,0-2.052,2.903-0.387,2.729c0.168,0.001,0.357-0.009,0.555-0.024v7.035c-1.044,0.117-1.891,0.213-2.094,0.234
								c-0.547,0.061-0.951,0.312-0.823,1.552c0.13,1.239,1.317,0.981,1.317,0.981s6.02-0.498,7-0.756
								c0.98-0.26,0.668-2.679-0.523-2.553c-0.418,0.044-1.336,0.146-2.372,0.262v-7.14c1.551-0.293,3.178-0.632,4.157-0.598
								c0.761,0.026,1.041,0.458,1.178,0.774c0.643,1.488,0.597,5.047,0.629,6.483c0.038,1.743,0.735,4.802,4.221,4.802
								s3.795-3.137,3.795-4.104S58.585,41.08,58.198,41.08z M45.458,32.32v-5.625c0,0,6.815-0.665,6.815,1.724
								C52.273,31.582,45.458,32.32,45.458,32.32z"/>
						</g>
						<g>
							<path fill="#F9A737" d="M55.642,46.637c-4.045,0-4.445-3.861-4.471-5.046c-0.004-0.184-0.008-0.403-0.011-0.647
								c-0.02-1.568-0.058-4.489-0.598-5.741c-0.12-0.279-0.338-0.604-0.957-0.624l-0.134-0.002c-0.854,0-2.179,0.253-3.46,0.499
								l-0.305,0.058v6.653c0.921-0.103,1.716-0.19,2.096-0.229c0.803-0.084,1.266,0.678,1.362,1.43
								c0.088,0.682-0.109,1.443-0.749,1.611c-0.988,0.26-6.778,0.741-7.042,0.764h0.001c0.009,0-0.11,0.022-0.273,0.022
								c-0.743,0-1.234-0.459-1.314-1.228c-0.122-1.17,0.2-1.732,1.044-1.826l1.871-0.21v-6.545
								c-0.096,0.005-0.188,0.008-0.273,0.008c-0.063,0.005-0.119,0.007-0.174,0.007c-0.961,0-1.557-0.842-1.557-1.623
								c0-0.701,0.487-1.518,1.836-1.605v-5.316h-1.586c-0.574-0.037-1.628-0.406-1.628-1.541c0-1.144,1.073-1.466,1.64-1.476h8.252
								c0.001,0,0.055-0.002,0.146-0.002c0.964,0,5.779,0.191,5.953,3.958c0.087,1.889-0.8,3.522-1.659,4.422
								c-0.343,0.359-0.688,0.611-1.004,0.738c0.895,0.647,1.347,1.637,1.347,2.943l-0.001,0.461
								c-0.004,2.75-0.01,6.518,1.411,6.707c0.091,0.014,0.179,0.02,0.262,0.02c0.449,0,0.965-0.146,0.965-1.262
								c0-0.785,0.442-1.186,1.314-1.186l0.252,0.003c0.599,0,1.489,0.387,1.489,1.453C59.687,43.01,59.492,46.637,55.642,46.637z
								 M49.472,34.074c0.052,0,0.103,0.001,0.151,0.002c0.674,0.023,1.144,0.335,1.398,0.926c0.58,1.346,0.617,4.217,0.639,5.934
								c0.003,0.244,0.006,0.461,0.011,0.646c0.029,1.37,0.478,4.558,3.971,4.558c3.289,0,3.545-2.949,3.545-3.854
								c0-0.942-0.979-0.953-0.989-0.953l-0.252-0.003c-0.503,0-0.814,0.113-0.814,0.686c0,1.454-0.797,1.762-1.465,1.762
								c-0.103,0-0.211-0.008-0.326-0.021c-1.857-0.25-1.852-3.945-1.847-7.204l0.001-0.46c0-1.979-1.154-2.584-1.533-2.783
								c-0.117-0.061-0.294-0.154-0.243-0.355c0.051-0.208,0.239-0.208,0.478-0.208c0.215,0,0.615-0.181,1.095-0.683
								c0.751-0.787,1.601-2.319,1.521-4.053c-0.152-3.313-4.569-3.481-5.453-3.481l-0.136,0.002h-8.257
								c-0.112,0.003-1.145,0.054-1.145,0.976c0,0.955,1.098,1.039,1.145,1.042h2.069v6.309h-0.25c-1.169,0-1.586,0.576-1.586,1.115
								c0,0.572,0.455,1.192,1.174,1.117l0.013-0.001h0.044c0.154,0,0.325-0.01,0.504-0.024l0.27-0.021v7.53l-2.316,0.26
								c-0.323,0.036-0.726,0.08-0.602,1.277c0.054,0.517,0.329,0.777,0.817,0.777c0.116,0,0.198-0.017,0.199-0.017
								c0.091-0.011,6.04-0.504,6.988-0.753c0.329-0.086,0.44-0.602,0.38-1.064c-0.064-0.505-0.344-1.047-0.813-0.996
								c-0.418,0.045-1.336,0.146-2.371,0.262L45.21,42.35v-7.625l0.711-0.137C47.222,34.333,48.572,34.074,49.472,34.074z
								 M45.208,32.6v-6.132l0.226-0.021c0.036-0.004,0.896-0.086,2.016-0.086c3.319,0,5.074,0.712,5.074,2.059
								c0,3.349-6.751,4.119-7.039,4.15L45.208,32.6z M45.708,26.925v5.11c1.252-0.179,6.315-1.06,6.315-3.617
								c0-1.407-3.199-1.559-4.574-1.559C46.686,26.86,46.035,26.901,45.708,26.925z"/>
						</g>
					</g>
					<g>
						<g>
							<path fill="#F9A737" d="M77.532,36.42c-0.374-0.804-0.926-1.07-1.242-0.923c-0.126,0.06-1.272,0.593-2.598,1.211
								L67.11,22.001c0-0.011,0.001-0.02,0.001-0.031c-0.003-0.925-0.354-1.419-0.668-1.419c-0.315,0.001-6.924,0.022-6.924,0.022
								s-0.804,0.137-0.799,1.424c0.004,1.286,0.599,1.418,0.599,1.418s2.571-0.008,4.649-0.015l-2.717,14.106
								c-2.079,0-4.37,0-4.37,0s-0.891,0.128-0.891,1.361c0,1.232,0.658,1.361,0.658,1.361s7.765,0,8.017,0
								c0.251,0,0.619-0.476,0.619-1.361c0-0.887-0.387-1.361-0.735-1.361c-0.065,0-0.371,0-0.827,0l0.398-1.613l5.613-0.975
								l1.396,2.982c-1.023,0.478-1.79,0.836-1.79,0.836s-0.753,0.492-0.231,1.608c0.521,1.118,1.172,0.956,1.172,0.956
								s7.037-3.279,7.266-3.388C77.774,37.811,77.907,37.225,77.532,36.42z M64.729,33.427l1.486-6.027l2.653,5.668L64.729,33.427z
								"/>
						</g>
						<g>
							<path fill="#F9A737" d="M70.191,41.562c-0.238,0-0.843-0.107-1.309-1.108c-0.484-1.039-0.002-1.713,0.321-1.925l1.595-0.747
								l-1.21-2.584l-5.264,0.913l-0.282,1.146h0.507c0.489,0,0.985,0.554,0.985,1.611c0,1.009-0.441,1.612-0.869,1.612h-8.017
								c-0.083-0.014-0.908-0.189-0.908-1.612c0-1.146,0.723-1.554,1.104-1.609l4.2-0.002l2.62-13.605l-4.374,0.014l-0.026-0.006
								c-0.081-0.018-0.791-0.217-0.795-1.662c-0.006-1.481,0.965-1.664,1.007-1.671l6.965-0.025c0.452,0,0.91,0.566,0.919,1.648
								l6.455,14.425l2.368-1.104c0.089-0.041,0.186-0.062,0.288-0.062c0.373,0,0.906,0.291,1.286,1.105
								c0.427,0.914,0.281,1.646-0.106,1.828l-7.266,3.389C70.326,41.55,70.272,41.562,70.191,41.562z M69.879,34.641l1.583,3.383
								l-2.017,0.94c-0.024,0.021-0.521,0.397-0.11,1.278c0.377,0.808,0.785,0.824,0.873,0.818l7.232-3.371
								c0.059-0.047,0.189-0.467-0.136-1.164c-0.298-0.641-0.729-0.885-0.91-0.803l-2.827,1.318l-6.707-15.04
								c-0.002-0.853-0.299-1.2-0.417-1.2l-6.923,0.022c0.021,0-0.554,0.132-0.55,1.173c0.002,0.904,0.313,1.126,0.395,1.169
								l4.906-0.016l-2.813,14.607h-4.577c-0.031,0.01-0.641,0.141-0.641,1.111c0,0.885,0.358,1.078,0.444,1.111h7.98
								c0.073-0.019,0.369-0.343,0.369-1.111c0-0.776-0.321-1.111-0.485-1.111h-1.146l0.514-2.082L69.879,34.641z M64.403,33.707
								l1.739-7.053l3.104,6.634L64.403,33.707z M66.289,28.147l-1.233,5.001l3.436-0.297L66.289,28.147z"/>
						</g>
					</g>
					<g>
						<path fill="#F9A737" d="M90.766,23.32l-16.2,0.307c-1.423,0.027-1.077,1.674-1.077,1.674s0.741,5.48,0.909,6.216
							c0.168,0.735,0.568,1.045,1.73,0.928c1.161-0.115,0.852-1.2,0.852-1.2l-0.504-5.034l5.073-0.169v16.435h-2.446
							c-0.737,0-1.336,0.599-1.336,1.336s0.599,1.336,1.336,1.336h7.5c0.738,0,1.336-0.599,1.336-1.336s-0.598-1.336-1.336-1.336
							h-2.118L84.312,25.95l4.943-0.165c0,0,0.014,3.001,0.014,3.621c0,0.62,0.711,0.88,1.383,0.876
							c0.812-0.005,1.296-0.431,1.303-0.715c0.006-0.284,0.09-2.324,0.09-4.441C92.044,23.191,90.766,23.32,90.766,23.32z"/>
						<path fill="#F9A737" d="M86.603,45.398h-7.5c-0.875,0-1.586-0.711-1.586-1.586s0.711-1.586,1.586-1.586h2.196V26.301
							l-4.548,0.152l0.478,4.768l0,0c0.003,0,0.149,0.553-0.148,0.991c-0.188,0.278-0.501,0.44-0.928,0.483
							c-0.167,0.017-0.319,0.025-0.459,0.025c-0.896,0-1.356-0.345-1.54-1.147c-0.168-0.738-0.883-6.014-0.913-6.238
							c-0.005-0.02-0.187-0.918,0.274-1.497c0.237-0.297,0.589-0.453,1.046-0.461l16.254-0.309c0.248,0,1.479,0.1,1.479,2.059
							c0,1.75-0.058,3.43-0.081,4.148l-0.009,0.299c-0.011,0.458-0.638,0.954-1.552,0.959c-0.821,0-1.634-0.348-1.634-1.126
							c0-0.508-0.009-2.622-0.012-3.362l-4.443,0.148l0.168,16.034h1.871c0.875,0,1.586,0.711,1.586,1.586
							C88.189,44.688,87.478,45.398,86.603,45.398z M79.103,42.727c-0.599,0-1.086,0.486-1.086,1.086s0.487,1.086,1.086,1.086h7.5
							c0.599,0,1.086-0.487,1.086-1.086s-0.487-1.086-1.086-1.086h-2.365L84.06,25.708l5.445-0.181v0.257
							c0,0,0.014,3.002,0.014,3.622c0,0.495,0.702,0.626,1.117,0.626c0.734-0.004,1.065-0.375,1.068-0.471l0.01-0.304
							c0.022-0.715,0.08-2.389,0.08-4.131c0-1.447-0.75-1.559-0.979-1.559l-16.244,0.309c-0.305,0.006-0.522,0.095-0.664,0.272
							c-0.313,0.393-0.175,1.095-0.173,1.102c0.01,0.072,0.744,5.494,0.908,6.211c0.112,0.492,0.313,0.759,1.052,0.759
							c0.124,0,0.26-0.008,0.409-0.021c0.272-0.027,0.462-0.117,0.564-0.267c0.17-0.251,0.073-0.613,0.072-0.617L76.2,25.97
							l5.599-0.186v16.942H79.103L79.103,42.727z"/>
					</g>
					<g>
						<path fill="#F9A737" d="M123.193,44.178l-1.534,0.2l-0.248-20.645h1.987c0.6,0,1.084-0.555,1.084-1.239
							c0-0.684-0.484-1.239-1.084-1.239h-6.608c-0.601,0-1.085,0.555-1.085,1.239c0,0.685,0.484,1.239,1.085,1.239h2.054
							l0.022,8.583l-7.511,1.468l0.082-7.882h2.149c0.601,0,1.084-0.485,1.084-1.084s-0.483-1.084-1.084-1.084h-6.608
							c-0.6,0-1.084,0.486-1.084,1.084s0.484,1.084,1.084,1.084h1.948v16.857l-2.143,0.025c-0.608,0.008-1.097,0.567-1.087,1.252
							c0.008,0.685,0.508,1.233,1.115,1.228l6.719-0.082c0.607-0.007,1.097-0.566,1.089-1.252c-0.011-0.685-0.511-1.231-1.117-1.226
							l-2.245,0.026l0.066-6.229l7.548-1.457l0.024,9.694l-2.369,0.31c-0.604,0.079-1.021,0.693-0.932,1.372
							c0.088,0.68,0.649,1.165,1.252,1.086l6.662-0.871c0.604-0.078,1.021-0.691,0.934-1.371
							C124.357,44.585,123.796,44.1,123.193,44.178z"/>
						<path fill="#F9A737" d="M116.723,47.764L116.723,47.764c-0.685,0-1.272-0.562-1.373-1.312
							c-0.104-0.813,0.409-1.556,1.148-1.652l2.148-0.28l-0.022-9.172l-7.051,1.359l-0.062,5.77l1.987-0.022
							c0.752,0,1.358,0.661,1.37,1.473c0.009,0.821-0.592,1.496-1.336,1.507l-6.719,0.08c-0.752,0-1.358-0.66-1.369-1.474
							c-0.01-0.821,0.59-1.496,1.334-1.505l1.896-0.021V26.153h-1.697c-0.735,0-1.334-0.598-1.334-1.334
							c0-0.736,0.599-1.334,1.334-1.334h6.607c0.734,0,1.334,0.599,1.334,1.334c0,0.735-0.6,1.334-1.334,1.334h-1.902l-0.076,7.33
							l7.006-1.371l-0.021-8.126h-1.805c-0.735,0-1.335-0.668-1.335-1.489c0-0.821,0.6-1.489,1.335-1.489h6.607
							c0.735,0,1.334,0.668,1.334,1.489c0,0.821-0.599,1.489-1.334,1.489h-1.733l0.241,20.111l1.256-0.164
							c0.744-0.097,1.428,0.495,1.531,1.301c0.053,0.391-0.037,0.774-0.246,1.084c-0.217,0.318-0.536,0.521-0.899,0.568
							l-6.662,0.871C116.83,47.761,116.777,47.764,116.723,47.764z M119.123,34.742l0.027,10.216l-2.588,0.338
							c-0.465,0.062-0.787,0.552-0.717,1.091c0.064,0.5,0.441,0.877,0.877,0.877l0,0c0.031,0,0.062-0.003,0.098-0.007l6.66-0.871
							c0.222-0.028,0.418-0.153,0.553-0.354c0.142-0.208,0.199-0.47,0.165-0.737c-0.07-0.537-0.498-0.934-0.974-0.871l-1.812,0.236
							l-0.254-21.179h2.24c0.461,0,0.834-0.444,0.834-0.989s-0.373-0.989-0.834-0.989h-6.608c-0.46,0-0.835,0.444-0.835,0.989
							s0.375,0.989,0.835,0.989h2.303l0.024,9.039l-8.016,1.566l0.09-8.437h2.396c0.46,0,0.834-0.374,0.834-0.834
							s-0.374-0.834-0.834-0.834h-6.608c-0.459,0-0.834,0.375-0.834,0.834s0.375,0.834,0.834,0.834h2.198v17.354l-2.39,0.028
							c-0.471,0.006-0.848,0.455-0.84,1c0.007,0.539,0.391,0.979,0.854,0.979l6.727-0.08c0.472-0.006,0.85-0.455,0.843-1
							c-0.009-0.539-0.392-0.979-0.854-0.979l-2.511,0.029l0.071-6.688L119.123,34.742z"/>
					</g>
					<g>
						<path fill="#F9A737" d="M143.211,14.606c-10.55,0-19.102,8.552-19.102,19.101s8.552,19.102,19.102,19.102
							c10.549,0,19.102-8.553,19.102-19.102S153.76,14.606,143.211,14.606z M153.064,34.236c0.918,0.669,2.517,2.271,2.517,4.729
							c0,3.278-3.435,4.362-3.435,4.362l-3.52,0.245c-1.001,0-3.009,0.033-4.957-0.756c-0.161-0.063-0.721,0.07-0.839,0.205
							c-4.13,4.722-8.011,4.281-8.011,4.281c-2.221,0-6.557-2.66-6.479-6.765s2.506-4.726,4.57-4.802
							c1.291-0.049,1.996,0.428,2.344,0.791c0.209,0.219,0.402,0.432,0.451-0.135c0.036-0.41,0.038-1.135-0.061-2.412
							c-0.23-3.046-1.031-3.771-1.031-3.771c-0.854-0.517-3.461-0.774-2.943-5.783c0.58-5.61,5.424-6.196,5.424-6.196
							c5.579-0.448,6.135,3.728,6.135,5.203c0,0.477,0.484,0.485,0.484,0.485l10.121-0.369c1.938,0,5.309,2.143,5.309,5.783
							c0,4.337-4.104,4.664-5.888,4.604C152.717,33.922,152.757,34.014,153.064,34.236z"/>
					</g>
				</g>
			</g>
			<path fill="#28A5DA" d="M164.184,27.34c0,0,1.621,4.747,0.611,10.161s-2.482,0.159-2.482,0.159l0.692-7.223L164.184,27.34z"/>
		</g>
	</g>
</g>
<g>
	<path opacity="0.3" fill="#333333" d="M185.683,58c-1.792,0-3.646-1.183-3.646-3.16V38.357h-1.192
		c-0.975,0-1.844-0.419-2.384-1.149c-0.543-0.736-0.688-1.697-0.399-2.638l3.771-12.277c0.441-1.435,1.829-2.552,3.347-2.759V17.31
		c0-2.287,1.578-3.31,3.143-3.31h6.286c1.564,0,3.143,1.023,3.143,3.31v2.19h17.568c1.701,0,3.355,1.211,3.85,2.816l3.771,12.227
		c0.292,0.947,0.145,1.916-0.404,2.66c-0.542,0.733-1.408,1.154-2.378,1.154h-1.192V54.84c0,1.978-1.854,3.16-3.646,3.16H185.683z"
		/>
	<g>
		<path fill="#966020" d="M185.707,17.97"/>
		<path fill="#FFFFFF" d="M182.683,55c-1.792,0-3.646-1.183-3.646-3.16V35.357h-1.192c-0.975,0-1.844-0.42-2.384-1.15
			c-0.543-0.735-0.688-1.696-0.399-2.637l3.771-12.277c0.441-1.435,1.829-2.552,3.347-2.759V14.31c0-2.287,1.578-3.31,3.143-3.31
			h6.286c1.564,0,3.143,1.023,3.143,3.31v2.19h17.568c1.701,0,3.355,1.211,3.85,2.816l3.771,12.227
			c0.291,0.947,0.144,1.916-0.405,2.66c-0.542,0.733-1.408,1.154-2.378,1.154h-1.191V51.84c0,1.978-1.854,3.16-3.646,3.16H182.683z"
			/>
		<path fill="#966020" d="M218.438,32.006l-3.772-12.228c-0.293-0.954-1.35-1.707-2.347-1.707h-17.54h-1.6V14.31
			c0-1.569-1.099-1.739-1.571-1.739h-6.286c-0.473,0-1.571,0.17-1.571,1.739v3.761h-1.067c-0.998,0-2.055,0.73-2.348,1.684
			l-3.772,12.276c-0.293,0.954,0.283,1.754,1.281,1.754h2.764c0,0,0,0.727,0,1.725v16.33c0,0.997,1.077,1.589,2.075,1.589h29.636
			c0.997,0,2.074-0.592,2.074-1.589V35.51c0-0.998,0-1.725,0-1.725h2.764C218.154,33.785,218.731,32.96,218.438,32.006z"/>
		<path fill="#F9A737" d="M192.393,14.31c0-0.315,0-0.953-0.785-0.953h-6.286c-0.785,0-0.785,0.638-0.785,0.953v9.739
			c0,0.316,0,0.308,0,0.308h7.856c0,0,0,0.009,0-0.308V14.31z"/>
		<path fill="#F9A737" d="M182.683,52.643c-0.61,0-1.29-0.33-1.29-0.803V33h-3.549c-0.222,0-0.396-0.068-0.487-0.193
			c-0.096-0.129-0.11-0.322-0.042-0.544l3.771-12.277c0.188-0.611,0.919-1.129,1.597-1.129h29.636c0.662,0,1.408,0.538,1.596,1.151
			l3.772,12.23c0.07,0.227,0.053,0.428-0.049,0.564C217.543,32.93,217.372,33,217.156,33h-3.549v18.84
			c0,0.473-0.68,0.803-1.289,0.803H182.683z"/>
		<path fill="#966020" d="M202.641,43.675c0-2.835-2.307-5.141-5.141-5.141s-5.141,2.306-5.141,5.141
			c0,0.193,0.013,0.384,0.033,0.571v9.183h10.215v-9.183C202.628,44.059,202.641,43.868,202.641,43.675z"/>
		<path fill="#FFFFFF" d="M193.179,52.643v-8.439l-0.005-0.043c-0.018-0.16-0.029-0.321-0.029-0.485
			c0-2.401,1.954-4.355,4.355-4.355s4.355,1.954,4.355,4.355c0,0.164-0.012,0.325-0.029,0.485l-0.005,0.086v8.396H193.179z"/>
	</g>
</g>
</svg>
