<svg version="1.1" width="1024" height="1024" viewBox="-1 -1 1024 1024" xmlns="http://www.w3.org/2000/svg" xmlns:xlink="http://www.w3.org/1999/xlink">
  <!-- Exported by Scratch - http://scratch.mit.edu/ -->
  <path id="ID0.3673917446285486" fill="#2DAAE1" stroke="#2DAAE1" d="M 86 66 L 408 66 L 408 341 L 86 341 L 86 66 Z " transform="matrix(0.6966069936752319, 0, 0, 0.7461435198783875, -58.85, -48.25)"/>
  <g id="ID0.9443638608790934" transform="matrix(1, 0, 0, 1, -130, -73)">
    <path id="ID0.22174469847232103" fill="#FFFFFF" d="M 97.766 165.484 C 77.061 165.484 62.818 166.976 47.762 154.755 C 45.202 155.110 41.990 155.456 39.098 155.456 C 35.790 155.456 31.598 155.099 28.494 152.308 C 24.715 148.907 24.666 143.777 24.904 140.947 C 20.431 140.831 16.611 140.435 13.515 139.773 C 10.603 139.150 8.250 138.281 6.324 137.118 C 2.978 135.097 0.849 132.058 0.332 128.566 C -0.725 121.454 4.853 115.004 9.144 110.773 C 11.613 108.337 14.277 106.081 16.521 104.292 C 16.083 93.921 18.184 84.863 19.578 80.589 C 19.943 71.027 23.586 57.727 25.474 51.401 C 23.740 43.964 22.953 35.226 23.355 27.531 C 23.951 16.196 26.939 8.723 32.238 5.321 C 35.062 3.507 38.361 2.586 42.043 2.586 C 48.221 2.586 55.584 5.185 65.223 10.765 C 67.215 11.919 70 13.734 73.532 16.173 C 78.415 15.249 83.509 14.678 88.723 14.472 C 89.821 14.428 90.934 14.406 92.030 14.406 C 96.548 14.406 101.028 14.779 105.397 15.515 C 114.960 7.512 128.236 0.200 137.812 0.200 C 140.550 0.200 143.001 0.778 145.101 1.918 C 155.116 7.364 156.103 20.933 155.843 32.144 C 155.761 35.753 155.179 41.458 154.591 46.455 C 159.620 53.849 163.153 62.488 164.423 70.621 C 165.652 78.492 165.111 86.630 164.152 92.021 C 164.271 92.019 164.070 91.935 164.152 92.021 C 179.267 107.974 168.986 128.791 168.986 128.791 C 171.511 131.437 171.331 138.828 169.853 142.014 C 167.920 146.180 164.715 147.862 158.756 149.211 C 157.420 149.512 155.959 149.748 154.383 149.914 C 153.898 153.861 151.943 157.121 148.736 159.250 C 146.435 160.777 143.617 161.555 140.357 161.555 C 137.267 161.555 134.027 160.842 131.269 159.994 C 123.363 163.183 115.113 164.967 106.695 165.301 C 103.499 165.421 100.579 165.484 97.766 165.484 Z " transform="matrix(1, 0, 0, 1, 151, 94)"/>
    <path id="ID0.5965608642436564" fill="#F5A220" d="M 151.547 120.464 L 149.744 128.026 L 147.320 133.680 L 143.043 140.384 L 149.074 139.475 L 158.070 139.048 C 158.070 139.048 161.424 137.716 162.191 134.486 C 162.961 131.262 151.547 120.464 151.547 120.464 " transform="matrix(1, 0, 0, 1, 151, 94)"/>
    <path id="ID0.99999093497172" fill="#F5A220" d="M 143.671 140.663 C 143.671 140.663 147.775 148.601 144.029 151.087 C 140.292 153.570 130.251 149.113 130.251 149.113 " transform="matrix(1, 0, 0, 1, 151, 94)"/>
    <path id="ID0.08588646585121751" fill="#221E20" d="M 148.081 140.841 C 145.657 140.841 143.648 140.706 142.745 140.639 L 142.933 138.270 C 149.646 138.792 159.636 138.276 160.827 135.477 C 162.415 131.725 155.105 124.018 150.121 120.039 L 151.603 118.185 C 153.068 119.353 165.816 129.787 163.013 136.406 C 161.422 140.143 153.654 140.841 148.081 140.841 Z " transform="matrix(1, 0, 0, 1, 151, 94)"/>
    <path id="ID0.31772797694429755" fill="#221E20" d="M 140.443 152.163 C 135.906 152.163 130.209 149.716 129.386 149.351 L 130.349 147.181 C 134 148.797 140.666 150.785 142.992 149.243 C 145.322 147.695 143.172 142.171 142.234 140.355 L 144.345 139.263 C 144.814 140.173 148.802 148.236 144.304 151.220 C 143.283 151.904 141.922 152.163 140.443 152.163 Z " transform="matrix(1, 0, 0, 1, 151, 94)"/>
    <path id="ID0.17783544678241014" fill="#F5A220" d="M 145.096 46.770 C 145.658 42.281 146.614 34.129 146.709 29.848 C 146.963 18.849 145.596 10.634 140.850 8.053 C 135.653 5.227 118.955 13.303 108.354 23.508 L 108.149 23.473 C 102.315 22.115 96.020 21.470 89.302 21.734 C 82.431 22.005 76.573 22.935 71.812 24.057 L 71.702 24.078 C 67.987 21.449 63.560 18.405 60.751 16.777 C 50.659 10.935 42.323 8.017 37.505 11.110 C 32.206 14.513 31.210 34.300 35.352 49.381 L 35.397 49.560 C 35.397 49.560 29.117 69.337 29.117 80.007 C 29.117 80.007 20.654 107.459 36.779 129.250 C 54.580 153.312 79.197 156.162 106.830 155.070 C 134.461 153.974 157.976 132.806 159.070 116.119 C 160.163 99.431 153.658 93.566 153.658 93.566 C 153.658 93.566 157.138 81.114 155.404 69.980 C 154.287 62.808 150.800 54.185 145.039 46.837 L 145.096 46.770 Z " transform="matrix(1, 0, 0, 1, 151, 94)"/>
    <path id="ID0.09408470336347818" fill="#FFFFFF" d="M 143.154 82.869 C 143.154 95.298 138.011 105.372 131.672 105.372 C 125.333 105.372 120.193 95.298 120.193 82.869 C 120.193 70.441 125.334 60.365 131.672 60.365 C 138.014 60.365 143.154 70.441 143.154 82.869 " transform="matrix(1, 0, 0, 1, 151, 94)"/>
    <path id="ID0.4876892319880426" fill="#FFFFFF" d="M 94.408 86.419 C 94.408 101.143 88.557 113.079 81.340 113.079 C 74.123 113.079 68.272 101.141 68.272 86.419 C 68.272 71.692 74.125 59.757 81.340 59.757 C 88.557 59.757 94.408 71.695 94.408 86.419 " transform="matrix(1, 0, 0, 1, 151, 94)"/>
    <path id="ID0.47151377191767097" fill="#FFFFFF" d="M 51.445 41.019 C 57.094 37.124 63.272 33.853 69.781 31.511 L 69.990 31.428 C 69.990 31.428 63.854 26.356 59.781 23.790 C 56.270 21.583 52.475 19.030 50.143 20.405 C 46.553 22.526 47.305 35.550 51.292 40.814 L 51.445 41.019 Z " transform="matrix(1, 0, 0, 1, 151, 94)"/>
    <path id="ID0.8538821758702397" fill="#FFFFFF" d="M 138.718 44.083 C 133.813 39.732 128.276 36.085 122.461 33.163 L 122.527 32.968 C 125.048 27.274 135.506 20.714 138.894 22.724 C 141.091 24.027 140.705 28.326 140.466 32.228 C 140.226 36.271 139.076 42.574 138.830 43.891 L 138.718 44.083 Z " transform="matrix(1, 0, 0, 1, 151, 94)"/>
    <path id="ID0.27465314231812954" fill="#221E20" d="M 125.730 84.484 C 125.730 91.151 127.658 96.557 130.035 96.557 C 132.408 96.557 134.334 91.151 134.334 84.484 C 134.334 77.820 132.408 72.416 130.035 72.416 C 127.658 72.416 125.730 77.820 125.730 84.484 " transform="matrix(1, 0, 0, 1, 151, 94)"/>
    <path id="ID0.7428513146005571" fill="#221E20" d="M 74.611 85.064 C 74.611 91.731 76.537 97.137 78.912 97.137 C 81.287 97.137 83.213 91.733 83.213 85.064 C 83.213 78.400 81.287 72.998 78.912 72.998 C 76.537 72.998 74.611 78.400 74.611 85.064 " transform="matrix(1, 0, 0, 1, 151, 94)"/>
    <path id="ID0.015474120154976845" fill="#FFFFFF" d="M 104.979 153.855 C 104.979 153.855 82.013 153.437 71.989 147.591 C 61.968 141.743 51.946 135.689 52.364 117.316 C 52.782 98.945 73.228 95.870 86.605 96.437 C 96.418 96.853 108.109 101.452 108.109 101.452 C 108.109 101.452 123.560 94.558 136.922 94.767 C 150.282 94.974 159.679 100.825 159.470 115.019 C 159.261 129.218 142.769 141.540 135.460 145.503 C 128.154 149.473 121.057 153.229 104.979 153.855 " transform="matrix(1, 0, 0, 1, 151, 94)"/>
    <path id="ID0.400238336995244" fill="#F5A220" d="M 28.399 106.432 L 21.621 111.762 C 21.621 111.762 8.500 121.288 10.084 126.315 C 11.672 131.341 21.647 130.464 21.647 130.464 L 35.751 130.524 L 37.063 130.452 C 37.063 130.452 32.993 142.507 35.251 144.475 C 37.515 146.450 46.999 144.475 46.999 144.475 L 53.241 143.579 L 47.999 130.700 L 28.399 106.432 Z " transform="matrix(1, 0, 0, 1, 151, 94)"/>
    <path id="ID0.9431336130946875" fill="#221E20" d="M 112.020 92.893 C 105.125 92.893 98.473 92.663 98.473 97.716 C 98.473 102.768 103.752 108.971 109.727 108.971 C 116.619 108.971 121.207 101.159 120.520 97.489 C 119.829 93.811 115.925 92.893 112.020 92.893 " transform="matrix(1, 0, 0, 1, 151, 94)"/>
    <path id="ID0.027377928607165813" fill="#221E20" d="M 71.954 26.072 L 71.409 23.760 C 76.993 22.442 82.954 21.651 89.126 21.406 C 95.691 21.144 102.137 21.742 108.287 23.174 L 107.748 25.488 C 101.805 24.103 95.572 23.531 89.222 23.779 C 83.201 24.017 77.391 24.789 71.954 26.072 Z " transform="matrix(1, 0, 0, 1, 151, 94)"/>
    <path id="ID0.0022553838789463043" fill="#221E20" d="M 50.676 42.953 C 47.280 39.123 45.907 30.781 46.756 25.392 C 47.169 22.769 48.063 21.037 49.407 20.242 C 52.245 18.564 56.054 20.973 59.739 23.303 L 60.280 23.645 C 64.374 26.219 70.362 31.163 70.614 31.372 L 69.100 33.203 C 69.038 33.152 62.977 28.148 59.014 25.654 L 58.469 25.311 C 55.676 23.546 52.200 21.351 50.615 22.289 C 49.949 22.683 49.386 23.980 49.102 25.765 C 48.356 30.508 49.628 38.194 52.453 41.380 L 50.676 42.953 Z " transform="matrix(1, 0, 0, 1, 151, 94)"/>
    <path id="ID0.9127900754101574" fill="#221E20" d="M 50.422 43.961 L 49.030 42.034 C 56.405 36.704 64.232 32.730 72.299 30.227 L 73.001 32.497 C 65.186 34.925 57.588 38.783 50.422 43.961 Z " transform="matrix(1, 0, 0, 1, 151, 94)"/>
    <path id="ID0.8717102156952024" fill="#221E20" d="M 145.732 50.945 L 143.378 50.630 C 143.399 50.490 145.251 36.651 145.394 30.681 C 145.665 18.802 143.954 12.024 140.152 9.956 C 135.378 7.364 116.851 16.325 106.536 27.819 L 104.767 26.232 C 114.620 15.254 134.478 4.169 141.288 7.869 C 146.012 10.437 148.068 17.703 147.769 30.735 C 147.626 36.835 145.812 50.373 145.732 50.945 Z " transform="matrix(1, 0, 0, 1, 151, 94)"/>
    <path id="ID0.12931570503860712" fill="#221E20" d="M 139.826 45.218 L 137.492 44.773 C 137.506 44.699 138.888 37.419 139.156 33.015 L 139.189 32.424 C 139.382 29.325 139.625 25.472 138.162 24.605 C 137.553 24.244 136.240 24.367 134.654 24.937 C 130.408 26.467 124.652 30.990 123.304 34.751 L 121.070 33.950 C 122.701 29.387 128.996 24.450 133.847 22.700 C 136.226 21.844 138.084 21.796 139.371 22.559 C 142.082 24.166 141.815 28.439 141.559 32.571 L 141.522 33.157 C 141.253 37.714 139.884 44.914 139.826 45.218 Z " transform="matrix(1, 0, 0, 1, 151, 94)"/>
    <path id="ID0.4400690821930766" fill="#221E20" d="M 139.865 47.740 C 134.310 42.382 127.679 37.852 120.154 34.281 L 121.175 32.135 C 128.936 35.817 135.779 40.492 141.516 46.030 L 139.865 47.740 Z " transform="matrix(1, 0, 0, 1, 151, 94)"/>
    <path id="ID0.5797823136672378" fill="#221E20" d="M 109.958 132.859 C 109.298 132.859 108.620 132.838 107.928 132.790 C 90.749 131.644 85.678 115.014 85.626 114.846 L 87.907 114.175 C 88.089 114.794 92.585 129.391 108.081 130.423 C 123.616 131.460 129.200 119.389 129.255 119.266 L 131.427 120.235 C 131.367 120.363 125.598 132.859 109.958 132.859 Z " transform="matrix(1, 0, 0, 1, 151, 94)"/>
    <path id="ID0.23746799118816853" fill="#221E20" d="M 97.852 156.102 C 82.831 156.102 64.264 154.243 49.479 145.024 C 45.904 145.637 36.294 147.053 34.039 145.022 C 32.033 143.216 33.582 136.303 35.015 131.405 C 27.252 131.829 9.379 132.139 8.494 126.155 C 7.607 120.184 21.097 109.790 25.093 106.856 C 23.705 95.204 26.490 84.126 27.797 80.851 C 27.804 70.751 33.179 53.121 34.029 50.393 C 30.096 35.915 30.559 14.933 36.731 10.970 C 41.502 7.907 49.283 9.699 61.215 16.609 C 66.811 19.850 78.460 28.440 78.954 28.804 L 77.542 30.716 C 77.424 30.627 65.506 21.839 60.021 18.663 C 49.095 12.340 41.896 10.475 38.011 12.969 C 33.632 15.780 32.046 34.207 36.362 49.927 L 36.499 50.451 L 36.395 50.779 C 36.333 50.973 30.167 70.504 30.167 80.865 L 30.167 81.076 L 30.096 81.274 C 30.051 81.395 25.704 93.540 27.533 107.245 L 27.627 107.950 L 27.052 108.366 C 20.489 113.099 10.281 122.023 10.844 125.804 C 11.284 128.779 24.538 129.742 36.566 128.927 L 38.298 128.810 L 37.777 130.468 C 35.932 136.361 34.936 142.345 35.643 143.275 C 36.524 144.062 43.014 143.756 49.516 142.605 L 49.969 142.525 L 50.361 142.771 C 67.615 153.736 90.584 154.172 106.361 153.545 C 133.564 152.468 156.716 132.615 157.750 116.899 C 158.783 101.104 152.781 95.356 152.723 95.299 L 152.190 94.807 L 152.378 94.102 C 152.413 93.979 155.773 81.762 154.099 71.019 C 152.900 63.337 149.208 55.103 143.972 48.427 L 145.839 46.960 C 151.319 53.945 155.187 62.580 156.444 70.652 C 157.991 80.585 155.540 91.329 154.840 94.085 C 156.444 95.934 161.069 102.583 160.120 117.053 C 159.004 134.083 135.315 154.774 106.455 155.913 C 103.771 156.027 100.884 156.102 97.852 156.102 Z " transform="matrix(1, 0, 0, 1, 151, 94)"/>
    <path id="ID0.04116018954664469" fill="#221E20" d="M 147.372 107.971 L 145.816 106.171 C 146.226 105.817 156.003 97.483 167.336 99.190 L 166.982 101.542 C 156.753 100.003 147.464 107.891 147.372 107.971 Z " transform="matrix(1, 0, 0, 1, 151, 94)"/>
    <path id="ID0.42834815103560686" fill="#221E20" d="M 167.520 120.630 C 158.291 115.818 149.233 118.954 149.143 118.986 L 148.338 116.753 C 148.744 116.607 158.438 113.221 168.613 118.524 L 167.520 120.630 Z " transform="matrix(1, 0, 0, 1, 151, 94)"/>
    <path id="ID0.0920197437517345" fill="#221E20" d="M 67.057 110.570 C 66.919 110.462 53.174 99.624 37.117 105.841 L 36.261 103.624 C 53.621 96.901 67.949 108.235 68.552 108.722 L 67.057 110.570 Z " transform="matrix(1, 0, 0, 1, 151, 94)"/>
    <path id="ID0.8365822797641158" fill="#221E20" d="M 37.833 125.954 L 36.638 123.900 C 50.027 116.089 64.790 120.327 65.411 120.511 L 64.737 122.790 C 64.592 122.751 50.315 118.673 37.833 125.954 Z " transform="matrix(1, 0, 0, 1, 151, 94)"/>
  </g>
</svg>