<?xml version="1.0" encoding="utf-8"?>
<!-- Generator: Adobe Illustrator 15.0.0, SVG Export Plug-In . SVG Version: 6.00 Build 0)  -->
<!DOCTYPE svg PUBLIC "-//W3C//DTD SVG 1.1//EN" "http://www.w3.org/Graphics/SVG/1.1/DTD/svg11.dtd">
<svg version="1.1" id="Layer_2" xmlns="http://www.w3.org/2000/svg" xmlns:xlink="http://www.w3.org/1999/xlink" x="0px" y="0px"
	 width="178px" height="172px" viewBox="0 0 178 172" enable-background="new 0 0 178 172" xml:space="preserve">
<g id="Layer_2_1_">
	<g id="Cat">
		<path opacity="0.25" fill="#333333" enable-background="new    " d="M101.766,171.484c-20.705,0-34.948,1.492-50.004-10.729
			c-2.56,0.355-5.772,0.701-8.664,0.701c-3.308,0-7.5-0.357-10.604-3.148c-3.779-3.401-3.828-8.531-3.59-11.361
			c-4.473-0.116-8.293-0.512-11.389-1.174c-2.912-0.623-5.265-1.492-7.191-2.655c-3.346-2.021-5.475-5.06-5.992-8.552
			c-1.057-7.112,4.521-13.562,8.812-17.793c2.469-2.436,5.133-4.692,7.377-6.481c-0.438-10.371,1.662-19.431,3.057-23.703
			c0.365-9.562,4.008-22.862,5.896-29.188c-1.734-7.437-2.521-16.175-2.119-23.87c0.596-11.336,3.584-18.808,8.883-22.21
			c2.824-1.814,6.123-2.735,9.805-2.735c6.178,0,13.541,2.599,23.18,8.179c1.992,1.154,4.777,2.969,8.309,5.408
			c4.883-0.925,9.977-1.495,15.192-1.701c1.098-0.044,2.211-0.065,3.307-0.065c4.519,0,8.998,0.373,13.367,1.108
			C118.96,13.512,132.236,6.2,141.812,6.2c2.738,0,5.189,0.578,7.289,1.718c10.015,5.446,11,19.015,10.742,30.226
			c-0.082,3.609-0.664,9.314-1.252,14.311c5.028,7.394,8.562,16.033,9.832,24.166c1.229,7.871,0.688,16.009-0.271,21.4
			c0.119-0.002-0.082-0.086,0,0c15.115,15.953,4.834,36.77,4.834,36.77c2.525,2.646,2.345,10.037,0.867,13.223
			c-1.933,4.166-5.138,5.848-11.099,7.197c-1.334,0.301-2.795,0.537-4.371,0.703c-0.485,3.947-2.44,7.207-5.647,9.336
			c-2.301,1.527-5.119,2.305-8.379,2.305c-3.09,0-6.33-0.713-9.088-1.561c-7.906,3.189-16.156,4.973-24.574,5.307
			C107.499,171.421,104.579,171.484,101.766,171.484z"/>
		<path fill="#FFFFFF" d="M97.766,165.484c-20.705,0-34.948,1.492-50.004-10.729c-2.56,0.355-5.772,0.701-8.664,0.701
			c-3.308,0-7.5-0.357-10.604-3.148c-3.779-3.401-3.828-8.531-3.59-11.361c-4.473-0.116-8.293-0.512-11.389-1.174
			c-2.912-0.623-5.265-1.492-7.191-2.655c-3.346-2.021-5.475-5.06-5.992-8.552c-1.057-7.112,4.521-13.562,8.812-17.793
			c2.469-2.436,5.133-4.692,7.377-6.481c-0.438-10.371,1.663-19.429,3.057-23.703c0.365-9.562,4.008-22.862,5.896-29.188
			c-1.734-7.437-2.521-16.175-2.119-23.87c0.596-11.335,3.584-18.808,8.883-22.21c2.824-1.814,6.123-2.735,9.805-2.735
			c6.178,0,13.541,2.599,23.18,8.179c1.992,1.154,4.777,2.969,8.309,5.408c4.883-0.924,9.977-1.495,15.191-1.701
			c1.098-0.044,2.211-0.066,3.307-0.066c4.518,0,8.998,0.373,13.367,1.109C114.96,7.512,128.236,0.2,137.812,0.2
			c2.738,0,5.189,0.578,7.289,1.718c10.015,5.446,11.002,19.015,10.742,30.226c-0.082,3.609-0.664,9.314-1.252,14.311
			c5.029,7.394,8.562,16.033,9.832,24.166c1.229,7.871,0.688,16.009-0.271,21.4c0.119-0.002-0.082-0.086,0,0
			c15.115,15.953,4.834,36.77,4.834,36.77c2.525,2.646,2.345,10.037,0.867,13.223c-1.933,4.166-5.138,5.848-11.097,7.197
			c-1.336,0.301-2.797,0.537-4.373,0.703c-0.485,3.947-2.44,7.207-5.647,9.336c-2.301,1.527-5.119,2.305-8.379,2.305
			c-3.09,0-6.33-0.713-9.088-1.561c-7.906,3.189-16.156,4.973-24.574,5.307C103.499,165.421,100.579,165.484,97.766,165.484z"/>
		<path fill="#F5A220" d="M151.547,120.464l-1.803,7.562l-2.424,5.654l-4.277,6.704l6.031-0.909l8.996-0.427
			c0,0,3.354-1.332,4.121-4.562C162.961,131.262,151.547,120.464,151.547,120.464"/>
		<path fill="#F5A220" d="M143.671,140.663c0,0,4.104,7.938,0.358,10.424c-3.737,2.483-13.778-1.974-13.778-1.974"/>
		<path fill="#221E20" d="M148.081,140.841c-2.424,0-4.433-0.135-5.336-0.202l0.188-2.369c6.713,0.522,16.703,0.006,17.894-2.793
			c1.588-3.752-5.722-11.459-10.706-15.438l1.482-1.854c1.465,1.168,14.213,11.602,11.41,18.221
			C161.422,140.143,153.654,140.841,148.081,140.841z"/>
		<path fill="#221E20" d="M140.443,152.163c-4.537,0-10.234-2.447-11.057-2.812l0.963-2.17c3.651,1.616,10.317,3.604,12.643,2.062
			c2.33-1.548,0.18-7.072-0.758-8.888l2.111-1.092c0.469,0.91,4.457,8.973-0.041,11.957
			C143.283,151.904,141.922,152.163,140.443,152.163z"/>
		<path fill="#F5A220" d="M145.096,46.77c0.562-4.489,1.518-12.641,1.613-16.922c0.254-10.999-1.113-19.214-5.859-21.795
			c-5.197-2.826-21.895,5.25-32.496,15.455l-0.205-0.035c-5.834-1.358-12.129-2.003-18.847-1.739
			c-6.871,0.271-12.729,1.201-17.49,2.323l-0.11,0.021c-3.715-2.629-8.142-5.673-10.951-7.301
			c-10.092-5.842-18.428-8.76-23.246-5.667c-5.299,3.403-6.295,23.19-2.153,38.271l0.045,0.179c0,0-6.28,19.777-6.28,30.447
			c0,0-8.463,27.452,7.662,49.243c17.801,24.062,42.418,26.912,70.051,25.82c27.631-1.096,51.146-22.264,52.24-38.951
			c1.093-16.688-5.412-22.553-5.412-22.553s3.48-12.452,1.746-23.586c-1.117-7.172-4.604-15.795-10.365-23.143L145.096,46.77z"/>
		<path fill="#FFFFFF" d="M143.154,82.869c0,12.429-5.143,22.503-11.482,22.503s-11.479-10.074-11.479-22.503
			c0-12.428,5.141-22.504,11.479-22.504C138.014,60.365,143.154,70.441,143.154,82.869"/>
		<path fill="#FFFFFF" d="M94.408,86.419c0,14.724-5.851,26.66-13.068,26.66c-7.217,0-13.068-11.938-13.068-26.66
			c0-14.727,5.853-26.662,13.068-26.662C88.557,59.757,94.408,71.695,94.408,86.419"/>
		<path fill="#FFFFFF" d="M51.445,41.019c5.649-3.895,11.827-7.166,18.336-9.508l0.209-0.083c0,0-6.136-5.072-10.209-7.638
			c-3.511-2.207-7.306-4.76-9.638-3.385c-3.59,2.121-2.838,15.145,1.149,20.409L51.445,41.019z"/>
		<path fill="#FFFFFF" d="M138.718,44.083c-4.905-4.351-10.442-7.998-16.257-10.92l0.066-0.195
			c2.521-5.694,12.979-12.254,16.367-10.244c2.197,1.303,1.811,5.602,1.572,9.504c-0.24,4.043-1.39,10.346-1.636,11.663
			L138.718,44.083z"/>
		<path fill="#221E20" d="M125.73,84.484c0,6.667,1.928,12.073,4.305,12.073c2.373,0,4.299-5.406,4.299-12.073
			c0-6.664-1.926-12.068-4.299-12.068C127.658,72.416,125.73,77.82,125.73,84.484"/>
		<path fill="#221E20" d="M74.611,85.064c0,6.667,1.926,12.073,4.301,12.073s4.301-5.404,4.301-12.073
			c0-6.664-1.926-12.066-4.301-12.066S74.611,78.4,74.611,85.064"/>
		<path fill="#FFFFFF" d="M104.979,153.855c0,0-22.966-0.418-32.99-6.264c-10.021-5.848-20.043-11.902-19.625-30.275
			c0.418-18.371,20.864-21.446,34.241-20.879c9.813,0.416,21.504,5.015,21.504,5.015s15.451-6.894,28.813-6.685
			c13.36,0.207,22.757,6.058,22.548,20.252c-0.209,14.199-16.701,26.521-24.01,30.484
			C128.154,149.473,121.057,153.229,104.979,153.855"/>
		<path fill="#F5A220" d="M28.399,106.432l-6.778,5.33c0,0-13.121,9.526-11.537,14.553c1.588,5.026,11.563,4.149,11.563,4.149
			l14.104,0.06l1.312-0.072c0,0-4.07,12.055-1.812,14.023c2.264,1.975,11.748,0,11.748,0l6.242-0.896l-5.242-12.879L28.399,106.432z
			"/>
		<path fill="#221E20" d="M112.02,92.893c-6.895,0-13.547-0.23-13.547,4.823c0,5.052,5.279,11.255,11.254,11.255
			c6.892,0,11.48-7.812,10.793-11.482C119.829,93.811,115.925,92.893,112.02,92.893"/>
		<path fill="#221E20" d="M71.954,26.072l-0.545-2.312c5.584-1.318,11.545-2.109,17.717-2.354
			c6.565-0.262,13.011,0.336,19.161,1.768l-0.539,2.314c-5.943-1.385-12.176-1.957-18.526-1.709
			C83.201,24.017,77.391,24.789,71.954,26.072z"/>
		<path fill="#221E20" d="M50.676,42.953c-3.396-3.83-4.769-12.172-3.92-17.561c0.413-2.623,1.307-4.355,2.651-5.15
			c2.838-1.678,6.647,0.731,10.332,3.061l0.541,0.342c4.094,2.574,10.082,7.518,10.334,7.727L69.1,33.203
			c-0.062-0.051-6.123-5.055-10.086-7.549l-0.545-0.343c-2.793-1.765-6.269-3.96-7.854-3.022c-0.666,0.394-1.229,1.691-1.513,3.476
			c-0.746,4.743,0.526,12.429,3.351,15.615L50.676,42.953z"/>
		<path fill="#221E20" d="M50.422,43.961l-1.392-1.927c7.375-5.33,15.202-9.304,23.269-11.807l0.702,2.27
			C65.186,34.925,57.588,38.783,50.422,43.961z"/>
		<path fill="#221E20" d="M145.732,50.945l-2.354-0.315c0.021-0.14,1.873-13.979,2.016-19.949
			c0.271-11.879-1.44-18.657-5.242-20.725c-4.774-2.592-23.301,6.369-33.616,17.863l-1.769-1.587
			c9.853-10.978,29.711-22.063,36.521-18.363c4.724,2.568,6.78,9.834,6.481,22.866C147.626,36.835,145.812,50.373,145.732,50.945z"
			/>
		<path fill="#221E20" d="M139.826,45.218l-2.334-0.445c0.014-0.074,1.396-7.354,1.664-11.758l0.033-0.591
			c0.193-3.099,0.436-6.952-1.027-7.819c-0.609-0.361-1.922-0.238-3.508,0.332c-4.246,1.53-10.002,6.053-11.35,9.814l-2.234-0.801
			c1.631-4.563,7.926-9.5,12.777-11.25c2.379-0.856,4.237-0.904,5.524-0.141c2.711,1.607,2.444,5.88,2.188,10.012l-0.037,0.586
			C141.253,37.714,139.884,44.914,139.826,45.218z"/>
		<path fill="#221E20" d="M139.865,47.74c-5.555-5.358-12.186-9.888-19.711-13.459l1.021-2.146
			c7.761,3.682,14.604,8.357,20.341,13.895L139.865,47.74z"/>
		<path fill="#221E20" d="M109.958,132.859c-0.66,0-1.338-0.021-2.03-0.069c-17.179-1.146-22.25-17.776-22.302-17.944l2.281-0.671
			c0.182,0.619,4.678,15.216,20.174,16.248c15.535,1.037,21.119-11.034,21.174-11.157l2.172,0.969
			C131.367,120.363,125.598,132.859,109.958,132.859z"/>
		<path fill="#221E20" d="M97.852,156.102c-15.021,0-33.588-1.859-48.373-11.078c-3.575,0.613-13.185,2.029-15.44-0.002
			c-2.006-1.806-0.457-8.719,0.976-13.617c-7.763,0.424-25.636,0.734-26.521-5.25c-0.887-5.971,12.603-16.365,16.599-19.299
			c-1.388-11.652,1.397-22.73,2.704-26.005c0.007-10.1,5.382-27.73,6.232-30.458c-3.933-14.478-3.47-35.46,2.702-39.423
			c4.771-3.063,12.552-1.271,24.484,5.639C66.811,19.85,78.46,28.44,78.954,28.804l-1.412,1.912
			c-0.118-0.089-12.036-8.877-17.521-12.053c-10.926-6.323-18.125-8.188-22.01-5.694c-4.379,2.811-5.965,21.238-1.649,36.958
			l0.137,0.524l-0.104,0.328c-0.062,0.194-6.228,19.725-6.228,30.086v0.211l-0.071,0.198c-0.045,0.121-4.392,12.266-2.563,25.971
			l0.094,0.705l-0.575,0.416c-6.563,4.733-16.771,13.657-16.208,17.438c0.44,2.975,13.694,3.938,25.722,3.123l1.732-0.117
			l-0.521,1.658c-1.845,5.893-2.841,11.877-2.134,12.807c0.881,0.787,7.371,0.481,13.873-0.67l0.453-0.08l0.392,0.246
			c17.254,10.965,40.223,11.401,56,10.774c27.203-1.077,50.355-20.93,51.389-36.646c1.033-15.795-4.969-21.543-5.027-21.6
			l-0.533-0.492l0.188-0.705c0.035-0.123,3.395-12.34,1.721-23.083c-1.199-7.682-4.891-15.916-10.127-22.592l1.867-1.467
			c5.48,6.985,9.348,15.62,10.605,23.692c1.547,9.933-0.904,20.677-1.604,23.433c1.604,1.849,6.229,8.498,5.28,22.968
			c-1.116,17.03-24.805,37.721-53.665,38.86C103.771,156.027,100.884,156.102,97.852,156.102z"/>
		<path fill="#221E20" d="M147.372,107.971l-1.556-1.8c0.41-0.354,10.187-8.688,21.52-6.981l-0.354,2.352
			C156.753,100.003,147.464,107.891,147.372,107.971z"/>
		<path fill="#221E20" d="M167.52,120.63c-9.229-4.812-18.287-1.676-18.377-1.644l-0.805-2.233c0.406-0.146,10.1-3.532,20.275,1.771
			L167.52,120.63z"/>
		<path fill="#221E20" d="M67.057,110.57c-0.138-0.108-13.883-10.946-29.94-4.729l-0.856-2.217
			c17.36-6.723,31.688,4.611,32.291,5.098L67.057,110.57z"/>
		<path fill="#221E20" d="M37.833,125.954l-1.195-2.054c13.389-7.811,28.152-3.573,28.773-3.389l-0.674,2.279
			C64.592,122.751,50.315,118.673,37.833,125.954z"/>
	</g>
</g>
</svg>
