<?xml version="1.0" encoding="utf-8"?>
<!-- Generator: Adobe Illustrator 15.0.0, SVG Export Plug-In . SVG Version: 6.00 Build 0)  -->
<!DOCTYPE svg PUBLIC "-//W3C//DTD SVG 1.1//EN" "http://www.w3.org/Graphics/SVG/1.1/DTD/svg11.dtd">
<svg version="1.1" id="Layer_2" xmlns="http://www.w3.org/2000/svg" xmlns:xlink="http://www.w3.org/1999/xlink" x="0px" y="0px"
	 width="415px" height="415px" viewBox="0 0 415 415" enable-background="new 0 0 415 415" xml:space="preserve">
<g>
	<path opacity="0.1" fill="none" stroke="#FFFFFF" stroke-miterlimit="10" enable-background="new    " d="M412.327,195.448
		c0-108.418-87.896-196.307-196.31-196.307c-108.416,0-196.307,87.889-196.307,196.307c0,108.421,87.893,196.311,196.307,196.311
		C324.435,391.759,412.327,303.868,412.327,195.448z"/>
	<g>
		<path fill="#FFFFFF" d="M65.471,394.464c-0.529,0-1.062-0.033-1.59-0.104l-29.02-3.736l-4.393-0.561
			c-19.536-2.627-33.316-20.945-30.754-40.846c2.349-18.238,17.709-31.992,35.729-31.992c1.44,0,2.9,0.09,4.339,0.268l4.435,0.578
			l29.009,3.736c3.343,0.43,6.311,2.16,8.354,4.871c2.017,2.676,2.89,5.994,2.459,9.34c0,0-0.333,2.84-0.641,5.445
			c0.311-0.037,0.636-0.062,0.977-0.062c0.354,0,0.722,0.023,1.088,0.072c1.782,0.229,5.947,1.492,6.142,8.252
			c0.069,2.43-0.317,5.488-0.767,9.033l-0.291,2.312l-0.265,1.998c-1.085,8.271-2.021,15.416-8.702,15.416
			c-0.285,0-0.578-0.018-0.878-0.057c-0.751-0.097-1.414-0.273-1.999-0.506c-0.367,2.614-0.77,5.479-0.77,5.479
			C77.126,389.686,71.764,394.464,65.471,394.464L65.471,394.464z"/>
		<path fill="#FFFFFF" d="M129.345,402.854c-0.529,0-1.064-0.033-1.591-0.102l-47.157-6.074c-3.229-0.416-6.331-2.123-8.511-4.685
			c-2.332-2.739-3.42-6.243-2.985-9.616c0.002-0.013,0.757-5.765,1.206-9.255c0.729-5.649,3.94-6.493,5.791-6.493
			c1.751,0,3.237,0.772,4.438,2.303c0.381-2.037,0.827-5.351,1.32-9.002c0.44-3.599,0.845-6.887,0.992-8.949
			c-0.866,0.658-2.038,1.246-3.525,1.246c-1.524,0-2.979-0.658-3.987-1.807c-1.617-1.839-1.572-4.125-1.315-6.119
			c0.449-3.486,1.177-9.242,1.177-9.244c0.799-6.189,6.561-11.035,13.118-11.035c0.545,0,1.093,0.035,1.626,0.105l47.159,6.073
			c3.344,0.433,6.311,2.16,8.354,4.871c2.018,2.679,2.891,5.992,2.46,9.34c0,0-0.333,2.843-0.641,5.445
			c0.311-0.039,0.636-0.061,0.978-0.061c0.354,0,0.723,0.022,1.09,0.071c1.78,0.229,5.943,1.49,6.139,8.246
			c0.07,2.424-0.315,5.479-0.764,9.021l-0.291,2.315l-0.271,2.025c-0.446,3.42-0.836,6.182-1.473,8.469
			c-1.631,5.865-5.227,6.549-7.227,6.549c0,0-0.001,0-0.002,0c-0.284,0-0.577,0.179-0.876,0.14c-0.753-0.099-1.416-0.179-2.001-0.41
			c-0.366,2.617-0.77,5.527-0.77,5.527C141,398.032,135.637,402.854,129.345,402.854z"/>
		<path fill="#FFFFFF" d="M193.679,411.522c-0.528,0-1.062-0.035-1.591-0.104l-47.157-6.074c-3.229-0.416-6.331-2.123-8.511-4.685
			c-2.332-2.739-3.42-6.244-2.985-9.614c0.002-0.015,0.757-5.767,1.206-9.255c0.729-5.651,3.94-6.495,5.791-6.495
			c1.751,0,3.237,0.772,4.438,2.303c0.381-2.037,0.827-5.348,1.32-9c0.44-3.598,0.845-6.887,0.992-8.951
			c-0.866,0.66-2.038,1.246-3.524,1.246c-1.525,0-2.979-0.658-3.988-1.805c-1.617-1.841-1.572-4.125-1.315-6.119
			c0.449-3.488,1.177-9.244,1.177-9.246c0.799-6.189,6.561-11.035,13.118-11.035c0.545,0,1.093,0.035,1.627,0.105l47.158,6.073
			c3.344,0.431,6.312,2.16,8.354,4.871c2.019,2.676,2.892,5.992,2.459,9.338c0,0-0.332,2.843-0.64,5.447
			c0.311-0.039,0.636-0.059,0.979-0.059c0.354,0,0.723,0.022,1.09,0.069c1.778,0.229,5.942,1.488,6.14,8.246
			c0.069,2.425-0.315,5.479-0.765,9.021l-0.291,2.315l-0.271,2.023c-0.445,3.422-0.836,6.186-1.473,8.473
			c-1.631,5.861-5.229,6.549-7.229,6.549c0,0,0,0-0.002,0c-0.283,0-0.576,0.177-0.875,0.138c-0.752-0.097-1.416-0.179-2.002-0.41
			c-0.365,2.617-0.77,5.529-0.77,5.529C205.333,406.696,199.971,411.522,193.679,411.522z"/>
	</g>
	<path fill="#FFFFFF" d="M144.03,356.214c-0.184,0-0.37-0.007-0.562-0.019c-0.455-0.024-0.919-0.084-1.377-0.172l-0.227-0.045
		c0,0-0.438-0.107-0.552-0.139c-0.198-0.054-0.388-0.107-0.57-0.17c-0.136-0.043-0.301-0.105-0.466-0.171
		c-0.126-0.047-0.271-0.104-0.408-0.161l-0.312-0.127l-0.248-0.146c-0.1-0.053-0.215-0.111-0.327-0.178
		c-0.182-0.101-0.374-0.215-0.563-0.336c-0.07-0.041-0.204-0.127-0.336-0.218l-0.276-0.192l-0.121-0.104
		c-0.14-0.106-0.276-0.223-0.414-0.334c-0.088-0.073-0.165-0.145-0.239-0.207l-0.11,0.09c0,0-1.308-1.608-1.354-1.668l-1.049-1.323
		l0.082-0.068l-0.161-0.24l-0.081-0.213c-0.068-0.123-0.137-0.246-0.2-0.373l-0.268-0.545c-0.072-0.149-0.137-0.289-0.199-0.434
		c-0.042-0.092-0.116-0.271-0.188-0.447c-0.016-0.033-0.154-0.379-0.154-0.379l-0.208-0.568c-0.042-0.112-0.104-0.297-0.165-0.481
		c-0.046-0.135-0.098-0.297-0.147-0.459l-0.268-0.916l-0.141-0.537c-0.043-0.146-0.082-0.293-0.117-0.438
		c-0.021-0.067-0.041-0.146-0.062-0.225c-0.708-1.008-1.094-2.217-1.094-3.457c0-0.604,0.098-1.223,0.283-1.811
		c-0.005-0.037-0.011-0.078-0.016-0.119c-0.09-0.343-0.149-0.695-0.179-1.052c-0.02-0.241-0.051-0.489-0.082-0.737l-0.048-0.39
		l-0.756,0.039l-0.009-0.248h-0.195v-0.164c-6.102-0.5-12.257-2.186-17.914-4.907c-4.67-2.25-8.898-5.156-12.599-8.656l-0.451,0.486
		l-1.184,1.231l-0.681,0.691l-0.714,0.705c-0.132,0.131-0.691,0.666-0.691,0.666l-0.721,0.666c-0.197,0.18-0.736,0.653-0.736,0.653
		c-0.537,0.465-1.059,0.892-1.573,1.285l-0.157,0.117c-0.187,0.143-0.427,0.32-0.668,0.49l-0.264,0.182l-0.121,0.105l-0.678,0.418
		c-0.269,0.166-0.454,0.278-0.641,0.385l-0.266,0.156c0,0-0.482,0.252-0.629,0.323c-0.15,0.074-0.765,0.355-0.765,0.355
		s-0.537,0.219-0.671,0.27c-0.186,0.066-0.355,0.129-0.524,0.185l-0.383,0.125l-0.281,0.069c-0.121,0.033-0.349,0.089-0.572,0.136
		c-0.129,0.026-0.753,0.137-0.753,0.137l-0.088,0.018l-0.086,0.009c-0.109,0.014-0.252,0.024-0.396,0.035
		c-0.092,0.01-0.297,0.022-0.499,0.032l-0.281,0.004c-0.067,0-0.595-0.012-0.699-0.02c-0.157-0.01-0.284-0.021-0.408-0.033
		c-0.247-0.022-0.51-0.065-0.774-0.115l-0.35-0.062l-0.377-0.098c-0.28-0.078-0.511-0.156-0.741-0.244
		c-0.144-0.047-0.354-0.127-0.566-0.222c-0.146-0.063-0.352-0.164-0.553-0.271c-0.048-0.023-0.17-0.09-0.292-0.158
		c-0.043-0.018-0.254-0.135-0.46-0.268c-0.388-0.246-0.777-0.539-1.147-0.859c-0.34-0.295-0.667-0.621-0.974-0.969
		c-0.117-0.133-0.251-0.299-0.379-0.472c-0.155-0.196-0.341-0.448-0.503-0.704c-0.075-0.113-0.196-0.324-0.312-0.539
		c-0.112-0.203-0.248-0.466-0.363-0.73c-0.092-0.217-0.156-0.387-0.217-0.559c-0.096-0.265-0.185-0.537-0.255-0.816
		c-0.057-0.215-0.101-0.43-0.138-0.643c-0.041-0.22-0.083-0.482-0.108-0.752c-0.021-0.222-0.032-0.402-0.039-0.584
		c-0.01-0.25-0.012-0.505-0.002-0.769c0.008-0.176,0.019-0.35,0.034-0.521c0.025-0.277,0.055-0.504,0.092-0.732
		c0.024-0.158,0.055-0.324,0.089-0.492c0.052-0.244,0.101-0.438,0.151-0.637l0.127-0.449c0.072-0.242,0.146-0.445,0.22-0.649
		c0.077-0.214,0.127-0.347,0.182-0.48c0.077-0.188,0.165-0.387,0.257-0.586c0.066-0.148,0.118-0.266,0.176-0.379
		c0.071-0.15,0.166-0.33,0.262-0.508L76.297,317c0.14-0.25,0.28-0.483,0.425-0.721l0.069-0.117c0.231-0.369,0.418-0.651,0.614-0.936
		c0,0,0.471-0.662,0.599-0.834c0.014-0.019,0.51-0.668,0.633-0.822l0.634-0.779l0.69-0.809l0.726-0.811l0.743-0.804l1.111-1.155
		l0.774-0.783l0.795-0.783l0.804-0.779l0.796-0.762c0.468-0.443,0.938-0.888,1.409-1.328c-1.513,0.215-3.134,0.438-4.759,0.637
		l-1.355,0.16l-1.312,0.143l-1.171,0.113c-0.959,0.088-1.811,0.154-2.643,0.207l-1.418,0.072c-0.397,0.016-1.284,0.041-1.284,0.041
		c-0.343,0.006-0.604,0.008-0.862,0.008h-0.423c-0.256-0.002-0.504-0.006-0.75-0.014l-0.414-0.013
		c-0.264-0.01-1.137-0.062-1.137-0.062c-0.293-0.021-0.552-0.045-0.808-0.068l-0.337-0.033c-0.382-0.04-0.738-0.09-1.08-0.146
		c-0.452-0.068-0.826-0.145-1.188-0.229c-0.1-0.021-0.236-0.057-0.374-0.094c-0.219-0.053-0.489-0.125-0.746-0.203
		c-0.135-0.041-0.263-0.084-0.39-0.129c-0.309-0.104-0.541-0.19-0.762-0.28c-0.166-0.068-0.315-0.136-0.464-0.203
		c-0.258-0.119-0.487-0.232-0.708-0.354c-0.173-0.096-0.34-0.192-0.501-0.295c-0.27-0.168-0.504-0.332-0.729-0.504
		c-0.127-0.096-0.293-0.227-0.452-0.363c-0.288-0.252-0.513-0.475-0.725-0.705c-0.148-0.155-0.294-0.321-0.43-0.491
		c-0.2-0.253-0.392-0.531-0.596-0.869c-0.116-0.181-0.244-0.4-0.355-0.634c-0.273-0.561-0.476-1.11-0.615-1.688
		c-0.648-2.637-0.135-5.275,1.449-7.428c1.287-1.748,3.204-3.082,5.895-4.072l-0.089-0.055l-1.301-0.857l-1.255-0.877
		c-0.388-0.279-0.7-0.514-1.005-0.746l-0.325-0.254c-0.258-0.203-0.498-0.398-0.732-0.592l-0.33-0.277
		c-0.279-0.238-0.538-0.471-0.789-0.703l-0.193-0.178c-0.358-0.34-0.667-0.65-0.955-0.959l-0.204-0.227
		c-0.245-0.275-0.462-0.529-0.663-0.779l-0.245-0.318c-0.246-0.326-0.431-0.594-0.603-0.856c-0.093-0.144-0.172-0.269-0.244-0.392
		c-0.223-0.377-0.397-0.715-0.553-1.047c-0.054-0.104-0.126-0.266-0.188-0.424c-0.178-0.414-0.353-0.955-0.477-1.492
		c-0.06-0.266-0.09-0.449-0.115-0.635c-0.061-0.326-0.104-0.795-0.109-1.242c-0.002-0.215,0.004-0.428,0.017-0.639
		c0.031-0.502,0.104-0.98,0.225-1.469c0.021-0.105,0.081-0.343,0.153-0.574c0.228-0.693,0.506-1.301,0.857-1.873
		c0.302-0.504,0.717-1.035,1.188-1.51c0.209-0.207,0.408-0.384,0.614-0.546c0.166-0.141,0.504-0.413,0.951-0.688
		c0.178-0.107,0.41-0.232,0.647-0.353c0.315-0.157,0.646-0.301,0.98-0.42c0.215-0.075,0.427-0.141,0.643-0.198
		c0.304-0.084,0.616-0.154,0.941-0.211c0.229-0.037,0.408-0.062,0.593-0.084c0.305-0.033,0.601-0.056,0.902-0.062
		c0.166-0.01,0.298-0.012,0.437-0.012c0.379,0.002,0.676,0.021,0.977,0.041c0.165,0.014,0.289,0.021,0.417,0.03
		c0.345,0.037,0.665,0.085,0.989,0.138c0.054,0.012,0.17,0.024,0.292,0.047c0.406,0.074,0.822,0.162,1.254,0.271
		c0.386,0.095,0.791,0.205,1.205,0.328l0.266,0.082c0.379,0.119,0.662,0.209,0.953,0.31l0.354,0.125
		c0.324,0.114,0.591,0.211,0.86,0.313c0.021,0.008,0.956,0.373,1.216,0.479l0.447,0.188c0.268,0.111,1.216,0.527,1.216,0.527
		c0.295,0.135,1.237,0.567,1.237,0.567c0.341,0.16,1.244,0.601,1.244,0.601c0.418,0.205,0.836,0.414,1.258,0.629l1.672,0.871
		l1.304,0.701l1.854,1.024l2.146,1.224c0.815-3.173,1.95-6.271,3.388-9.254c8.245-17.117,25.855-28.179,44.866-28.179
		c0.384,0,0.768,0.006,1.15,0.015c0.421-0.445,0.907-0.836,1.449-1.16c0.473-1.355,1.701-3.467,4.844-4.228
		c0.439-0.701,1.013-1.303,1.69-1.776c-1.256-3.931-0.977-8.188,0.833-11.943c2.684-5.57,8.415-9.17,14.601-9.17
		c2.444,0,4.808,0.541,7.022,1.604c3.896,1.878,6.832,5.16,8.262,9.244c1.429,4.086,1.182,8.482-0.696,12.379
		c-1.635,3.396-4.48,6.146-7.935,7.718c0.74,1.678,0.857,3.403,0.341,5.039c-0.111,0.354-0.295,0.815-0.595,1.325
		c0.135,0.64,0.185,1.279,0.146,1.916c17.954,14.377,23.731,39.586,13.694,60.421c-0.56,1.157-1.167,2.309-1.821,3.434
		c3.158,2.074,5.786,3.865,8.171,5.564l1.515,1.092l1.222,0.901l1.194,0.898l1.172,0.908l1.134,0.906l1.102,0.909l0.483,0.41
		l0.589,0.511l0.433,0.383l0.564,0.514l0.423,0.396c0.197,0.188,0.377,0.356,0.554,0.53c0.121,0.117,0.27,0.263,0.408,0.402
		c0.161,0.16,0.332,0.338,0.501,0.514c0.121,0.129,0.255,0.269,0.382,0.402c0.162,0.178,0.319,0.354,0.474,0.529l0.334,0.383
		c0.179,0.213,0.32,0.389,0.462,0.565l0.315,0.404c0.163,0.219,0.297,0.404,0.428,0.598c0,0,0.242,0.353,0.313,0.468
		c0.15,0.233,0.271,0.438,0.386,0.641c0.11,0.191,0.204,0.357,0.286,0.521c0.116,0.225,0.22,0.45,0.316,0.678
		c0.113,0.26,0.188,0.434,0.248,0.602c0.113,0.314,0.191,0.588,0.262,0.857c0.064,0.223,0.124,0.471,0.167,0.705
		c0.057,0.287,0.093,0.623,0.113,1.004c0.021,0.215,0.03,0.504,0.022,0.776c-0.016,0.431-0.063,0.845-0.152,1.271
		c-0.022,0.15-0.082,0.455-0.189,0.803c-0.237,0.754-0.554,1.408-0.968,2.023c-0.339,0.508-0.752,0.988-1.226,1.422l-0.306,0.281
		l-0.353,0.246c-0.275,0.211-0.605,0.426-0.945,0.604c-0.179,0.101-0.415,0.209-0.655,0.312c-0.312,0.137-0.636,0.254-0.956,0.348
		c-0.166,0.051-0.401,0.106-0.644,0.156c-0.318,0.065-0.611,0.114-0.921,0.147c-0.175,0.019-0.39,0.031-0.603,0.043
		c-0.135,0.006-0.271,0.008-0.41,0.011c-0.348,0.182-0.685,0.229-0.945,0.229h-0.441l-0.457-0.186l-0.276-0.128
		c-0.094-0.03-0.172-0.061-0.233-0.086c-0.14-0.032-0.275-0.071-0.413-0.112l-0.146-0.041c-0.146-0.035-0.271-0.072-0.39-0.107
		c-0.261-0.067-0.446-0.131-0.635-0.188l-0.542-0.172c-0.337-0.113-0.67-0.234-1.011-0.365l-0.188-0.072
		c-0.312-0.123-0.657-0.266-1.012-0.418c-0.029-0.014-0.869-0.393-1.102-0.502l-1.106-0.547c-0.041-0.021-0.954-0.5-1.168-0.615
		l-1.134-0.629l-1.159-0.672l-0.562-0.336l-1.222-0.746l-1.213-0.762l-0.298-0.193c1.618,7.611-1.901,10.713-4.222,11.898
		l-0.34,0.188l-0.335,0.115c-0.356,0.147-0.715,0.271-1.086,0.369c-0.459,0.125-0.981,0.221-1.505,0.272
		c-0.396,0.041-0.786,0.062-1.172,0.062c-0.295-0.002-0.461-0.013-0.628-0.025c-0.193-0.006-0.475-0.021-0.752-0.059
		c-0.18-0.023-0.354-0.051-0.529-0.084c-0.229-0.037-0.485-0.086-0.733-0.146c-0.135-0.03-0.314-0.08-0.491-0.137
		c-0.237-0.064-0.468-0.139-0.697-0.221c-0.131-0.047-0.302-0.115-0.47-0.188c-0.229-0.094-0.443-0.188-0.654-0.287
		c-0.141-0.067-0.271-0.139-0.403-0.207c-0.232-0.129-0.416-0.229-0.599-0.34c-0.178-0.106-0.311-0.192-0.44-0.281
		c-0.185-0.121-0.369-0.25-0.552-0.389c-0.084-0.061-0.229-0.172-0.373-0.283c-0.141-0.112-0.307-0.25-0.472-0.395
		c-0.105-0.094-0.217-0.191-0.326-0.291c-0.152-0.144-0.306-0.289-0.454-0.438c-0.108-0.108-0.215-0.217-0.315-0.323
		c-0.149-0.158-0.297-0.32-0.44-0.486l-0.21-0.24l-0.376-0.457l-0.271-0.354c-0.146-0.191-0.274-0.371-0.403-0.554l-0.175-0.245
		c-0.156-0.23-0.547-0.82-0.547-0.82l-0.142-0.228c-0.147-0.192-0.286-0.396-0.412-0.606c-0.274-0.469-0.559-0.951-0.838-1.461
		c-0.737-0.564-1.272-1.252-1.645-1.969c0.022,0.163,0.041,0.331,0.053,0.5c0.018,0.311,0.021,0.563,0.021,0.819l0.002,0.203
		l0.049,1.146l-0.176,0.491c0.155,0.57,0.229,1.172,0.215,1.761c-0.011,0.303-0.021,0.573-0.035,0.842l-0.012,0.223
		c-0.022,0.355-0.046,0.646-0.072,0.935l-0.015,0.149c-0.12,1.219-0.312,2.316-0.577,3.299c-0.015,0.056-0.056,0.197-0.101,0.343
		c-0.049,0.178-0.139,0.469-0.235,0.747c-0.046,0.125-0.094,0.248-0.143,0.371c-0.103,0.267-0.209,0.521-0.324,0.771
		c-0.019,0.045-0.092,0.192-0.168,0.342c-0.161,0.314-0.283,0.539-0.414,0.752c-0.097,0.16-0.188,0.303-0.281,0.439
		c-0.186,0.27-0.345,0.485-0.511,0.69c-0.116,0.146-0.251,0.301-0.389,0.449c-0.205,0.227-0.422,0.439-0.646,0.641
		c-0.166,0.146-0.331,0.289-0.503,0.423c-0.242,0.188-0.508,0.368-0.776,0.534c-0.201,0.125-0.395,0.234-0.591,0.341
		c-0.32,0.163-0.631,0.293-0.947,0.411c-0.136,0.056-0.368,0.14-0.61,0.211c-0.309,0.091-0.647,0.164-0.99,0.224
		c-0.163,0.033-0.385,0.07-0.616,0.094C144.7,356.194,144.371,356.214,144.03,356.214z M153.215,336.104
		c-0.021-0.141-0.038-0.277-0.049-0.418l-0.062-0.137c0.004,0.127,0.008,0.252,0.013,0.377
		C153.151,335.985,153.183,336.046,153.215,336.104z"/>
	<g>
		<g>
			<path fill="#FFEA00" d="M65.47,389.966c-0.335,0-0.673-0.021-1.014-0.066l-29.02-3.736l-4.397-0.562
				c-17.061-2.293-29.107-18.354-26.86-35.805c2.062-16.002,15.502-28.068,31.266-28.068c1.259,0,2.532,0.078,3.788,0.232
				l4.402,0.573l29.017,3.738c2.133,0.273,4.026,1.381,5.334,3.117c1.306,1.729,1.87,3.883,1.591,6.055
				c0,0.004-1.113,9.48-1.14,9.685c-0.167,1.291-0.099,2.184,0.2,2.647c0.208,0.324,0.547,0.482,1.208,0.568
				c0.106,0.014,0.206,0.02,0.3,0.02c0.757,0,1.135-0.442,1.615-1.006c0.55-0.646,1.235-1.449,2.613-1.449
				c0.161,0,0.332,0.011,0.514,0.033c2.988,0.385,2.39,5.107,1.485,12.26l-0.283,2.248l-0.271,2.041
				c-0.907,6.929-1.508,11.502-4.239,11.502c-0.1,0-0.2-0.006-0.305-0.02c-1.73-0.224-2.25-1.299-2.666-2.164
				c-0.367-0.767-0.634-1.316-1.602-1.441c-0.163-0.021-0.321-0.035-0.473-0.035c-0.503,0-1.347,0-1.706,2.793
				c-0.026,0.205-1.354,9.656-1.354,9.656C72.951,386.875,69.508,389.966,65.47,389.966L65.47,389.966z"/>
			<g>
				<path fill="#D6BD05" d="M35.445,322.225c1.231,0,2.476,0.074,3.728,0.229l4.397,0.572l29.019,3.738
					c4.13,0.531,7.036,4.389,6.492,8.613c0,0-1.112,9.479-1.14,9.682c-0.397,3.088,0.519,3.607,1.842,3.777
					c0.128,0.016,0.248,0.022,0.363,0.022c2.027,0,1.989-2.457,4.229-2.457c0.141,0,0.291,0.01,0.45,0.029
					c2.736,0.354,1.764,5.895,0.797,13.744c-0.004,0.035-0.01,0.065-0.014,0.1c-0.004,0.035-0.008,0.064-0.013,0.103
					c-1.023,7.604-1.489,13.11-4.016,13.11c-0.077,0-0.157-0.006-0.239-0.018c-2.846-0.365-1.723-3.275-4.269-3.604
					c-0.185-0.022-0.363-0.039-0.535-0.039c-1.061,0-1.86,0.568-2.202,3.229c-0.026,0.205-1.353,9.652-1.353,9.652
					c-0.503,3.896-3.767,6.75-7.513,6.75c-0.313,0-0.631-0.021-0.95-0.062L35.5,385.663l-4.399-0.562
					c-16.826-2.262-28.646-18.004-26.427-35.246C6.731,333.893,20.104,322.225,35.445,322.225 M35.445,321.225
					c-16.015,0-29.669,12.254-31.761,28.504c-2.283,17.725,9.958,34.035,27.285,36.365l4.406,0.562l29.017,3.736
					c0.357,0.047,0.72,0.068,1.078,0.068c4.288,0,7.944-3.275,8.504-7.621c0.134-0.957,1.326-9.449,1.353-9.652
					c0.303-2.355,0.87-2.355,1.21-2.355c0.113,0,0.248,0.011,0.408,0.029c0.665,0.086,0.831,0.365,1.215,1.162
					c0.419,0.871,1.052,2.188,3.054,2.443c0.125,0.016,0.247,0.021,0.367,0.021c3.17,0,3.793-4.748,4.735-11.938
					c0.087-0.66,0.177-1.343,0.271-2.041l0.015-0.115l0.015-0.104c0.084-0.688,0.171-1.368,0.254-2.028
					c0.942-7.449,1.564-12.371-1.917-12.818c-0.198-0.022-0.393-0.037-0.578-0.037c-1.609,0-2.41,0.939-2.994,1.627
					c-0.524,0.613-0.751,0.83-1.234,0.83c-0.074,0-0.152-0.006-0.235-0.018c-0.637-0.08-0.773-0.22-0.854-0.342
					c-0.131-0.205-0.323-0.779-0.125-2.314c0.026-0.201,1.026-8.723,1.14-9.693c0.296-2.291-0.304-4.571-1.688-6.407
					c-1.39-1.847-3.403-3.021-5.669-3.314l-29.019-3.734l-4.396-0.573C38.018,321.305,36.723,321.225,35.445,321.225L35.445,321.225
					z"/>
			</g>
		</g>
		<path opacity="0.65" fill="#FFFFFF" enable-background="new    " d="M38.874,324.835c0.193,0.021,18.229,2.344,18.229,2.344
			l14.84,1.91c3.597,0.463,6.138,3.832,5.663,7.508c-0.386,3.274-1.115,9.498-1.141,9.688c-0.403,3.134,0.395,4.595,2.677,4.888
			c1.755,0.227,2.603-0.771,3.218-1.496c0.569-0.664,0.879-1.029,1.826-0.906c1.534,0.197,0.896,5.236,0.22,10.57
			c-0.049,0.393-0.137,1.094-0.201,1.612c0.033-0.248,0.063-0.483,0.099-0.735c0,0,0.198-1.597,0.282-2.271
			c0.676-5.336,1.313-10.375-0.22-10.569c-0.947-0.121-1.257,0.243-1.826,0.907c-0.615,0.729-1.462,1.724-3.219,1.494
			c-2.28-0.293-3.079-1.754-2.677-4.887c0.024-0.188,0.755-6.412,1.143-9.688c0.474-3.678-2.068-7.043-5.664-7.508l-14.84-1.91
			c0,0-18.035-2.317-18.229-2.344c-16.282-2.004-31.27,9.9-33.412,26.537c-0.03,0.234-0.05,0.465-0.074,0.697
			C8.032,334.407,22.82,322.858,38.874,324.835z"/>
		<g opacity="0.6">
			
				<linearGradient id="SVGID_1_" gradientUnits="userSpaceOnUse" x1="-15.1555" y1="-311.636" x2="-22.0878" y2="-348.8645" gradientTransform="matrix(0.9918 0.1278 0.1278 -0.9918 115.0621 -0.0949)">
				<stop  offset="0" style="stop-color:#FFFFFF"/>
				<stop  offset="1" style="stop-color:#FFFFFF;stop-opacity:0.39"/>
			</linearGradient>
			<path fill="url(#SVGID_1_)" d="M56.424,352.944c11.987,1.73,22.409,5.416,27.893,7.152c0.056-0.453,0.189-1.529,0.255-2.053
				c0.677-5.337,1.314-10.375-0.22-10.572c-0.947-0.121-1.256,0.244-1.826,0.908c-0.614,0.729-1.463,1.723-3.218,1.495
				c-2.281-0.293-3.08-1.756-2.677-4.887c0.023-0.19,0.755-6.412,1.142-9.688c0.475-3.676-2.067-7.043-5.664-7.506l-14.84-1.912
				c0,0-18.035-2.318-18.229-2.343c-14.36-1.771-27.708,7.287-32.131,20.859C12.433,359.844,42.354,350.919,56.424,352.944z"/>
		</g>
		<g>
			<g>
				<path fill="#43D3FF" d="M129.344,398.356c-0.335,0-0.674-0.02-1.015-0.062L81.17,392.22c-4.611-0.597-8.166-4.924-7.606-9.263
					c0-0.002,0.756-5.766,1.206-9.254c0.172-1.334,0.452-2.569,1.329-2.569c0.664,0,1.12,0.805,1.495,1.559
					c0.571,1.146,1.515,1.828,2.886,2.096c0.23,0.045,0.44,0.064,0.644,0.064c0.784,0,1.345-0.326,2.105-0.93
					c1.384-1.097,1.723-3.273,3.087-13.388c1.24-10.116,1.467-12.312,0.405-13.725c-0.736-0.978-1.289-1.455-2.442-1.533
					c-0.125-0.01-0.246-0.014-0.364-0.014c-1.221,0-2.188,0.428-2.957,1.307c-0.605,0.693-1.115,1.156-1.635,1.156
					c-0.234,0-0.451-0.098-0.608-0.273c-0.344-0.395-0.414-1.161-0.232-2.571c0.45-3.492,1.18-9.256,1.18-9.256
					c0.504-3.916,4.387-7.104,8.654-7.104c0.354,0,0.706,0.023,1.051,0.066l47.158,6.073c4.396,0.566,7.502,4.685,6.925,9.175
					c0,0-1.112,9.479-1.14,9.684c-0.167,1.291-0.1,2.186,0.2,2.648c0.208,0.321,0.546,0.479,1.208,0.565
					c0.105,0.014,0.206,0.021,0.3,0.021c0.758,0,1.136-0.445,1.615-1.009c0.55-0.646,1.235-1.448,2.614-1.448
					c0.161,0,0.332,0.01,0.514,0.032c2.985,0.386,2.389,5.101,1.486,12.234l-0.285,2.271l-0.271,2.051
					c-0.906,6.92-1.507,11.492-4.236,11.492l0,0c-0.1,0-0.2-0.007-0.305-0.021c-1.731-0.223-2.25-1.299-2.667-2.164
					c-0.368-0.764-0.633-1.313-1.602-1.438c-0.165-0.021-0.323-0.035-0.476-0.035c-0.503,0-1.345,0-1.703,2.791
					c-0.026,0.205-1.354,9.66-1.354,9.66C136.824,395.266,133.381,398.356,129.344,398.356z"/>
				<g>
					<path fill="#308BA0" d="M88.316,329.022c0.329,0,0.658,0.021,0.985,0.064l0.106,0.014l18.033,2.324l29.02,3.735
						c4.13,0.531,7.036,4.39,6.492,8.611c0,0-1.112,9.48-1.14,9.686c-0.397,3.089,0.521,3.604,1.841,3.773
						c0.13,0.018,0.25,0.025,0.364,0.025c2.028,0,1.988-2.457,4.229-2.457c0.141,0,0.291,0.01,0.449,0.028
						c2.737,0.353,1.762,5.894,0.796,13.742c-0.005,0.035-0.009,0.066-0.014,0.103c-0.004,0.032-0.008,0.062-0.013,0.1
						c-1.023,7.605-1.487,13.111-4.013,13.111c-0.078,0-0.158-0.004-0.24-0.017c-2.849-0.364-1.724-3.276-4.271-3.604
						c-0.186-0.025-0.364-0.039-0.538-0.039c-1.058,0-1.857,0.574-2.199,3.229c-0.026,0.203-1.353,9.652-1.353,9.652
						c-0.503,3.9-3.766,6.748-7.512,6.748c-0.314,0-0.631-0.021-0.951-0.062l-29.019-3.737l-18.034-2.322l-0.106-0.014
						c-4.13-0.533-7.719-4.476-7.174-8.701c0,0,0.756-5.762,1.206-9.254c0.207-1.607,0.512-2.135,0.832-2.135
						c0.374,0,0.767,0.717,1.048,1.28c0.47,0.939,1.344,1.994,3.238,2.361c0.266,0.051,0.51,0.076,0.738,0.076
						c0.97,0,1.648-0.433,2.416-1.039c1.555-1.229,1.869-3.33,3.271-13.711c1.274-10.396,1.501-12.504,0.31-14.09
						c-0.728-0.966-1.393-1.638-2.809-1.732c-0.137-0.008-0.27-0.014-0.397-0.014c-1.684,0-2.689,0.741-3.333,1.477
						c-0.387,0.443-0.897,0.986-1.259,0.986c-0.36,0-0.568-0.545-0.345-2.285c0.45-3.492,1.179-9.258,1.179-9.258
						C80.658,331.796,84.488,329.022,88.316,329.022 M88.316,328.022L88.316,328.022c-4.587,0-8.606,3.312-9.15,7.535
						c0,0.002-0.729,5.77-1.18,9.258c-0.205,1.588-0.103,2.447,0.353,2.965c0.253,0.289,0.603,0.447,0.983,0.447
						c0.787,0,1.451-0.687,2.013-1.328c0.677-0.77,1.497-1.135,2.579-1.135c0.106,0,0.218,0.004,0.333,0.012
						c0.969,0.066,1.405,0.447,2.074,1.336c0.944,1.258,0.719,3.408-0.502,13.367c-1.342,9.938-1.669,12.074-2.899,13.049
						c-0.688,0.545-1.155,0.822-1.795,0.822c-0.168,0-0.354-0.021-0.55-0.06c-1.607-0.312-2.216-1.19-2.532-1.825
						c-0.441-0.89-0.993-1.834-1.942-1.834c-1.438-0.002-1.699,2.028-1.825,3.006c-0.449,3.49-1.205,9.252-1.205,9.252
						c-0.594,4.604,3.162,9.192,8.037,9.822l0.107,0.014l18.034,2.322l29.019,3.737c0.357,0.047,0.721,0.068,1.079,0.068
						c4.288,0,7.944-3.275,8.504-7.621c0.053-0.375,1.325-9.445,1.353-9.652c0.303-2.354,0.868-2.354,1.208-2.354
						c0.113,0,0.248,0.01,0.408,0.031c0.667,0.086,0.834,0.364,1.218,1.159c0.419,0.871,1.053,2.188,3.055,2.443
						c0.125,0.016,0.247,0.023,0.367,0.023c3.169,0,3.792-4.746,4.732-11.929c0.087-0.664,0.178-1.352,0.271-2.055l0.015-0.111
						l0.015-0.106c0.085-0.695,0.172-1.383,0.257-2.049c0.939-7.439,1.562-12.353-1.918-12.797
						c-0.198-0.025-0.393-0.039-0.578-0.039c-1.61,0-2.411,0.938-2.995,1.627c-0.524,0.614-0.751,0.83-1.234,0.83
						c-0.073,0-0.152-0.007-0.235-0.021c-0.637-0.08-0.773-0.219-0.853-0.342c-0.131-0.205-0.323-0.777-0.125-2.312
						c0.027-0.207,1.095-9.311,1.141-9.694c0.611-4.752-2.688-9.117-7.357-9.722l-29.019-3.735l-18.034-2.324l-0.107-0.014
						C89.064,328.048,88.69,328.022,88.316,328.022L88.316,328.022z"/>
				</g>
			</g>
			
				<linearGradient id="SVGID_2_" gradientUnits="userSpaceOnUse" x1="44.782" y1="-392.053" x2="44.782" y2="-339.6913" gradientTransform="matrix(0.9918 0.1278 0.1278 -0.9918 115.0621 -0.0949)">
				<stop  offset="0.1273" style="stop-color:#FFFFFF"/>
				<stop  offset="0.2667" style="stop-color:#FFFFFF;stop-opacity:0.16"/>
				<stop  offset="0.5394" style="stop-color:#FFFFFF;stop-opacity:0"/>
			</linearGradient>
			<path opacity="0.33" fill="url(#SVGID_2_)" enable-background="new    " d="M81.36,390.735c-3.766-0.479-6.784-4.104-6.335-7.594
				c0,0,0.754-5.76,1.203-9.254c0.023-0.181,0.048-0.338,0.07-0.479c0.782,1.537,2.095,2.494,3.901,2.842
				c0.112,0.021,0.224,0.039,0.329,0.054c1.648,0.213,2.684-0.48,3.603-1.207c1.909-1.508,2.207-3.726,3.644-14.361
				c1.309-10.67,1.581-12.889,0.116-14.83c-0.704-0.938-1.529-1.869-3.178-2.084c-0.106-0.014-0.218-0.021-0.333-0.028
				c-1.837-0.123-3.347,0.471-4.494,1.76c0.015-0.144,0.031-0.301,0.055-0.482c0.45-3.49,1.182-9.258,1.182-9.258
				c0.448-3.484,4.287-6.221,8.053-5.734l47.159,6.072c3.592,0.463,6.131,3.83,5.658,7.504c-0.39,3.275-1.116,9.492-1.14,9.685
				c-0.402,3.133,0.396,4.592,2.675,4.887c1.753,0.225,2.599-0.769,3.22-1.494c0.562-0.666,0.878-1.031,1.824-0.908
				c1.53,0.197,0.892,5.234,0.219,10.568c-0.086,0.668-0.282,2.266-0.282,2.266c-0.099,0.703-0.189,1.396-0.276,2.066
				c-0.698,5.328-1.357,10.363-2.889,10.168c-0.947-0.123-1.159-0.56-1.534-1.342c-0.417-0.863-0.981-2.037-2.734-2.265
				c-2.28-0.293-3.424,0.918-3.826,4.052c-0.026,0.186-0.897,6.387-1.352,9.643c-0.475,3.688-3.785,6.301-7.376,5.838L81.36,390.735
				z"/>
			<g>
				<path opacity="0.69" fill="#FFFFFF" enable-background="new    " d="M88.995,331.466l47.158,6.073
					c3.593,0.464,6.133,3.828,5.658,7.502c-0.388,3.271-1.116,9.494-1.139,9.685c-0.403,3.129,0.396,4.594,2.675,4.887
					c1.753,0.229,2.599-0.77,3.22-1.494c0.563-0.664,0.877-1.03,1.824-0.907c1.53,0.194,0.893,5.229,0.219,10.563
					c-0.051,0.394-0.14,1.096-0.203,1.613c0.031-0.25,0.062-0.488,0.101-0.736c0,0,0.196-1.598,0.282-2.266
					c0.673-5.334,1.312-10.371-0.219-10.568c-0.946-0.123-1.263,0.242-1.824,0.908c-0.621,0.729-1.467,1.719-3.22,1.494
					c-2.279-0.295-3.077-1.754-2.675-4.888c0.022-0.188,0.75-6.405,1.14-9.684c0.473-3.674-2.066-7.041-5.658-7.504l-47.159-6.074
					c-3.766-0.481-7.604,2.25-8.053,5.736c0,0-0.067,0.524-0.172,1.346C81.428,333.688,85.247,330.979,88.995,331.466z"/>
			</g>
			<g>
				<path opacity="0.69" fill="#FFFFFF" enable-background="new    " d="M76.05,375.282c0.023-0.184,0.048-0.342,0.069-0.479
					c0.782,1.539,2.096,2.496,3.9,2.842c0.113,0.023,0.225,0.041,0.33,0.055c1.648,0.213,2.684-0.479,3.603-1.209
					c1.909-1.508,2.207-3.725,3.645-14.362c0.028-0.236,0.057-0.468,0.084-0.697c-1.354,10.039-1.683,12.192-3.549,13.67
					c-0.919,0.729-1.953,1.42-3.603,1.207c-0.105-0.014-0.217-0.031-0.329-0.053c-1.808-0.347-3.119-1.304-3.901-2.843
					c-0.022,0.144-0.047,0.302-0.07,0.48c-0.449,3.494-1.203,9.254-1.203,9.254c-0.003,0.018-0.003,0.033-0.005,0.049
					C75.271,381.278,75.735,377.721,76.05,375.282z"/>
			</g>
			
				<linearGradient id="SVGID_3_" gradientUnits="userSpaceOnUse" x1="49.5798" y1="-328.2122" x2="44.1038" y2="-352.5136" gradientTransform="matrix(0.9918 0.1278 0.1278 -0.9918 115.0621 -0.0949)">
				<stop  offset="0" style="stop-color:#FFFFFF"/>
				<stop  offset="1" style="stop-color:#FFFFFF;stop-opacity:0.17"/>
			</linearGradient>
			<path opacity="0.76" fill="url(#SVGID_3_)" enable-background="new    " d="M79.886,345.55c1.147-1.289,2.657-1.884,4.494-1.761
				c0.115,0.009,0.227,0.019,0.333,0.029c1.647,0.215,2.474,1.146,3.178,2.084c1.385,1.836,0.911,6.289-0.217,15.521
				c17.375,6.321,26.227,1.569,45.137,4.006c11.292,1.455,7.868,1.711,15.6,3.934c0.034-0.24,0.063-0.473,0.098-0.715
				c0,0,0.196-1.598,0.282-2.266c0.673-5.334,1.312-10.371-0.219-10.568c-0.946-0.123-1.263,0.242-1.824,0.908
				c-0.621,0.729-1.467,1.719-3.22,1.494c-2.279-0.295-3.077-1.754-2.675-4.888c0.022-0.188,0.75-6.405,1.14-9.684
				c0.473-3.674-2.066-7.041-5.658-7.504l-47.159-6.074c-3.766-0.481-7.604,2.25-8.053,5.736c0,0-0.73,5.766-1.182,9.258
				C79.918,345.249,79.901,345.407,79.886,345.55z"/>
		</g>
		<path fill="#308BA0" d="M108.969,386.108c5.834,0.752,11.605-0.809,16.25-4.395l0.791-0.609l-6.109-7.918l-0.792,0.611
			c-2.531,1.955-5.681,2.807-8.862,2.396c-3.183-0.41-6.014-2.031-7.97-4.563c-4.041-5.238-3.067-12.789,2.168-16.832
			c2.938-2.267,6.041-3.263,8.979-2.886c2.913,0.375,5.557,2.076,7.854,5.054l0.035,0.047l0.041,0.041
			c0.149,0.151,0.399,0.504,0.495,0.647l0.049,0.072l0.06,0.062c0.095,0.098,0.151,0.174,0.188,0.229
			c-0.031,0.023-2.433,1.645-2.433,1.645c-0.646,0.382-1.105,1.015-1.246,1.75c-0.118,0.615-0.068,1.595,0.834,2.767
			c0.479,0.619,1.646,1.41,6.486,2.033c3.354,0.434,6.885,0.586,7.392,0.604l0.067,0.015c0.739,0.096,1.457-0.105,2.019-0.564
			c0.544-0.441,0.879-1.076,0.953-1.793c0.68-2.844,2.661-11.893,0.963-14.094c-0.702-0.91-1.476-1.427-2.299-1.533
			c-0.799-0.103-1.565,0.188-2.219,0.83l-2.001,1.752c-0.301,0.293-0.572,0.389-0.684,0.375c-0.039-0.006-0.083-0.062-0.114-0.113
			c-0.043-0.062-0.441-0.606-0.695-0.908c-3.826-4.959-8.833-7.979-14.454-8.703c-5.641-0.729-11.456,0.966-16.376,4.763
			c-4.646,3.586-7.617,8.77-8.368,14.606c-0.752,5.836,0.809,11.604,4.394,16.25C97.946,382.385,103.134,385.356,108.969,386.108z"
			/>
		<path fill="#FFFFFF" d="M98.947,347.677c9.167-7.076,21.514-6.498,29.455,3.793c0.237,0.28,0.612,0.791,0.612,0.791
			c0.58,0.94,1.638,0.621,2.306-0.035l2.044-1.793c0.8-0.789,1.882-0.877,3.023,0.604c1.553,2.013-1.161,13.318-1.161,13.318
			c-0.073,1.02-0.954,1.695-1.956,1.508c0,0-11.781-0.438-13.18-2.252c-1.047-1.354-0.783-2.504,0.18-3.072l2.255-1.524
			c0.802-0.478,0.918-1.062,0.155-1.863c0,0-0.349-0.522-0.611-0.793c-5.499-7.123-12.56-6.727-18.233-2.348
			c-5.675,4.381-6.729,12.559-2.35,18.233c4.381,5.675,12.561,6.729,18.234,2.349l4.888,6.334
			c-9.166,7.073-22.381,5.373-29.455-3.793C88.079,367.964,89.781,354.75,98.947,347.677z"/>
		<path fill="#4A845F" d="M68.642,346.975l0.29-3.334l0.075-0.851l0.019-0.217c0.011-0.11,0.008-0.221-0.004-0.33
			c-0.02-0.217-0.076-0.43-0.174-0.623c-0.188-0.389-0.545-0.678-0.95-0.815c-0.201-0.07-0.421-0.109-0.628-0.123
			c-0.112-0.01-0.184-0.006-0.274-0.006l-0.23,0.012c-0.495,0.023-1.067-0.02-1.619-0.064c-0.554-0.038-1.062-0.118-1.604-0.225
			c-1.065-0.203-1.6-0.191-1.6-0.191c-1.437-0.196-8.679-3.397-10.769-3.838c-2.091-0.438-2.831-0.598-2.831-0.598
			c-1.521-0.391-3.269-0.734-5.106-0.879c-0.232-0.019-1.1-0.062-1.1-0.062l-0.184,0.013c-1.403-0.013-2.784,0.114-4.035,0.354
			c-0.237,0.115-0.617,0.215-1.073,0.351l-0.351,0.037l-0.271-0.041c-0.703,0.233-1.617,0.952-2.396,0.952h-0.179l-0.005,0.232
			c0,0,0.264-0.027,0.262-0.027c0.002,0-0.015-0.026-0.015-0.026l-2.727,23.821h-0.003l-0.009,0.103
			c-0.027,0.252-0.048,0.535-0.055,0.771c-0.002,0.113-0.003,0.252,0.002,0.359c0.005,0.047-0.004,0.146,0.017,0.154
			c0.034-0.031,0.071-0.058,0.109-0.084c0.281-0.195,0.579-0.306,1.078-0.279c0.271-0.174,0.541-0.293,0.834-0.408l0.271-0.131
			l0.199-0.09c0.137-0.06,0.277-0.113,0.423-0.166c0.294-0.104,0.608-0.199,0.948-0.277c0.682-0.149,1.465-0.244,2.377-0.244
			l-0.021-0.086c2.104-0.17,4.365,0.097,6.676,0.562c2.313,0.477,4.673,1.194,7.069,2.035l3.645,1.303
			c1.237,0.438,2.492,0.873,3.827,1.18c0.672,0.156,1.363,0.24,2.039,0.304c0.682,0.059,1.372,0.081,2.062,0.062
			c0.347-0.008,0.691-0.02,1.037-0.051l0.516-0.045c0.154-0.011,0.415-0.047,0.615-0.127c0.434-0.154,0.986-0.479,1.188-0.854
			c0.205-0.373,0.479-0.754,0.529-1.139l0.002-0.021c0.718-5.565,1.326-11.256,2.017-16.737L68.642,346.975z M34.32,336.827
			l-0.294,0.054c0.169-0.068,0.328-0.125,0.484-0.172l-0.19,0.104C34.32,336.813,34.319,336.815,34.32,336.827z"/>
		<g>
			<path fill="#C19B72" d="M31.411,368.063l0.124-0.914c-0.028,0.15-0.062,0.307-0.103,0.455
				C31.393,367.803,31.406,367.913,31.411,368.063z"/>
			<polygon fill="#C19B72" points="31.673,366.139 31.68,366 31.651,366.303 			"/>
			<path fill="#C19B72" d="M31.825,364.704c-0.042,0.279-0.072,0.554-0.1,0.812C31.764,365.29,31.8,365.018,31.825,364.704z"/>
			<path fill="#C19B72" d="M31.633,365.969c0.03-0.097,0.056-0.142,0.049,0.021l-0.001,0.008l0.046-0.481
				C31.697,365.686,31.666,365.843,31.633,365.969z"/>
			<path fill="#C19B72" d="M30.749,372.337c0.177-0.701,0.238-1.451,0.302-2.201l-0.102,0.324c-0.05,0.428-0.021,0.479,0.054,0.104
				c-0.186,0.859-0.301,1.684-0.397,2.525c0.039-0.05,0.074-0.033,0.122-0.271L30.749,372.337z"/>
			<path fill="#4A845F" d="M30.931,373.647l0.051-0.395c0,0,0.015-0.107,0.015-0.105l1.455-11.297c0.034-0.271-0.1-0.519-0.1-0.519
				l0.694-6.079c-0.004-0.152,0.099-0.246,0.138-0.445c0.041-0.146,0.21-0.285,0.229-0.438l0.109-0.852l-0.14-0.322l-0.084-0.02
				c0.008-0.162-0.061-0.121-0.09-0.025c0.033-0.131,0.223-0.26,0.252-0.434c0.006-0.054,0.176-0.092,0.184-0.146
				c-0.004,0.027-0.007,0.054-0.011,0.08c-0.004,0.027-0.229,0.06-0.232,0.086l-0.256,0.375v0.012v-0.002l0.183,0.095l0.108,0.143
				l0.304-1.938l-0.09-0.435c0.044-0.471,0.021-0.947,0.116-1.229l0.16-0.334l0.11,0.08l0.018-0.13l0.057-1.487l0.332-2.926
				l1.234-9.343c0.028-0.178,0.038-0.44-0.017-0.657c-0.048-0.228-0.157-0.437-0.285-0.613c-0.26-0.361-0.633-0.617-1.028-0.777
				c-0.787-0.311-1.737-0.307-2.497,0.197c-0.371,0.242-0.681,0.682-0.72,1.149l-0.162,1.201l-0.334,2.445
				c-0.495,3.578-0.99,7.016-1.495,10.381c-1.006,6.717-0.887,10.959-2.062,17.726c-0.222,1.299-0.475,3.159-0.709,5.014
				l-0.175,1.395c-0.042,0.371,0.033,0.746,0.176,1.058c0.144,0.311,0.345,0.561,0.562,0.764c0.439,0.404,0.942,0.619,1.417,0.73
				c0.477,0.106,0.438,0.045,0.846-0.025c1.101-0.238,1.616-0.973,1.721-1.396C31.023,373.757,30.905,373.85,30.931,373.647z
				 M34.392,344.466c-0.025,0.606-0.141,1.104-0.257,1.543C34.174,345.54,34.272,344.94,34.392,344.466z"/>
		</g>
		<path fill="#5DB27F" d="M59.863,364.415c-0.361-0.045-0.725-0.104-1.082-0.188c-1.275-0.293-2.51-0.725-3.7-1.143l-3.661-1.31
			c-2.779-0.975-5.066-1.633-7.204-2.072c-0.908-0.188-1.737-0.323-2.541-0.43c-1.629-0.209-3.073-0.26-4.417-0.15l-1.188,0.097
			l0.014,0.045c-0.46,0.045-0.901,0.117-1.322,0.213c-0.381,0.088-0.733,0.191-1.063,0.312c-0.171,0.061-0.333,0.125-0.486,0.188
			l-0.208,0.094l-0.296,0.146c-0.144,0.055-0.317,0.129-0.51,0.225l2.593-22.68l0.593-0.105l-0.036-0.504
			c0.393-0.182,0.801-0.33,1.199-0.463l0.09-0.031l0.174-0.098l0.235-0.025l0.34-0.1c0.316-0.092,0.597-0.172,0.836-0.271
			c1.178-0.219,2.464-0.327,3.727-0.315l0.19-0.01c0.186,0.01,0.833,0.043,1.028,0.057c0.415,0.033,0.829,0.076,1.235,0.127
			c1.168,0.15,2.411,0.396,3.695,0.729l2.873,0.604c0.974,0.203,3.385,1.25,5.524,2.088c2.772,1.082,4.498,1.859,5.287,1.961
			l0.075,0.013l0.089-0.104c0.029,0,0.252-0.047,0.646,0.004c0.207,0.027,0.463,0.041,0.759,0.103
			c0.351,0.062,0.686,0.106,1.023,0.149c0.229,0.029,0.463,0.051,0.703,0.064c0.586,0.051,1.183,0.096,1.735,0.063l0.232-0.014
			c0.057,0.002,0.092,0,0.14,0.004l0.122,0.012c0.096,0.017,0.187,0.031,0.258,0.062c0.181,0.061,0.319,0.174,0.383,0.307
			c0.046,0.09,0.069,0.182,0.079,0.283c0.006,0.053,0.008,0.102,0.003,0.152l-0.346,3.969l-0.119,0.004
			c-0.319,2.545-0.624,5.133-0.927,7.731c-0.352,3.005-0.705,6.021-1.089,9.005c-0.015,0.112-0.161,0.36-0.258,0.526l-0.158,0.275
			c-0.052,0.076-0.314,0.272-0.648,0.393c-0.086,0.035-0.221,0.064-0.353,0.072l-0.528,0.047c-0.312,0.021-0.643,0.039-0.971,0.047
			c-0.649,0.017-1.309-0.01-1.954-0.061C60.409,364.475,60.136,364.448,59.863,364.415z"/>
	</g>
	<g>
		
			<radialGradient id="SVGID_4_" cx="-98.5198" cy="76.6936" r="42.7981" gradientTransform="matrix(1 0 0 -1 256.9448 301.0835)" gradientUnits="userSpaceOnUse">
			<stop  offset="0" style="stop-color:#3AAA35"/>
			<stop  offset="0.2701" style="stop-color:#76C473;stop-opacity:0.7299"/>
			<stop  offset="0.6221" style="stop-color:#C0E4BE;stop-opacity:0.3779"/>
			<stop  offset="0.8744" style="stop-color:#EDF7ED;stop-opacity:0.1256"/>
			<stop  offset="1" style="stop-color:#FFFFFF;stop-opacity:0"/>
		</radialGradient>
		<circle fill="url(#SVGID_4_)" cx="158.425" cy="224.39" r="42.798"/>
		
			<radialGradient id="SVGID_5_" cx="-98.5203" cy="76.6917" r="43.2974" gradientTransform="matrix(1 0 0 -1 256.9448 301.0835)" gradientUnits="userSpaceOnUse">
			<stop  offset="0" style="stop-color:#3AAA35"/>
			<stop  offset="0.1789" style="stop-color:#76C473;stop-opacity:0.7299"/>
			<stop  offset="0.412" style="stop-color:#C0E4BE;stop-opacity:0.3779"/>
			<stop  offset="0.5791" style="stop-color:#EDF7ED;stop-opacity:0.1256"/>
			<stop  offset="0.6623" style="stop-color:#FFFFFF;stop-opacity:0"/>
		</radialGradient>
		<path fill="url(#SVGID_5_)" d="M158.425,267.688c-23.875,0-43.299-19.424-43.299-43.299s19.424-43.294,43.299-43.294
			s43.298,19.422,43.298,43.294C201.723,248.264,182.3,267.688,158.425,267.688z M158.425,182.095
			c-23.323,0-42.299,18.975-42.299,42.294c0,23.323,18.976,42.299,42.299,42.299s42.298-18.976,42.298-42.299
			C200.723,201.069,181.75,182.095,158.425,182.095z"/>
	</g>
	
		<circle opacity="0.4" fill="none" stroke="#FFFFFF" stroke-miterlimit="10" enable-background="new    " cx="159.018" cy="225.448" r="95.805"/>
	
		<circle opacity="0.2" fill="none" stroke="#FFFFFF" stroke-miterlimit="10" enable-background="new    " cx="159.018" cy="225.448" r="49.054"/>
	<g>
		<g>
			<path fill="#8BEA28" d="M193.722,407.165c-0.319,0-0.642-0.021-0.966-0.062l-47.188-5.797c-4.62-0.568-8.199-4.877-7.667-9.217
				c0-0.002,0.725-5.769,1.152-9.263c0.165-1.34,0.438-2.578,1.318-2.578c0.662,0,1.121,0.802,1.499,1.552
				c0.576,1.139,1.524,1.817,2.897,2.076c0.226,0.043,0.434,0.062,0.627,0.062c0.791,0,1.354-0.33,2.117-0.941
				c1.378-1.104,1.703-3.284,3.01-13.403c1.181-10.127,1.394-12.32,0.323-13.726c-0.744-0.973-1.3-1.446-2.449-1.52
				c-0.116-0.006-0.229-0.01-0.338-0.01c-1.23,0-2.206,0.434-2.978,1.321c-0.603,0.697-1.11,1.164-1.632,1.164
				c-0.233,0-0.449-0.1-0.607-0.272c-0.345-0.392-0.419-1.158-0.246-2.568c0.43-3.494,1.125-9.264,1.125-9.264
				c0.484-3.943,4.37-7.148,8.662-7.148c0.335,0,0.669,0.021,1.002,0.062l47.192,5.799c2.133,0.262,4.032,1.356,5.353,3.084
				c1.316,1.725,1.894,3.871,1.625,6.045c0,0-1.058,9.486-1.083,9.691c-0.364,2.987,0.545,3.1,1.429,3.207
				c0.103,0.014,0.196,0.02,0.286,0.02c0.768,0,1.146-0.447,1.623-1.018c0.55-0.652,1.231-1.466,2.627-1.466
				c0.154,0,0.318,0.011,0.492,0.031c2.99,0.365,2.42,5.092,1.56,12.244l-0.245,2.051l-0.509,0.041l0.498,0.06l-0.271,2.157
				c-0.867,6.937-1.441,11.521-4.188,11.521l0,0c-0.095,0-0.188-0.006-0.289-0.021c-1.731-0.213-2.259-1.284-2.681-2.147
				c-0.373-0.762-0.642-1.312-1.61-1.433c-0.157-0.02-0.312-0.03-0.459-0.03c-0.508,0-1.356,0-1.703,2.801
				c-0.022,0.205-1.241,9.281-1.293,9.666C201.229,404.053,197.784,407.165,193.722,407.165z"/>
			<g>
				<path fill="#64A01F" d="M152.382,338.071c0.312,0,0.628,0.021,0.939,0.062l0.104,0.014l18.051,2.217l29.037,3.568
					c4.132,0.506,7.062,4.346,6.542,8.572c0,0-1.057,9.479-1.083,9.688c-0.379,3.094,0.54,3.605,1.863,3.769
					c0.123,0.014,0.238,0.021,0.35,0.021c2.049,0,1.982-2.48,4.248-2.48c0.137,0,0.279,0.009,0.435,0.025
					c2.739,0.336,1.798,5.885,0.877,13.74c-0.004,0.035-0.009,0.065-0.013,0.1s-0.01,0.064-0.014,0.103
					c-0.979,7.621-1.41,13.135-3.949,13.135c-0.074,0-0.149-0.004-0.229-0.014c-2.851-0.353-1.742-3.271-4.292-3.58
					c-0.181-0.023-0.354-0.037-0.521-0.037c-1.063,0-1.869,0.572-2.196,3.242c-0.024,0.205-1.296,9.659-1.296,9.659
					c-0.479,3.918-3.754,6.793-7.518,6.793c-0.299,0-0.602-0.02-0.904-0.057l-29.039-3.565l-18.05-2.22l-0.105-0.012
					c-4.135-0.51-7.744-4.432-7.227-8.66c0,0,0.725-5.766,1.152-9.262c0.198-1.609,0.501-2.139,0.822-2.139
					c0.373,0,0.769,0.713,1.052,1.272c0.476,0.939,1.356,1.988,3.253,2.346c0.258,0.05,0.497,0.068,0.72,0.068
					c0.979,0,1.659-0.436,2.429-1.051c1.549-1.24,1.853-3.34,3.193-13.73c1.212-10.401,1.427-12.514,0.225-14.092
					c-0.733-0.961-1.402-1.629-2.815-1.715c-0.126-0.008-0.249-0.012-0.369-0.012c-1.701,0-2.711,0.752-3.355,1.496
					c-0.384,0.442-0.894,0.991-1.254,0.991c-0.359,0-0.569-0.545-0.356-2.282c0.43-3.494,1.125-9.267,1.125-9.267
					C144.695,340.875,148.538,338.071,152.382,338.071 M152.382,337.071c-4.537,0-8.646,3.404-9.159,7.59
					c0,0.004-0.695,5.771-1.125,9.265c-0.195,1.588-0.089,2.446,0.367,2.963c0.254,0.285,0.603,0.442,0.981,0.442
					c0.791,0,1.453-0.69,2.012-1.344c0.679-0.778,1.505-1.145,2.598-1.145c0.101,0,0.203,0.004,0.308,0.01
					c0.968,0.059,1.406,0.438,2.083,1.324c0.95,1.246,0.738,3.399-0.423,13.369c-1.283,9.938-1.599,12.082-2.824,13.062
					c-0.689,0.555-1.157,0.83-1.805,0.83c-0.165,0-0.345-0.018-0.536-0.053c-1.226-0.229-2.034-0.808-2.544-1.812
					c-0.443-0.883-0.998-1.821-1.943-1.821c-1.444,0-1.694,2.036-1.814,3.018c-0.429,3.494-1.152,9.258-1.152,9.258
					c-0.564,4.609,3.219,9.178,8.097,9.777l0.119,0.014l18.037,2.217l29.038,3.566c0.341,0.043,0.688,0.063,1.026,0.063
					c4.313,0,7.974-3.303,8.511-7.672c0.129-0.961,1.271-9.461,1.295-9.664c0.289-2.358,0.861-2.358,1.205-2.358
					c0.127,0,0.261,0.012,0.397,0.026c0.668,0.082,0.836,0.359,1.224,1.152c0.424,0.869,1.065,2.185,3.067,2.428
					c0.121,0.017,0.236,0.021,0.352,0.021c3.188,0,3.781-4.756,4.683-11.957c0.084-0.664,0.168-1.348,0.261-2.051l0.015-0.109
					l0.011-0.086c0.082-0.717,0.166-1.398,0.245-2.061c0.897-7.451,1.491-12.373-1.993-12.804c-0.188-0.021-0.375-0.033-0.554-0.033
					c-1.625,0-2.427,0.947-3.011,1.646c-0.521,0.619-0.748,0.838-1.237,0.838c-0.071,0-0.146-0.006-0.229-0.016
					c-0.752-0.093-1.298-0.158-0.991-2.65c0.024-0.205,0.977-8.729,1.083-9.701c0.283-2.293-0.33-4.567-1.728-6.397
					c-1.399-1.834-3.42-2.998-5.688-3.275l-29.037-3.565l-18.051-2.22l-0.1-0.014C153.095,337.094,152.739,337.071,152.382,337.071
					L152.382,337.071z"/>
			</g>
		</g>
		<g>
			<g>
				<path opacity="0.69" fill="#FFFFFF" enable-background="new    " d="M153.03,340.51l47.192,5.797
					c3.595,0.44,6.152,3.791,5.701,7.469c-0.367,3.275-1.061,9.5-1.08,9.691c-0.385,3.131,0.42,4.588,2.702,4.869
					c1.758,0.217,2.594-0.785,3.211-1.517c0.56-0.67,0.873-1.035,1.816-0.92c1.533,0.189,0.927,5.23,0.283,10.566
					c-0.049,0.389-0.133,1.094-0.192,1.612c0.028-0.25,0.06-0.487,0.095-0.737c0,0,0.188-1.599,0.271-2.269
					c0.646-5.338,1.252-10.381-0.28-10.565c-0.945-0.115-1.261,0.25-1.818,0.92c-0.617,0.729-1.453,1.729-3.209,1.512
					c-2.284-0.277-3.088-1.732-2.705-4.869c0.022-0.188,0.713-6.41,1.08-9.688c0.452-3.677-2.105-7.027-5.699-7.47l-47.191-5.801
					c-3.771-0.463-7.595,2.297-8.022,5.785c0,0-0.062,0.523-0.163,1.348C145.474,342.778,149.278,340.05,153.03,340.51z"/>
			</g>
			<g>
				<path opacity="0.69" fill="#FFFFFF" enable-background="new    " d="M140.34,384.399c0.022-0.182,0.046-0.34,0.069-0.479
					c0.791,1.532,2.106,2.479,3.917,2.815c0.111,0.021,0.223,0.039,0.327,0.053c1.65,0.203,2.683-0.495,3.597-1.229
					c1.898-1.521,2.186-3.738,3.559-14.385c0.026-0.238,0.057-0.47,0.082-0.697c-1.297,10.047-1.612,12.201-3.469,13.688
					c-0.915,0.73-1.947,1.433-3.598,1.229c-0.104-0.014-0.214-0.025-0.327-0.051c-1.811-0.336-3.126-1.283-3.918-2.818
					c-0.021,0.146-0.045,0.305-0.067,0.48c-0.43,3.496-1.151,9.26-1.151,9.26c-0.001,0.021-0.002,0.033-0.005,0.051
					C139.596,390.403,140.041,386.844,140.34,384.399z"/>
			</g>
		</g>
		
			<linearGradient id="SVGID_6_" gradientUnits="userSpaceOnUse" x1="108.073" y1="-323.8074" x2="104.4946" y2="-342.2296" gradientTransform="matrix(0.9925 0.1219 0.1219 -0.9925 117.6223 6.788)">
			<stop  offset="0" style="stop-color:#FFFFFF"/>
			<stop  offset="1" style="stop-color:#FFFFFF;stop-opacity:0.17"/>
		</linearGradient>
		<path opacity="0.84" fill="url(#SVGID_6_)" enable-background="new    " d="M144.005,354.645c1.139-1.297,2.646-1.896,4.481-1.787
			c0.115,0.012,0.228,0.021,0.33,0.031c1.651,0.203,2.483,1.131,3.192,2.063c1.396,1.828,0.948,6.283-0.125,15.521
			c17.412,6.221,26.237,1.418,45.157,3.742c11.303,1.389,7.88,1.666,15.624,3.842c0.03-0.242,0.062-0.473,0.093-0.717
			c0,0,0.188-1.599,0.271-2.271c0.646-5.338,1.252-10.381-0.28-10.563c-0.945-0.115-1.261,0.25-1.818,0.92
			c-0.617,0.729-1.453,1.729-3.209,1.512c-2.284-0.279-3.088-1.734-2.705-4.869c0.022-0.19,0.713-6.412,1.08-9.688
			c0.452-3.677-2.106-7.027-5.699-7.47l-47.191-5.799c-3.771-0.463-7.595,2.295-8.022,5.785c0,0-0.694,5.771-1.123,9.264
			C144.033,354.344,144.017,354.505,144.005,354.645z"/>
	</g>
	<g>
		
			<rect x="154.503" y="367.739" transform="matrix(0.1231 -0.9924 0.9924 0.1231 -227.2918 486.2418)" fill="#64A01F" width="13.999" height="7.998"/>
		<polygon fill="#FFFFFF" points="157.782,377.3 163.735,378.038 164.127,374.884 164.868,368.907 165.213,366.13 159.259,365.389 
					"/>
		<polygon fill="#64A01F" points="165.597,379.274 167.321,365.384 179.592,355.819 175.159,391.548 		"/>
		<polygon fill="#FFFFFF" points="166.64,378.987 168.262,365.918 178.301,358.094 174.464,389.026 		"/>
		<path fill="#64A01F" d="M176.897,379.009l1.293-0.89c1.565-1.082,2.599-2.771,2.83-4.643c0.215-1.734-0.258-3.463-1.332-4.855
			l-0.944-1.229l3.784-2.951l0.957,1.242c1.855,2.406,2.673,5.385,2.3,8.389c-0.398,3.224-2.173,6.137-4.862,7.994l-1.278,0.883
			L176.897,379.009z"/>
		<path fill="#FFFFFF" d="M182.694,366.294l-0.345-0.445l-2.208,1.721l0.34,0.441c1.234,1.604,1.779,3.592,1.531,5.594
			c-0.268,2.15-1.453,4.098-3.257,5.338l-0.463,0.32l1.601,2.295l0.459-0.314c2.458-1.696,4.075-4.354,4.439-7.293
			C185.132,371.206,184.386,368.487,182.694,366.294z"/>
		<path fill="#64A01F" d="M180.385,384.014l1.284-0.896c2.984-2.063,4.952-5.305,5.396-8.891c0.416-3.352-0.498-6.672-2.571-9.352
			l-0.95-1.23l3.784-2.951l0.959,1.238c2.855,3.688,4.116,8.266,3.544,12.885c-0.613,4.938-3.318,9.4-7.423,12.244l-1.28,0.889
			L180.385,384.014z"/>
		<path fill="#FFFFFF" d="M187.5,362.55l-0.348-0.445l-2.207,1.723l0.341,0.441c2.235,2.891,3.223,6.471,2.772,10.086
			c-0.479,3.865-2.6,7.363-5.817,9.59l-0.462,0.32l1.603,2.299l0.458-0.318c3.872-2.684,6.423-6.893,7-11.547
			C191.38,370.343,190.192,366.026,187.5,362.55z"/>
		<path fill="#64A01F" d="M184.108,389.354l1.282-0.891c4.502-3.125,7.47-8.021,8.14-13.435c0.632-5.074-0.754-10.1-3.896-14.151
			l-0.953-1.232l3.785-2.943l0.958,1.229c3.93,5.065,5.66,11.348,4.873,17.69c-0.839,6.765-4.543,12.882-10.163,16.783l-1.279,0.888
			L184.108,389.354z"/>
		<path fill="#FFFFFF" d="M192.634,358.546l-0.344-0.443l-2.21,1.723l0.343,0.441c3.306,4.264,4.763,9.551,4.101,14.889
			c-0.707,5.695-3.826,10.849-8.562,14.133l-0.461,0.318l1.603,2.301l0.459-0.319c5.388-3.74,8.938-9.605,9.741-16.084
			C198.057,369.421,196.399,363.399,192.634,358.546z"/>
	</g>
	<g>
		<g id="Body_14_">
			<path fill="#FF644A" d="M168.476,312.999c1.828-2.37,3.442-4.961,4.792-7.764c10.492-21.777,1.344-47.938-20.435-58.432
				c-21.78-10.492-47.94-1.345-58.433,20.436c-2.538,5.268-3.915,10.789-4.256,16.287c-8.725-5.142-25.591-15.738-28.484-10.906
				c-3.042,4.922,13.32,13.084,23.354,17.646c-9.362,0.563-22.146,1.504-20.852,6.75c1.213,4.926,17.361,2.145,27.444,0.698
				c0.746,2.734,1.753,5.396,3.012,7.938c-8.47,7.859-17.473,15.853-12.893,19.824c4.613,4.006,12.734-6.56,17.925-11.889
				c3.966,4.963,9.078,9.137,15.186,12.079c7.157,3.447,14.789,4.761,22.184,4.216c0.15,7.918,0.578,19.608,6.794,19.973
				c6.419,0.375,3.766-14.6,3.053-21.848c3.046-0.951,5.983-2.228,8.761-3.816c3.643,9.051,6.617,19.611,13.122,18.953
				c6.469-0.65-1.364-15.053-4.271-22.871c13.435,9.814,27.34,19.773,30.06,15.723C197.432,331.678,178.229,319.26,168.476,312.999z
				 M162.567,319.262c0.082-0.068,0.164-0.138,0.243-0.207c0.03,0.024,0.062,0.045,0.093,0.067L162.567,319.262z"/>
		</g>
		<g id="Eyes_14_">
			<g opacity="0.3">
				
					<ellipse transform="matrix(-0.3277 0.9448 -0.9448 -0.3277 442.3307 221.973)" fill="#FFA383" cx="142.186" cy="268.37" rx="7.315" ry="8.508"/>
				<path fill="#FFA383" d="M165.526,274.333c-1.321,3.814-5.996,5.662-10.438,4.121c-4.438-1.539-6.965-5.883-5.642-9.697
					c1.322-3.815,5.998-5.659,10.438-4.12C164.323,266.175,166.848,270.516,165.526,274.333z"/>
			</g>
			<circle fill="#2F261F" cx="157.563" cy="272.904" r="2.71"/>
			<path fill="#2F261F" d="M145.657,270.112c-0.649,1.352-2.267,1.914-3.616,1.27c-1.349-0.649-1.914-2.271-1.266-3.616
				c0.65-1.351,2.27-1.914,3.616-1.267C145.743,267.145,146.307,268.762,145.657,270.112z"/>
			
				<path fill="none" stroke="#2F261F" stroke-width="1.5" stroke-linecap="round" stroke-linejoin="round" stroke-miterlimit="10" d="
				M160.075,266.5c2.64-0.039,4.399,2.793,3.681,4.847"/>
			
				<path fill="none" stroke="#2F261F" stroke-width="1.5" stroke-linecap="round" stroke-linejoin="round" stroke-miterlimit="10" d="
				M140.42,262.549c-2.42-1.062-5.146,0.859-5.281,3.029"/>
		</g>
		<g id="Mouth_14_">
			<g>
				
					<path fill="none" stroke="#BF221F" stroke-width="1.5" stroke-linecap="round" stroke-linejoin="round" stroke-miterlimit="10" d="
					M147.522,283.553c-0.096-0.021-0.191-0.039-0.291-0.06c0.03,0.115,0.069,0.23,0.083,0.353
					C147.376,283.743,147.449,283.645,147.522,283.553z"/>
				
					<path fill="#FFFFFF" stroke="#BF221F" stroke-width="1.5" stroke-linecap="round" stroke-linejoin="round" stroke-miterlimit="10" d="
					M143.313,282.266c-0.242,0.211-0.443,0.469-0.593,0.774l-0.3,0.623c-0.582,1.207-0.075,2.658,1.132,3.24
					c1.149,0.553,2.51,0.109,3.14-0.973c0.084,0.809,0.567,1.559,1.355,1.938c1.206,0.582,2.656,0.068,3.237-1.139l0.301-0.623
					c0.329-0.685,0.301-1.438,0.002-2.074c-0.661-0.016-2.518-0.057-4.285-0.436C146.218,283.372,144.583,282.774,143.313,282.266z"
					/>
			</g>
			
				<path fill="none" stroke="#2F261F" stroke-width="1.5" stroke-linecap="round" stroke-linejoin="round" stroke-miterlimit="10" d="
				M157.903,282.907c-4.155,1.852-10.347,1.48-16.291-1.383c-1.348-0.646-2.604-1.392-3.753-2.191"/>
		</g>
		<g id="Yellow_x5F_Spots_1_">
			
				<path fill="#FFDF24" stroke="#E2A700" stroke-width="1.3992" stroke-linecap="round" stroke-linejoin="round" stroke-miterlimit="10" d="
				M70.262,282.719c0.834-1.767,0.094-3.878-1.668-4.728c-1.407-0.68-3.029-0.338-4.066,0.715
				C66.07,280.028,68.054,281.387,70.262,282.719z"/>
			<g>
				
					<path fill="#FFDF24" stroke="#E2A700" stroke-width="1.3992" stroke-linecap="round" stroke-linejoin="round" stroke-miterlimit="10" d="
					M81.515,288.639c0.885-2.027,0.028-4.408-1.982-5.379c-1.966-0.947-4.297-0.187-5.365,1.68
					C76.61,286.26,79.14,287.514,81.515,288.639z"/>
			</g>
			
				<path fill="#FFDF24" stroke="#E2A700" stroke-width="1.3992" stroke-linecap="round" stroke-linejoin="round" stroke-miterlimit="10" d="
				M70.461,295.385c-1.743-0.841-3.834-0.109-4.674,1.635c-0.251,0.521-0.348,1.065-0.334,1.604
				c1.413,0.859,3.821,1.188,6.733,1.188C72.85,298.122,72.124,296.182,70.461,295.385z"/>
			
				<path fill="#FFDF24" stroke="#E2A700" stroke-width="1.3992" stroke-linecap="round" stroke-linejoin="round" stroke-miterlimit="10" d="
				M84.587,295.055c-1.944-0.938-4.282-0.119-5.22,1.827c-0.394,0.814-0.463,1.695-0.282,2.519c2.56-0.266,5.197-0.625,7.694-0.979
				C86.72,297.024,85.931,295.706,84.587,295.055z"/>
			
				<path fill="#FFDF24" stroke="#E2A700" stroke-width="1.3992" stroke-linecap="round" stroke-linejoin="round" stroke-miterlimit="10" d="
				M88.116,324.844c-0.044-1.168-0.697-2.273-1.823-2.816c-1.617-0.774-3.561-0.098-4.338,1.521
				c-0.289,0.602-0.375,1.248-0.289,1.862c0.024,0.021,0.036,0.05,0.062,0.066C83.472,326.995,85.717,326.427,88.116,324.844z"/>
			
				<path fill="#FFDF24" stroke="#E2A700" stroke-width="1.3992" stroke-linecap="round" stroke-linejoin="round" stroke-miterlimit="10" d="
				M94.71,316.719c-1.807-0.871-3.977-0.115-4.847,1.692c-0.733,1.521-0.3,3.295,0.937,4.338c1.725-1.522,3.463-3.352,5.094-5.114
				C95.576,317.262,95.179,316.942,94.71,316.719z"/>
			
				<path fill="#FFDF24" stroke="#E2A700" stroke-width="1.3992" stroke-linecap="round" stroke-linejoin="round" stroke-miterlimit="10" d="
				M139.229,332.635c-0.695-0.336-1.436-0.441-2.15-0.379c0.077,2.666,0.238,5.555,0.646,8.213c1.429-0.105,2.771-0.929,3.437-2.312
				C142.151,336.096,141.286,333.628,139.229,332.635z"/>
			
				<path fill="#FFDF24" stroke="#E2A700" stroke-width="1.3992" stroke-linecap="round" stroke-linejoin="round" stroke-miterlimit="10" d="
				M143.174,344.282c-1.516-0.729-3.296-0.223-4.229,1.115c0.994,2.564,2.518,4.324,4.869,4.461
				c0.043,0.002,0.082-0.002,0.125-0.002c0.329-0.291,0.606-0.646,0.809-1.066C145.557,347.108,144.854,345.093,143.174,344.282z"/>
			
				<path fill="#FFDF24" stroke="#E2A700" stroke-width="1.3992" stroke-linecap="round" stroke-linejoin="round" stroke-miterlimit="10" d="
				M162.967,340.169c0.514-0.453,0.947-1.019,1.264-1.673c1.274-2.646,0.161-5.823-2.48-7.1c-1.124-0.541-2.337-0.631-3.466-0.377
				C159.7,334.594,161.173,337.907,162.967,340.169z"/>
			
				<path fill="#FFDF24" stroke="#E2A700" stroke-width="1.3992" stroke-linecap="round" stroke-linejoin="round" stroke-miterlimit="10" d="
				M191.782,336.874c0.043-0.071,0.095-0.141,0.133-0.219c0.787-1.637,0.101-3.604-1.538-4.393
				c-1.641-0.789-3.604-0.103-4.395,1.535c-0.121,0.25-0.194,0.508-0.25,0.768C188.149,335.844,190.214,336.673,191.782,336.874z"/>
			
				<path fill="#FFDF24" stroke="#E2A700" stroke-width="1.3992" stroke-linecap="round" stroke-linejoin="round" stroke-miterlimit="10" d="
				M181.885,327.329c-1.721-0.829-3.79-0.104-4.619,1.613c-0.054,0.109-0.083,0.228-0.124,0.338
				c1.984,1.338,3.882,2.562,5.658,3.623c0.276-0.27,0.521-0.586,0.701-0.957C184.332,330.225,183.608,328.157,181.885,327.329z"/>
			
				<path fill="#FFDF24" stroke="#E2A700" stroke-width="1.3992" stroke-linecap="round" stroke-linejoin="round" stroke-miterlimit="10" d="
				M171.964,320.11c-1.722-0.828-3.79-0.104-4.619,1.615c-0.08,0.166-0.131,0.336-0.185,0.506c1.778,1.293,3.556,2.572,5.299,3.809
				c0.461-0.327,0.856-0.762,1.121-1.311C174.411,323.01,173.686,320.94,171.964,320.11z"/>
		</g>
		<g id="Outline_1_">
			<path fill="none" stroke="#BF221F" stroke-width="3" stroke-linecap="round" stroke-linejoin="round" stroke-miterlimit="10" d="
				M94.611,305.667c-1.261-2.547-2.269-5.209-3.014-7.949"/>
			<path fill="none" stroke="#BF221F" stroke-width="3" stroke-linecap="round" stroke-linejoin="round" stroke-miterlimit="10" d="
				M137.021,329.897c-7.393,0.547-15.024-0.775-22.183-4.227c-6.106-2.943-11.222-7.117-15.188-12.082"/>
			<path fill="none" stroke="#BF221F" stroke-width="3" stroke-linecap="round" stroke-linejoin="round" stroke-miterlimit="10" d="
				M155.632,324.202c-2.782,1.595-5.73,2.875-8.781,3.824"/>
			<path fill="none" stroke="#BF221F" stroke-width="3" stroke-linecap="round" stroke-linejoin="round" stroke-miterlimit="10" d="
				M90.138,283.522c0.338-5.496,1.728-11.021,4.264-16.279c10.491-21.779,36.651-30.932,58.433-20.438
				c21.776,10.491,30.927,36.651,20.435,58.432c-1.331,2.771-2.922,5.33-4.72,7.683"/>
			<path fill="none" stroke="#BF221F" stroke-width="3" stroke-linecap="round" stroke-linejoin="round" stroke-miterlimit="10" d="
				M93.053,285.188c-7.088-3.838-28.127-18.021-31.393-12.566c-3.854,6.229,23.409,17.656,29.533,20.396"/>
			<path fill="none" stroke="#BF221F" stroke-width="3" stroke-linecap="round" stroke-linejoin="round" stroke-miterlimit="10" d="
				M84.892,290.274c-9.421,0.567-22.097,1.188-20.729,6.742c1.365,5.553,21.71,1.312,30.954,0.229"/>
			<path fill="none" stroke="#BF221F" stroke-width="3" stroke-linecap="round" stroke-linejoin="round" stroke-miterlimit="10" d="
				M96.67,303.743c-8.965,8.445-19.895,17.438-14.941,21.736c4.948,4.299,13.939-8.178,19.016-12.967"/>
			<path fill="none" stroke="#BF221F" stroke-width="3" stroke-linecap="round" stroke-linejoin="round" stroke-miterlimit="10" d="
				M136.962,326.983c0.197,7.539-0.185,22.465,6.854,22.875c7.034,0.412,3.17-17.623,2.909-23.705"/>
			<path fill="none" stroke="#BF221F" stroke-width="3" stroke-linecap="round" stroke-linejoin="round" stroke-miterlimit="10" d="
				M154.901,322.43c3.993,9.373,6.918,21.418,13.851,20.717c6.934-0.703-2.461-16.584-4.271-22.873"/>
			<path fill="none" stroke="#BF221F" stroke-width="3" stroke-linecap="round" stroke-linejoin="round" stroke-miterlimit="10" d="
				M160.051,317.044c14.645,10.672,31.466,23.456,34.484,18.952c3.021-4.502-18.009-17.825-27.269-23.774"/>
		</g>
		<g id="Arms_11_">
			<path fill="none" stroke="#BF221F" stroke-width="3" stroke-linecap="round" stroke-linejoin="round" stroke-miterlimit="10" d="
				M106.694,303.417c0.848,5.457,1.888,9.562,5.584,9.511c3.698-0.056,3.656-6.503,2.916-10.138"/>
			<path fill="none" stroke="#BF221F" stroke-width="3" stroke-linecap="round" stroke-linejoin="round" stroke-miterlimit="10" d="
				M135.541,308.063c-2.409,3.232-6.196,7.969-3.364,10.25c2.836,2.283,8.354-3.453,10.381-5.754"/>
		</g>
		
			<path id="Spring_1_" fill="none" stroke="#7F0E0E" stroke-width="1.8" stroke-linecap="round" stroke-linejoin="round" stroke-miterlimit="10" d="
			M154.749,233.924c4.255,2.05,7.358,6.621-0.133,4.496c-7.492-2.123-11.151-5.479-5.519-3.922
			c5.637,1.558,13.874,8.176,9.325,8.521c-4.546,0.348-20.867-5.722-15.084-6.199c5.784-0.48,18.323,9.379,15.142,11.02
			c-3.182,1.64-22.75-6.225-18.637-7.508c4.112-1.283,18.738,6.728,18.695,11.49c-0.235,4.021-23.097-4.555-20.423-9.24"/>
		
			<circle id="Spot_1_" fill="#68D649" stroke="#32B208" stroke-width="3" stroke-miterlimit="10" cx="158.425" cy="224.392" r="10.2"/>
	</g>
</g>
</svg>
