<?xml version="1.0" encoding="utf-8"?>
<!-- Generator: Adobe Illustrator 15.0.0, SVG Export Plug-In . SVG Version: 6.00 Build 0)  -->
<!DOCTYPE svg PUBLIC "-//W3C//DTD SVG 1.1//EN" "http://www.w3.org/Graphics/SVG/1.1/DTD/svg11.dtd">
<svg version="1.1" id="Layer_2" xmlns="http://www.w3.org/2000/svg" xmlns:xlink="http://www.w3.org/1999/xlink" x="0px" y="0px"
	 width="165px" height="198px" viewBox="0 0 165 198" enable-background="new 0 0 165 198" xml:space="preserve">
<g>
	<path fill="#FFFFFF" d="M58.814,127.799c-4.012-0.223-7.358-3.132-8.14-7.074l-0.245-1.238c-0.472,0.138-0.946,0.256-1.427,0.351
		c-0.853,0.169-1.715,0.271-2.582,0.306c-0.188,0.407-0.41,0.803-0.664,1.184c-1.307,1.951-3.297,3.281-5.603,3.736l-1.965,0.392
		c-0.729,0.146-1.468,0.194-2.202,0.153c-4.012-0.224-7.357-3.133-8.14-7.074l-0.058-0.289c-0.642,0.049-1.285,0.057-1.926,0.021
		c-6.566-0.365-12.048-5.129-13.326-11.586c-1.09-5.498,1.048-10.948,5.316-14.218l-3.409-17.205
		c-2.947-14.879,1.571-30.508,11.841-41.581c-0.512-1.043-0.938-2.167-1.276-3.364c-0.134-0.47-0.248-0.935-0.351-1.396
		l-0.089-0.456c-0.058-0.294-0.116-0.605-0.165-0.915l-0.072-0.525c-0.039-0.293-0.075-0.578-0.102-0.862l-0.04-0.501
		c-0.019-0.256-0.034-0.488-0.045-0.717L23.8,24.9l0.481-3.501l0.416-3.183l0.053,0.003c0.006,0,0.045-0.574,0.055-0.608
		c1.299-4.657,3.703-8.413,4.986-10.295c0.106-0.156,0.228-0.446,0.32-0.586c0.877-2.002,2.881-3.411,5.112-3.415
		c0.188-0.001,0.325-0.034,0.421-0.034c0.305-0.034,0.615-0.059,0.924-0.042c3.076,0.171,5.44,2.806,5.271,5.882
		c-0.034,0.604-0.154,1.179-0.354,1.716c0.006,0.039,0.012,0.073,0.016,0.111c0.043,0.272,0.09,0.525,0.149,0.783
		c0.026,0.113,0.058,0.231,0.091,0.348c0.037,0.126,0.066,0.229,0.104,0.331c0.041,0.122,0.076,0.218,0.113,0.314
		c0.084,0.199,0.164,0.37,0.246,0.507c0.037,0.065,0.088,0.136,0.141,0.205c0.021,0.029,0.056,0.072,0.094,0.109
		c0.018,0.016-0.309,0.054-0.275,0.073l-0.354,0.01v0.004l0.471,0.928c0.047,0.014,0.486,0.938,0.537,0.938
		c-0.003,0-0.004,0-0.004,0c-0.002,0,0.008-0.901,0.046-0.896c0.04,0.006,0.068-0.445,0.106-0.442l0.189-0.223
		c0.256-0.006,0.438-0.128,0.618-0.153c0.14-0.019,0.265-0.099,0.39-0.123l0.414-0.128l0.291-0.109l0.24-0.106l0.186-0.097
		l1.015-0.884c0.03-0.035,0.356-0.446,0.356-0.446l0.341-0.464l-0.134-0.114l1.629-2.098L48.266,8.96l0.657-0.648l-0.141-0.16
		l1.346-1.176l1.178-1.678l0.396,0.266l1.987-1.974l0.177,0.159l0.762-0.652l0.279,0.275c0.125-0.068,0.254-0.133,0.381-0.198
		c0.154-0.078,0.33-0.163,0.512-0.245c0.212-0.098,0.429-0.192,0.648-0.285c0.215-0.088,0.375-0.152,0.541-0.215
		c0.225-0.085,0.463-0.166,0.703-0.247c0.241-0.082,0.393-0.131,0.549-0.178c0.235-0.07,0.481-0.137,0.729-0.201
		c0,0,0.438-0.115,0.59-0.151c0.312-0.072,0.623-0.132,0.932-0.19l0.377-0.073c0.566-0.096,1.051-0.166,1.56-0.223
		c0.61-0.073,1.271-0.124,1.985-0.151c0.187-0.006,0.353-0.007,0.52-0.008l0.314-0.002C65.566,1,65.873,0.999,66.209,1.017
		c0.098,0.005,0.705,0.048,0.882,0.063c0.442,0.039,0.858,0.087,1.27,0.149c0.277,0.04,0.47,0.07,0.658,0.105
		c0.448,0.082,0.896,0.184,1.336,0.299c0.192,0.045,0.328,0.08,0.457,0.117c0.589,0.168,1.169,0.367,1.72,0.589
		c0.084,0.032,0.195,0.081,0.312,0.134c0.463,0.199,0.884,0.397,1.291,0.611c0.154,0.082,0.285,0.157,0.417,0.232
		c0.432,0.246,0.772,0.456,1.104,0.677c0.154,0.104,0.307,0.208,0.454,0.313c0.337,0.241,0.671,0.5,0.996,0.771l0.325,0.271
		c0.842,0.735,1.618,1.556,2.311,2.44c0.381,0.493,0.674,0.904,0.948,1.325l0.142,0.211c0.181,0.284,0.338,0.534,0.479,0.774
		c0.143,0.203,0.27,0.412,0.382,0.625c0.798,1.52,1.415,3.066,1.834,4.606c0.414,0.85,0.607,1.796,0.556,2.748
		c-0.021,0.333,0.021,0.834,0.06,1.365c0.047,0.626,0.102,1.33,0.094,2.095c-0.006,0.736-0.158,1.461-0.441,2.132
		c-0.004,0.208-0.01,0.438-0.021,0.682c12.271,6.717,21.095,18.655,23.826,32.444l3.412,17.22c5.188,1.413,9.256,5.654,10.336,11.1
		c1.432,7.23-2.844,14.292-9.688,16.508l0.245,1.243c0.455,2.305-0.012,4.649-1.317,6.602c-1.308,1.953-3.295,3.281-5.603,3.738
		l-1.967,0.39c-0.729,0.146-1.466,0.195-2.199,0.154c-2.496-0.139-4.735-1.316-6.26-3.141c-0.799,0.291-1.615,0.521-2.445,0.686
		c-0.299,0.059-0.6,0.109-0.897,0.15l0.238,1.199c0.457,2.306-0.015,4.649-1.32,6.604c-1.305,1.953-3.295,3.281-5.6,3.738
		l-1.969,0.39c-0.723,0.144-1.464,0.196-2.199,0.153c-4.013-0.221-7.357-3.131-8.141-7.074l-0.204-1.033
		c-0.469,0.137-0.942,0.253-1.419,0.348c-0.297,0.062-0.596,0.109-0.893,0.151l0.197,0.995c0.455,2.305-0.013,4.648-1.318,6.602
		c-1.309,1.953-3.297,3.281-5.604,3.738l-1.965,0.389C60.288,127.788,59.548,127.841,58.814,127.799z"/>
	<path fill="#FFFFFF" d="M42.57,194.496c-16.022,0-30.353-11.021-34.847-26.719c-5.522-19.285,5.349-39.5,24.234-45.021l4.302-1.236
		l28.118-8.061c1.113-0.318,2.262-0.482,3.412-0.482c5.59,0,10.584,3.801,12.143,9.248c0,0,0.818,2.737,1.568,5.252
		c0.543-0.317,1.172-0.596,1.9-0.805c0.609-0.175,1.233-0.264,1.854-0.264c5.876,0,7.662,6.183,9.923,14.011l0.641,2.209
		l0.559,1.974c0.977,3.438,1.816,6.402,2.113,8.812c0.822,6.712-3.104,8.587-4.832,9.082c-0.686,0.195-1.369,0.304-2.039,0.318
		c0.699,2.552,1.465,5.342,1.465,5.342c1.916,6.688-1.922,13.718-8.566,15.621l-28.127,8.055l-4.257,1.283
		c-3.145,0.882-6.352,1.382-9.561,1.382C42.573,194.496,42.571,194.496,42.57,194.496z"/>
	<path fill="#FFFFFF" d="M97.637,179.729c-5.914,0-11.115-3.732-12.646-9.078c-0.005-0.012-1.589-5.594-2.558-8.975
		c-0.358-1.25-1.196-4.18,0.612-6.58c1.014-1.344,2.562-2.113,4.252-2.113c1.129,0,2.09,0.343,2.859,0.763
		c-0.457-2.021-1.354-5.228-2.342-8.757c-1.023-3.495-1.961-6.688-2.644-8.641c-1.366,2.432-3.312,3.002-4.834,3.002
		c-2.854,0-4.842-1.891-5.907-5.611c-0.968-3.381-2.578-8.955-2.579-8.957c-1.898-6.637,2.32-13.899,9.213-15.873l45.713-13.089
		c1.111-0.319,2.26-0.48,3.41-0.48c5.592,0,10.584,3.805,12.143,9.25c0,0,0.818,2.739,1.568,5.251
		c0.543-0.318,1.174-0.594,1.901-0.803c0.609-0.176,1.234-0.266,1.854-0.266c5.873,0,7.656,6.179,9.916,13.998l0.621,2.144
		l0.582,2.062c0.978,3.435,1.816,6.397,2.112,8.809c0.821,6.711-3.104,8.585-4.831,9.08c-0.686,0.195-1.369,0.303-2.039,0.318
		c0.698,2.551,1.465,5.344,1.465,5.344c0.914,3.189,0.549,6.603-1.043,9.551c-1.61,2.984-4.285,5.143-7.526,6.068l-45.697,13.086
		C100.059,179.562,98.857,179.729,97.637,179.729z"/>
	<g>
		<g>
			<path fill="#FFEA00" d="M42.57,189.88c-14.024-0.001-26.575-9.623-30.521-23.397c-4.844-16.914,4.654-34.604,21.171-39.437
				l4.271-1.215l28.127-8.054c0.709-0.203,1.439-0.307,2.172-0.307c3.592,0,6.807,2.461,7.815,5.986c0,0,2.729,9.146,2.787,9.344
				c0.724,2.524,1.496,2.524,1.826,2.524c0.2,0,0.437-0.041,0.743-0.128c0.938-0.27,1.117-0.854,1.367-1.664
				c0.281-0.917,0.633-2.059,2.312-2.538c0.207-0.062,0.416-0.091,0.617-0.091c2.492,0,3.729,4.281,5.602,10.765l0.627,2.17
				l0.562,1.983c1.969,6.934,3.27,11.515,0.371,12.344c-0.344,0.1-0.674,0.148-0.982,0.148c-1.076,0-1.735-0.573-2.319-1.08
				c-0.498-0.435-0.894-0.775-1.486-0.775c-0.17,0-0.356,0.029-0.555,0.085c-0.644,0.185-0.953,0.394-1.109,0.745
				c-0.227,0.507-0.157,1.396,0.199,2.648c0.058,0.199,2.582,9.403,2.582,9.403c1.246,4.351-1.207,8.886-5.47,10.104L55.151,187.5
				l-4.262,1.229c-2.721,0.764-5.518,1.147-8.316,1.147C42.571,189.88,42.571,189.88,42.57,189.88z"/>
			<g>
				<path fill="#D6BD05" d="M67.79,117.973c3.303,0,6.362,2.227,7.336,5.625c0,0,2.729,9.146,2.787,9.344
					c0.651,2.276,1.414,2.889,2.306,2.889c0.28,0,0.573-0.061,0.88-0.146c2.467-0.707,0.92-3.414,3.678-4.203
					c0.166-0.047,0.326-0.068,0.48-0.068c2.338,0,3.61,5.256,5.692,12.377c0.01,0.031,0.021,0.062,0.026,0.095
					c0.01,0.033,0.019,0.062,0.025,0.099c2.137,7.617,3.932,12.951,1.277,13.711c-0.313,0.091-0.596,0.129-0.848,0.129
					c-1.74,0-2.211-1.855-3.808-1.855c-0.209,0-0.438,0.032-0.692,0.104c-1.283,0.367-2.109,1.021-1.252,4.017
					c0.057,0.199,2.579,9.397,2.579,9.397c1.173,4.099-1.12,8.348-5.124,9.492l-28.128,8.053l-4.264,1.229
					c-2.727,0.767-5.472,1.13-8.18,1.13c-13.523,0-26.052-9.109-30.04-23.035c-4.786-16.717,4.537-34.055,20.831-38.817l4.268-1.214
					l28.127-8.055C66.435,118.062,67.118,117.973,67.79,117.973 M67.79,116.973v1V116.973c-0.778,0-1.556,0.107-2.311,0.323
					l-28.128,8.056l-4.265,1.213c-16.789,4.91-26.438,22.877-21.52,40.057c4.006,13.988,16.756,23.761,31.001,23.761
					c2.847,0,5.689-0.394,8.45-1.167l4.27-1.229l28.127-8.053c4.523-1.297,7.131-6.109,5.811-10.729
					c-0.102-0.365-2.522-9.196-2.58-9.397c-0.428-1.49-0.324-2.086-0.227-2.311c0.061-0.135,0.176-0.292,0.791-0.469
					c0.152-0.043,0.293-0.065,0.418-0.065c0.389,0,0.664,0.224,1.158,0.653c0.584,0.508,1.385,1.203,2.646,1.203
					c0.354,0,0.732-0.057,1.123-0.168c3.375-0.967,2.021-5.737-0.029-12.959c-0.184-0.644-0.368-1.303-0.562-1.982l-0.031-0.113
					l-0.024-0.094c-0.195-0.67-0.388-1.328-0.57-1.966c-2.004-6.938-3.213-11.125-6.082-11.125c-0.248,0-0.502,0.036-0.754,0.108
					c-1.939,0.556-2.369,1.949-2.651,2.873c-0.261,0.844-0.382,1.146-1.026,1.33c-0.262,0.072-0.453,0.106-0.605,0.106
					c-0.18,0-0.725,0-1.346-2.163c-0.058-0.201-2.679-8.979-2.791-9.354C75.017,119.582,71.605,116.973,67.79,116.973L67.79,116.973
					z"/>
			</g>
		</g>
		<path opacity="0.65" fill="#FFFFFF" enable-background="new    " d="M34.03,129.828c0.188-0.057,17.666-5.062,17.666-5.062
			l14.385-4.119c3.485-0.998,7.152,1.088,8.174,4.651c0.94,3.16,2.734,9.164,2.785,9.347c0.869,3.037,2.182,4.062,4.394,3.43
			c1.701-0.487,2.085-1.735,2.362-2.648c0.261-0.834,0.397-1.293,1.317-1.556c1.486-0.427,2.896,4.455,4.388,9.621
			c0.108,0.379,0.308,1.058,0.451,1.562c-0.065-0.24-0.134-0.472-0.199-0.716c0,0-0.45-1.544-0.642-2.192
			c-1.489-5.168-2.897-10.047-4.387-9.621c-0.918,0.264-1.059,0.723-1.315,1.558c-0.276,0.913-0.662,2.161-2.363,2.647
			c-2.211,0.633-3.522-0.394-4.393-3.43c-0.053-0.184-1.845-6.188-2.787-9.348c-1.021-3.562-4.687-5.646-8.172-4.651l-14.385,4.119
			c0,0-17.479,5.011-17.667,5.063c-15.745,4.604-24.796,21.471-20.179,37.597c0.065,0.228,0.139,0.444,0.208,0.669
			C9.498,150.829,18.505,134.37,34.03,129.828z"/>
		<g opacity="0.6">
			
				<linearGradient id="SVGID_1_" gradientUnits="userSpaceOnUse" x1="-272.2012" y1="86.6494" x2="-279.1333" y2="49.4218" gradientTransform="matrix(0.9614 -0.2753 -0.2753 -0.9614 332.1228 113.424)">
				<stop  offset="0" style="stop-color:#FFFFFF"/>
				<stop  offset="1" style="stop-color:#FFFFFF;stop-opacity:0.39"/>
			</linearGradient>
			<path fill="url(#SVGID_1_)" d="M61.274,148.695c11.691-3.158,22.723-3.896,28.445-4.473c-0.129-0.438-0.432-1.479-0.578-1.986
				c-1.492-5.17-2.899-10.049-4.387-9.621c-0.92,0.263-1.061,0.722-1.318,1.557c-0.274,0.913-0.661,2.161-2.36,2.648
				c-2.213,0.634-3.523-0.395-4.394-3.43c-0.054-0.186-1.845-6.188-2.787-9.35c-1.021-3.562-4.687-5.646-8.172-4.65l-14.386,4.119
				c0,0-17.479,5.01-17.666,5.064c-13.889,4.062-22.562,17.66-21.25,31.878C23.608,172.443,47.552,152.402,61.274,148.695z"/>
		</g>
		<path fill="#4A845F" d="M70.132,138.377l-1.053-3.175l-0.27-0.812l-0.068-0.207c-0.035-0.104-0.08-0.205-0.134-0.303
			c-0.104-0.189-0.239-0.363-0.405-0.503c-0.326-0.282-0.77-0.407-1.195-0.373c-0.213,0.015-0.43,0.065-0.627,0.136
			c-0.106,0.037-0.17,0.066-0.254,0.104l-0.207,0.103c-0.445,0.219-0.989,0.4-1.515,0.577c-0.524,0.187-1.022,0.312-1.561,0.435
			c-1.06,0.234-1.546,0.453-1.546,0.453c-1.397,0.389-9.314,0.314-11.407,0.74c-2.093,0.424-2.834,0.574-2.834,0.574
			c-1.554,0.243-3.295,0.615-5.039,1.213c-0.222,0.077-1.034,0.381-1.034,0.381l-0.164,0.084c-1.293,0.543-2.511,1.207-3.564,1.922
			c-0.172,0.201-0.481,0.439-0.848,0.744l-0.308,0.174l-0.187,0.248c-0.554,0.496-1.262,1.162-1.748,2.002L34,142.963l0.012,0.039
			l0.191-0.22l-0.016-0.13l6.936,22.846h-0.002l0.004,0.163c0.074,0.243,0.153,0.544,0.24,0.761c0.043,0.107,0.09,0.25,0.139,0.352
			c0.021,0.041,0.05,0.144,0.072,0.146c0.019-0.044,0.041-0.077,0.064-0.118c0.182-0.289,0.41-0.507,0.879-0.682
			c0.18-0.268,0.381-0.48,0.604-0.704l0.196-0.228l0.147-0.16c0.102-0.107,0.21-0.215,0.322-0.319
			c0.229-0.213,0.479-0.424,0.762-0.629c0.562-0.413,1.246-0.81,2.084-1.169l-0.053-0.068c1.865-0.986,4.045-1.643,6.354-2.126
			c2.312-0.478,4.766-0.752,7.298-0.929l3.862-0.247c1.308-0.093,2.635-0.185,3.98-0.433c0.68-0.123,1.349-0.318,1.991-0.532
			c0.649-0.216,1.292-0.468,1.921-0.755c0.314-0.146,0.625-0.297,0.932-0.457l0.455-0.244c0.139-0.072,0.363-0.208,0.517-0.361
			c0.336-0.312,0.716-0.828,0.752-1.253c0.04-0.424,0.142-0.883,0.034-1.256l-0.006-0.021c-1.545-5.396-3.236-10.857-4.773-16.168
			L70.132,138.377z M34.596,142.645l-0.249,0.164c0.128-0.129,0.252-0.244,0.377-0.353l-0.133,0.175
			C34.591,142.633,34.591,142.637,34.596,142.645z"/>
		<g>
			<path fill="#C19B72" d="M44.29,172.48l-0.25-0.892c0.035,0.151,0.064,0.304,0.088,0.458
				C44.169,172.248,44.225,172.344,44.29,172.48z"/>
			<polygon fill="#C19B72" points="43.769,170.609 43.72,170.479 43.812,170.77 			"/>
			<path fill="#C19B72" d="M43.339,169.23c0.072,0.272,0.152,0.535,0.23,0.785C43.516,169.792,43.441,169.531,43.339,169.23z"/>
			<path fill="#C19B72" d="M43.665,170.473c-0.01-0.102-0.006-0.15,0.053,0l0.003,0.008l-0.149-0.463
				C43.61,170.186,43.643,170.338,43.665,170.473z"/>
			<path fill="#C19B72" d="M45.372,176.665c-0.115-0.712-0.354-1.427-0.595-2.142l0.034,0.338c0.125,0.412,0.171,0.449,0.091,0.074
				c0.171,0.861,0.39,1.662,0.634,2.477c0.019-0.061,0.057-0.061,0.006-0.294L45.372,176.665z"/>
			<path fill="#4A845F" d="M46.06,177.799l-0.109-0.384c0,0-0.029-0.104-0.029-0.103l-3.137-10.949
				c-0.074-0.268-0.295-0.438-0.295-0.438l-1.769-5.859c-0.063-0.139-0.007-0.264-0.05-0.463c-0.021-0.152,0.08-0.344,0.037-0.49
				l-0.235-0.825l-0.256-0.242l-0.084,0.017c-0.058-0.15-0.104-0.088-0.095,0.014c-0.021-0.137,0.103-0.327,0.061-0.499
				c-0.016-0.052,0.126-0.154,0.109-0.206c0.009,0.025,0.016,0.051,0.022,0.077c0.009,0.026,0.011,0.06,0.017,0.087l0.336,0.359
				l0.229,0.012v-0.004l-0.217,0.101l-0.055,0.129l-0.597-1.883l-0.515-0.349c-0.146-0.449-0.618-0.877-0.618-1.172v-0.367
				l0.338,0.033l0.067-0.127l-0.485-1.389l-0.828-2.818l-2.552-9.065c-0.043-0.171-0.133-0.419-0.27-0.599
				c-0.133-0.188-0.312-0.336-0.502-0.449c-0.381-0.23-0.822-0.316-1.25-0.309c-0.847,0.023-1.715,0.405-2.215,1.168
				c-0.244,0.371-0.354,0.896-0.203,1.342l0.325,1.168l0.662,2.379c0.962,3.482,1.867,6.834,2.737,10.125
				c1.734,6.564,3.523,10.414,5.119,17.092c0.312,1.279,0.816,3.09,1.334,4.885l0.393,1.348c0.109,0.358,0.326,0.676,0.579,0.9
				c0.255,0.229,0.539,0.381,0.817,0.479c0.563,0.197,1.111,0.195,1.592,0.109c0.479-0.088,0.418-0.131,0.766-0.357
				c0.916-0.652,1.1-1.532,1.026-1.965C46.186,177.861,46.116,177.996,46.06,177.799z M37.686,149.629
				c0.216,0.568,0.31,1.072,0.374,1.52C37.911,150.703,37.764,150.115,37.686,149.629z"/>
		</g>
		<path fill="#5DB27F" d="M68.973,157.867c-0.351,0.102-0.707,0.188-1.067,0.253c-1.289,0.235-2.593,0.329-3.853,0.417l-3.88,0.248
			c-2.938,0.206-5.299,0.506-7.438,0.945c-0.906,0.188-1.724,0.392-2.502,0.613c-1.578,0.451-2.926,0.979-4.117,1.608l-1.054,0.56
			l0.03,0.035c-0.404,0.225-0.782,0.465-1.131,0.721c-0.314,0.229-0.598,0.467-0.854,0.705c-0.132,0.125-0.256,0.246-0.371,0.369
			l-0.154,0.168l-0.215,0.25c-0.108,0.105-0.24,0.241-0.379,0.405l-6.597-21.854l0.502-0.332l-0.231-0.446
			c0.287-0.322,0.604-0.62,0.918-0.9l0.069-0.062l0.121-0.159l0.205-0.117l0.272-0.226c0.254-0.209,0.479-0.396,0.66-0.58
			c0.996-0.668,2.133-1.276,3.297-1.766l0.172-0.086c0.174-0.064,0.781-0.291,0.966-0.354c0.396-0.136,0.792-0.261,1.187-0.373
			c1.133-0.324,2.37-0.593,3.68-0.798l2.879-0.582c0.976-0.198,3.604-0.191,5.898-0.27c2.977-0.105,4.867-0.074,5.633-0.294
			l0.073-0.021l0.041-0.127c0.027-0.014,0.214-0.145,0.597-0.254c0.201-0.057,0.44-0.146,0.735-0.211
			c0.347-0.076,0.671-0.17,1-0.265c0.224-0.062,0.443-0.14,0.67-0.221c0.56-0.187,1.124-0.382,1.622-0.626l0.208-0.104
			c0.054-0.021,0.084-0.037,0.13-0.054l0.116-0.039c0.093-0.026,0.183-0.043,0.261-0.049c0.188-0.017,0.361,0.032,0.473,0.13
			c0.076,0.064,0.136,0.141,0.185,0.229c0.024,0.047,0.047,0.092,0.063,0.139l1.254,3.781l-0.107,0.053
			c0.713,2.463,1.459,4.96,2.21,7.467c0.866,2.896,1.736,5.811,2.563,8.7c0.033,0.112-0.004,0.397-0.026,0.589l-0.036,0.316
			c-0.018,0.09-0.18,0.375-0.439,0.615c-0.064,0.065-0.178,0.146-0.295,0.207l-0.467,0.25c-0.279,0.146-0.574,0.291-0.873,0.43
			c-0.592,0.271-1.205,0.51-1.819,0.715C69.499,157.708,69.239,157.791,68.973,157.867z"/>
		<g>
			<g>
				<path fill="#FF61F8" d="M97.637,175.229c-3.854,0-7.354-2.445-8.318-5.815c0-0.001-1.586-5.589-2.557-8.976
					c-0.406-1.418-0.441-2.205-0.119-2.631c0.155-0.209,0.391-0.322,0.657-0.322c0.482,0,1.011,0.361,1.654,0.906
					c0.72,0.605,1.512,0.901,2.422,0.901c0.336,0,0.688-0.041,1.058-0.121c1.127-0.25,1.604-0.806,2.184-1.882
					c0.838-1.555,0.285-3.688-2.463-13.516c-2.867-9.781-3.527-11.885-5.062-12.762c-0.702-0.4-1.229-0.634-1.844-0.634
					c-0.313,0-0.646,0.062-1.006,0.19c-1.314,0.466-2.146,1.283-2.539,2.502c-0.276,0.857-0.633,1.775-1.362,1.775
					c-0.646,0-1.104-0.683-1.582-2.353c-0.97-3.384-2.582-8.966-2.582-8.966c-1.204-4.207,1.659-9.021,6.129-10.301l45.71-13.088
					c0.711-0.205,1.44-0.309,2.174-0.309c3.594,0,6.809,2.464,7.815,5.988c0,0,2.729,9.146,2.787,9.345
					c0.722,2.519,1.492,2.522,1.822,2.522c0.002,0,0.002,0,0.002,0c0.2,0,0.438-0.041,0.741-0.129
					c0.94-0.271,1.121-0.854,1.369-1.664c0.283-0.918,0.633-2.06,2.312-2.539c0.207-0.06,0.416-0.09,0.617-0.09
					c2.488,0,3.725,4.272,5.594,10.742l0.605,2.098l0.592,2.084c1.967,6.931,3.268,11.51,0.373,12.338
					c-0.346,0.099-0.678,0.148-0.986,0.148l0,0c-1.074,0-1.736-0.574-2.318-1.082c-0.5-0.434-0.895-0.773-1.485-0.773
					c-0.171,0-0.356,0.029-0.558,0.086c-0.641,0.185-0.951,0.394-1.108,0.744c-0.226,0.508-0.158,1.398,0.2,2.648
					c0.058,0.199,2.582,9.404,2.582,9.404c0.603,2.104,0.367,4.312-0.664,6.223c-1.032,1.911-2.739,3.291-4.807,3.883
					l-45.707,13.092C99.225,175.121,98.438,175.229,97.637,175.229z"/>
				<g>
					<path fill="#AB55A1" d="M130.193,100.339c3.302,0,6.361,2.228,7.334,5.626c0,0,2.729,9.145,2.787,9.344
						c0.651,2.276,1.414,2.887,2.306,2.887c0.28,0,0.573-0.062,0.881-0.147c2.472-0.707,0.92-3.411,3.683-4.202
						c0.164-0.048,0.324-0.07,0.479-0.07c2.338,0,3.607,5.26,5.691,12.379c0.012,0.033,0.02,0.062,0.026,0.097
						c0.011,0.032,0.019,0.062,0.027,0.099c2.135,7.614,3.932,12.949,1.278,13.709c-0.313,0.09-0.596,0.129-0.852,0.129
						c-1.738,0-2.211-1.854-3.805-1.854c-0.211,0-0.438,0.032-0.695,0.104c-1.277,0.367-2.107,1.021-1.252,4.015
						c0.059,0.198,2.58,9.399,2.58,9.399c1.174,4.096-1.121,8.344-5.125,9.489l-28.127,8.056l-17.479,5.006l-0.104,0.029
						c-0.714,0.203-1.453,0.303-2.193,0.303c-3.422,0-6.874-2.086-7.838-5.455c0,0-1.588-5.588-2.558-8.975
						c-0.51-1.777-0.344-2.314,0.06-2.314c0.359,0,0.908,0.432,1.33,0.787c0.625,0.527,1.502,1.021,2.746,1.021
						c0.356,0,0.744-0.041,1.164-0.132c1.388-0.307,1.942-1.068,2.519-2.133c0.938-1.746,0.397-3.799-2.423-13.887
						c-2.946-10.055-3.571-12.078-5.295-13.062c-0.711-0.405-1.342-0.698-2.092-0.698c-0.354,0-0.739,0.065-1.172,0.221
						c-1.817,0.645-2.522,1.817-2.848,2.818c-0.201,0.624-0.496,1.432-0.886,1.432c-0.308,0-0.675-0.502-1.101-1.989
						c-0.97-3.384-2.582-8.968-2.582-8.968c-1.173-4.094,1.781-8.532,5.785-9.682l0.104-0.027l17.48-5.006l28.127-8.056
						C128.835,100.434,129.52,100.339,130.193,100.339 M130.193,99.339c-0.778,0-1.557,0.11-2.312,0.326l-28.127,8.056
						l-17.481,5.004l-0.106,0.03c-4.722,1.353-7.746,6.453-6.469,10.916c0.002,0.002,1.614,5.584,2.582,8.968
						c0.404,1.408,0.934,2.713,2.063,2.713c1.155,0,1.599-1.381,1.838-2.121c0.218-0.676,0.687-1.64,2.229-2.187
						c0.308-0.108,0.582-0.162,0.838-0.162c0.504,0,0.967,0.208,1.596,0.567c1.363,0.777,2.008,2.845,4.831,12.474
						c2.7,9.654,3.245,11.748,2.501,13.132c-0.527,0.979-0.9,1.422-1.852,1.631c-0.33,0.071-0.648,0.108-0.947,0.108
						c-0.799,0-1.467-0.25-2.104-0.785c-0.728-0.612-1.342-1.022-1.976-1.022c-0.424,0-0.81,0.188-1.06,0.521
						c-0.434,0.574-0.422,1.466,0.037,3.07c0.972,3.385,2.558,8.973,2.558,8.973c1.024,3.582,4.728,6.183,8.8,6.183
						c0.85,0,1.68-0.114,2.471-0.34l0.104-0.031l17.479-5.004l28.127-8.058c2.197-0.629,4.014-2.094,5.106-4.125
						c1.095-2.022,1.343-4.366,0.703-6.603c-0.101-0.365-2.521-9.197-2.58-9.398c-0.428-1.488-0.323-2.087-0.226-2.311
						c0.062-0.135,0.177-0.291,0.791-0.469c0.154-0.045,0.295-0.064,0.418-0.064c0.39,0,0.664,0.227,1.158,0.65
						c0.584,0.51,1.385,1.203,2.648,1.203c0.354,0,0.732-0.058,1.123-0.168c3.375-0.967,2.021-5.734-0.029-12.955
						c-0.184-0.643-0.371-1.306-0.562-1.984v-0.002l-0.024-0.094l-0.021-0.071c-0.209-0.722-0.401-1.388-0.59-2.031
						c-2-6.923-3.207-11.104-6.071-11.104c-0.248,0-0.502,0.037-0.755,0.108c-1.938,0.556-2.368,1.95-2.651,2.872
						c-0.26,0.844-0.383,1.146-1.028,1.331c-0.261,0.075-0.453,0.108-0.604,0.108c-0.18,0-0.725,0-1.344-2.162
						c-0.057-0.197-2.512-8.416-2.791-9.354C137.419,101.951,134.008,99.34,130.193,99.339L130.193,99.339z"/>
				</g>
			</g>
			
				<linearGradient id="SVGID_2_" gradientUnits="userSpaceOnUse" x1="-211.8433" y1="6.1743" x2="-211.8433" y2="58.5305" gradientTransform="matrix(0.9614 -0.2753 -0.2753 -0.9614 332.1228 113.424)">
				<stop  offset="0.1273" style="stop-color:#FFFFFF"/>
				<stop  offset="0.2667" style="stop-color:#FFFFFF;stop-opacity:0.16"/>
				<stop  offset="0.5394" style="stop-color:#FFFFFF;stop-opacity:0"/>
			</linearGradient>
			<path opacity="0.33" fill="url(#SVGID_2_)" enable-background="new    " d="M99.559,173.475c-3.65,1.045-7.855-1.084-8.824-4.467
				c0,0-1.588-5.588-2.559-8.975c-0.05-0.176-0.091-0.33-0.126-0.471c1.328,1.104,2.91,1.463,4.707,1.064
				c0.113-0.023,0.222-0.053,0.324-0.083c1.599-0.458,2.271-1.504,2.828-2.534c1.155-2.141,0.553-4.291-2.339-14.631
				c-3.022-10.314-3.649-12.461-5.764-13.665c-1.021-0.579-2.146-1.11-3.744-0.653c-0.104,0.031-0.209,0.063-0.315,0.104
				c-1.735,0.615-2.89,1.757-3.432,3.396c-0.044-0.137-0.092-0.289-0.143-0.463c-0.969-3.387-2.579-8.97-2.579-8.97
				c-0.968-3.38,1.474-7.411,5.124-8.456l45.713-13.089c3.479-0.997,7.146,1.09,8.166,4.649c0.938,3.16,2.73,9.158,2.786,9.344
				c0.868,3.035,2.181,4.062,4.39,3.428c1.701-0.486,2.082-1.732,2.365-2.646c0.254-0.834,0.396-1.295,1.314-1.559
				c1.482-0.425,2.893,4.456,4.383,9.619c0.188,0.646,0.641,2.191,0.641,2.191c0.188,0.686,0.379,1.356,0.562,2.008
				c1.467,5.17,2.854,10.056,1.371,10.479c-0.918,0.266-1.283-0.053-1.938-0.625c-0.727-0.627-1.709-1.479-3.408-0.994
				c-2.209,0.635-2.776,2.197-1.908,5.233c0.05,0.183,1.703,6.222,2.576,9.39c1.021,3.574-0.981,7.285-4.463,8.281L99.559,173.475z"
				/>
			<g>
				<path opacity="0.69" fill="#FFFFFF" enable-background="new    " d="M83.105,116.021l45.711-13.09
					c3.481-0.996,7.146,1.088,8.166,4.648c0.939,3.158,2.732,9.158,2.787,9.344c0.869,3.032,2.183,4.062,4.392,3.43
					c1.698-0.486,2.082-1.735,2.364-2.647c0.254-0.833,0.396-1.294,1.315-1.558c1.483-0.424,2.89,4.455,4.384,9.619
					c0.107,0.377,0.305,1.059,0.45,1.561c-0.069-0.242-0.136-0.473-0.198-0.717c0,0-0.451-1.543-0.639-2.191
					c-1.492-5.164-2.9-10.044-4.385-9.619c-0.918,0.264-1.062,0.723-1.314,1.557c-0.283,0.914-0.664,2.16-2.365,2.646
					c-2.209,0.633-3.521-0.393-4.39-3.428c-0.056-0.184-1.849-6.182-2.786-9.344c-1.021-3.562-4.688-5.646-8.166-4.649
					L82.72,114.671c-3.65,1.045-6.092,5.076-5.124,8.456c0,0,0.146,0.51,0.375,1.305C77.038,121.061,79.473,117.062,83.105,116.021z
					"/>
			</g>
			<g>
				<path opacity="0.69" fill="#FFFFFF" enable-background="new    " d="M88.562,161.383c-0.051-0.176-0.092-0.33-0.127-0.47
					c1.328,1.104,2.91,1.462,4.707,1.063c0.113-0.021,0.221-0.051,0.324-0.08c1.598-0.459,2.273-1.504,2.828-2.535
					c1.156-2.143,0.553-4.295-2.338-14.633c-0.068-0.229-0.135-0.453-0.199-0.674c2.729,9.756,3.281,11.862,2.15,13.957
					c-0.557,1.03-1.23,2.077-2.828,2.534c-0.104,0.029-0.211,0.058-0.324,0.083c-1.797,0.396-3.379,0.038-4.707-1.064
					c0.035,0.141,0.076,0.295,0.126,0.471c0.97,3.386,2.558,8.977,2.558,8.977c0.006,0.016,0.013,0.028,0.017,0.045
					C90.223,167.199,89.241,163.75,88.562,161.383z"/>
			</g>
			
				<linearGradient id="SVGID_3_" gradientUnits="userSpaceOnUse" x1="-207.043" y1="70.0078" x2="-212.5184" y2="45.7092" gradientTransform="matrix(0.9614 -0.2753 -0.2753 -0.9614 332.1228 113.424)">
				<stop  offset="0" style="stop-color:#FFFFFF"/>
				<stop  offset="1" style="stop-color:#FFFFFF;stop-opacity:0.17"/>
			</linearGradient>
			<path opacity="0.76" fill="url(#SVGID_3_)" enable-background="new    " d="M80.317,132.561c0.542-1.64,1.694-2.781,3.43-3.396
				c0.108-0.038,0.215-0.07,0.317-0.104c1.599-0.457,2.726,0.073,3.744,0.653c1.996,1.14,3.325,5.416,5.943,14.341
				c18.459-1.072,24.707-8.938,43.035-14.188c10.943-3.136,7.9-1.542,15.881-2.562c-0.062-0.236-0.127-0.459-0.191-0.695
				c0,0-0.451-1.545-0.639-2.191c-1.492-5.164-2.9-10.044-4.385-9.619c-0.918,0.264-1.062,0.725-1.314,1.559
				c-0.283,0.912-0.664,2.158-2.365,2.646c-2.209,0.635-3.521-0.395-4.39-3.428c-0.056-0.186-1.849-6.184-2.786-9.344
				c-1.021-3.562-4.688-5.646-8.166-4.649L82.72,114.67c-3.65,1.045-6.092,5.076-5.124,8.456c0,0,1.61,5.583,2.58,8.97
				C80.226,132.271,80.273,132.424,80.317,132.561z"/>
		</g>
		<g id="Layer_2_2_">
			<g>
				<g opacity="0.25">
					<g>
						<path fill="#FF61F8" d="M108.426,152.672c0.598-0.175,1.143-0.617,1.354-1.163c0.471,0.345,0.867,0.511,1.467,0.335
							c1.131-0.332,1.463-1.447,1.07-2.787l-2.027-6.896c1.008-0.117,0.701,0.072,1.064-0.033c1.078-0.314,1.647-1.377,1.328-2.467
							l-1.229-4.186c-0.599-2.027-1.938-2.453-4.142-1.805l-5.004,1.471c-2.16,0.635-3.938,1.938-3.33,3.998l1.229,4.186
							c0.305,1.033,1.439,1.65,2.479,1.347c0.349-0.104,0.935-0.38,0.883-0.547l2.029,6.905
							C105.993,152.37,107.296,153.004,108.426,152.672z"/>
						<path fill="#FFFFFF" d="M102.591,136.104l5.005-1.474c1.737-0.511,2.471-0.319,2.896,1.126
							c0.094,0.316,0.198,0.688,0.312,1.064l0.282,0.966l0.634,2.149c0.149,0.517-0.052,1.051-0.648,1.229
							c-0.602,0.176-1.117-0.146-1.271-0.661l-0.479-1.624l-0.153-0.525l-0.283-0.967l-0.042-0.145
							c-0.062-0.221-0.38-0.317-0.597-0.254c-0.22,0.062-0.429,0.316-0.363,0.533l0.271,0.924l0.231,0.791l-0.178-0.604l0.153,0.528
							l1.742,5.926l1.248,4.251c0.213,0.726,0.08,1.407-0.572,1.599c-0.651,0.191-1.133-0.311-1.346-1.033l-0.516-1.75l-0.734-2.5
							l-0.311-1.057c-0.062-0.218,0.385,0.262,0.166,0.324l-0.131,0.039c-0.219,0.062-1.061-0.299-0.994-0.08l0.311,1.055l0.734,2.5
							l0.516,1.75c0.213,0.725,0.08,1.404-0.574,1.598c-0.649,0.191-1.133-0.311-1.346-1.033l-1.248-4.251l-1.896-6.454l0.176,0.604
							l-0.502-1.711c-0.064-0.22-0.379-0.317-0.598-0.254c-0.219,0.062-0.428,0.317-0.361,0.534l0.041,0.144l0.285,0.968
							l0.152,0.526l0.479,1.625c0.15,0.514-0.166,1.082-0.682,1.232c-0.514,0.15-1.088-0.156-1.236-0.67l-0.635-2.15l-0.281-0.968
							c-0.112-0.38-0.223-0.747-0.312-1.063C99.512,137.412,100.854,136.613,102.591,136.104z"/>
					</g>
					<path fill="#FF61F8" d="M104.895,134.939c1.873-0.551,2.949-2.521,2.399-4.395c-0.551-1.873-2.521-2.947-4.396-2.396
						c-1.873,0.552-2.945,2.521-2.396,4.395C101.053,134.414,103.021,135.491,104.895,134.939z"/>
					<circle fill="#FFFFFF" cx="103.896" cy="131.545" r="2.539"/>
				</g>
				<g opacity="0.5">
					<g>
						<path fill="#FF61F8" d="M118.945,154.996c0.73-0.215,1.494-0.883,1.716-1.592c0.567,0.477,1.405,0.674,2.14,0.459
							c1.146-0.34,1.905-1.658,1.567-2.807l-3.563-12.134c0.062,0.208,1.086,0.888,1.465,0.774l0.121-0.034
							c0.959-0.282,1.162-2.035,0.879-2.995l-2.576-8.768c-0.607-2.069-2.742-2.567-4.967-1.914l-5.472,1.604
							c-2.407,0.709-4.508,2.659-3.954,4.537l2.575,8.769c0.28,0.959,2.358,2.041,3.317,1.76l0.119-0.034
							c0.379-0.11-0.084-0.954-0.146-1.162l3.565,12.134C116.068,154.744,117.794,155.334,118.945,154.996z"/>
						<path fill="#FFFFFF" d="M110.538,128.557l5.471-1.605c1.896-0.559,3.259-0.346,3.724,1.236
							c0.104,0.347,0.223,0.748,0.346,1.166l0.926,3.151l1.309,4.449c0.164,0.562,0.357,1.588-0.201,1.753l-0.12,0.035
							c-0.56,0.164-1.433-0.664-1.599-1.225l-1.139-3.875l-0.168-0.576l-0.928-3.151l-0.047-0.156
							c-0.068-0.235-0.367-0.36-0.605-0.29c-0.238,0.069-0.422,0.336-0.354,0.571l0.295,1.008l0.257,0.864l0.422,1.438l0.17,0.576
							l1.901,6.479l3.216,10.938c0.231,0.791-0.306,1.65-1.019,1.86s-1.629-0.226-1.86-1.017l-2.41-8.203l-0.806-2.735l-0.338-1.149
							c-0.067-0.236,0.34,0.019,0.104,0.086l-0.145,0.043c-0.234,0.068-0.988-0.084-0.92,0.15l0.338,1.152l0.807,2.732l2.408,8.204
							c0.232,0.791-0.303,1.652-1.016,1.861c-0.714,0.21-1.631-0.226-1.863-1.017l-3.213-10.938l-2.07-7.053l-0.426-1.438
							l-0.549-1.873c-0.068-0.236-0.369-0.359-0.605-0.289c-0.238,0.068-0.424,0.334-0.354,0.569l0.047,0.157l0.926,3.152
							l0.171,0.575l1.139,3.873c0.164,0.562,0.839,1.448,0.277,1.612l-0.119,0.035c-0.562,0.166-1.912-0.522-2.078-1.082
							l-1.308-4.449l-0.928-3.152c-0.123-0.416-0.24-0.818-0.344-1.164C106.792,130.27,108.639,129.113,110.538,128.557z"/>
					</g>
					<path fill="#FF61F8" d="M113.005,127.113c1.865-0.549,2.937-2.512,2.39-4.375c-0.549-1.864-2.512-2.938-4.377-2.389
						c-1.863,0.547-2.937,2.512-2.388,4.375C109.178,126.589,111.141,127.663,113.005,127.113z"/>
					<circle fill="#FFFFFF" cx="112.012" cy="123.732" r="2.775"/>
				</g>
				<g>
					<g>
						<path fill="#AB55A1" d="M132.665,157.126c0.974-0.286,1.832-1.129,2.127-2.073c0.756,0.635,1.636,0.969,2.608,0.682
							c1.533-0.449,2.306-2.139,1.854-3.67l-4.754-16.178c1.041-0.005,1.676,0.771,2.182,0.62l0.159-0.047
							c1.276-0.375,1.319-2.299,0.944-3.579l-3.438-11.688c-0.812-2.762-3.433-3.84-6.396-2.969l-7.291,2.145
							c-3.216,0.941-5.276,3.679-4.541,6.181l3.435,11.688c0.377,1.277,2.414,2.592,3.69,2.216l0.159-0.047
							c0.507-0.147,0.619-1.144,0.537-1.421l4.754,16.178C129.15,156.697,131.132,157.577,132.665,157.126z"/>
						<path fill="#FFFFFF" d="M120.945,121.328l7.293-2.145c2.531-0.744,4.533,0.18,5.154,2.289
							c0.135,0.461,0.293,0.998,0.455,1.553l1.234,4.205l1.744,5.934c0.219,0.747,0.479,2.119-0.271,2.338l-0.158,0.046
							c-0.748,0.222-2.229-0.792-2.449-1.538l-1.52-5.164l-0.228-0.769l-1.233-4.206l-0.062-0.208
							c-0.094-0.313-0.332-0.526-0.647-0.437c-0.315,0.094-0.403,0.4-0.312,0.717l0.396,1.345l0.338,1.149l0.563,1.92l0.228,0.769
							l2.536,8.636l4.285,14.584c0.312,1.055-0.403,2.202-1.354,2.481c-0.949,0.278-2.172-0.302-2.48-1.354l-3.215-10.938
							l-1.072-3.646l-0.449-1.535c-0.094-0.315,0.454,0.021,0.139,0.115l-0.188,0.057c-0.317,0.095-1-0.207-0.905,0.109l0.45,1.536
							l1.07,3.646l3.215,10.938c0.312,1.057-0.405,2.204-1.354,2.482c-0.951,0.279-2.172-0.299-2.482-1.354l-4.285-14.582
							l-2.764-9.401l-0.562-1.92l-0.732-2.496c-0.094-0.313-0.332-0.525-0.646-0.436c-0.316,0.094-0.402,0.4-0.312,0.717
							l0.062,0.209l1.234,4.205l0.227,0.77l1.52,5.164c0.22,0.746,0.478,2.117-0.27,2.337l-0.16,0.047
							c-0.746,0.219-2.229-0.792-2.449-1.539l-1.741-5.935l-1.236-4.205c-0.163-0.553-0.319-1.09-0.457-1.551
							C116.462,124.156,118.413,122.072,120.945,121.328z"/>
					</g>
					<path fill="#AB55A1" d="M124.426,120.045c2.487-0.73,3.915-3.348,3.186-5.834c-0.73-2.484-3.348-3.915-5.836-3.186
						c-2.486,0.729-3.914,3.35-3.185,5.834C119.322,119.348,121.938,120.773,124.426,120.045z"/>
					<circle fill="#FFFFFF" cx="123.102" cy="115.536" r="3.7"/>
				</g>
			</g>
		</g>
	</g>
	<g>
		<g id="Legs_1_">
			<g>
				<g>
					<path fill="#C57FE5" d="M42.027,115.831c0.345,1.735-0.784,3.428-2.524,3.771l-1.963,0.392
						c-1.74,0.345-3.431-0.787-3.774-2.522l-2.337-11.793c-0.346-1.738,0.785-3.429,2.525-3.771l1.963-0.391
						c1.74-0.347,3.43,0.783,3.772,2.523L42.027,115.831z"/>
					
						<path fill="none" stroke="#7F4699" stroke-width="3" stroke-linecap="round" stroke-linejoin="round" stroke-miterlimit="10" d="
						M42.027,115.831c0.345,1.735-0.784,3.428-2.524,3.771l-1.963,0.392c-1.74,0.345-3.431-0.787-3.774-2.522l-2.337-11.793
						c-0.346-1.738,0.785-3.429,2.525-3.771l1.963-0.391c1.74-0.347,3.43,0.783,3.772,2.523L42.027,115.831z"/>
				</g>
				<g>
					<path fill="#2AC699" d="M37.251,114.707c-1.377,0.271-2.728,0.316-3.998,0.174l0.512,2.588
						c0.345,1.737,2.033,2.868,3.773,2.523l1.965-0.391c1.738-0.347,2.869-2.035,2.523-3.771l-0.549-2.77
						C40.249,113.816,38.823,114.396,37.251,114.707z"/>
					<path fill="none" stroke="#138962" stroke-width="3" stroke-miterlimit="10" d="M37.251,114.707
						c-1.377,0.271-2.728,0.316-3.998,0.174l0.512,2.588c0.345,1.737,2.033,2.868,3.773,2.523l1.965-0.391
						c1.738-0.347,2.869-2.035,2.523-3.771l-0.549-2.77C40.249,113.816,38.823,114.396,37.251,114.707z"/>
				</g>
			</g>
			<g>
				<g>
					<path fill="#C57FE5" d="M64.854,118.023c0.345,1.738-0.785,3.431-2.524,3.771l-1.965,0.391
						c-1.738,0.346-3.429-0.787-3.771-2.522l-2.338-11.792c-0.346-1.74,0.785-3.43,2.525-3.771l1.965-0.392
						c1.738-0.345,3.428,0.787,3.771,2.524L64.854,118.023z"/>
					
						<path fill="none" stroke="#7F4699" stroke-width="3" stroke-linecap="round" stroke-linejoin="round" stroke-miterlimit="10" d="
						M64.854,118.023c0.345,1.738-0.785,3.431-2.524,3.771l-1.965,0.391c-1.738,0.346-3.429-0.787-3.771-2.522l-2.338-11.792
						c-0.346-1.74,0.785-3.43,2.525-3.771l1.965-0.392c1.738-0.345,3.428,0.787,3.771,2.524L64.854,118.023z"/>
				</g>
				<g>
					<path fill="#2AC699" d="M60.077,116.9c-1.375,0.271-2.728,0.318-3.998,0.175l0.514,2.587c0.344,1.736,2.033,2.87,3.771,2.523
						l1.965-0.392c1.739-0.344,2.869-2.034,2.524-3.771l-0.548-2.77C63.075,116.014,61.647,116.59,60.077,116.9z"/>
					<path fill="none" stroke="#138962" stroke-width="3" stroke-miterlimit="10" d="M60.077,116.9
						c-1.375,0.271-2.728,0.318-3.998,0.175l0.514,2.587c0.344,1.736,2.033,2.87,3.771,2.523l1.965-0.392
						c1.739-0.344,2.869-2.034,2.524-3.771l-0.548-2.77C63.075,116.014,61.647,116.59,60.077,116.9z"/>
				</g>
			</g>
			<g>
				<g>
					<path fill="#C57FE5" d="M86.398,113.755c0.347,1.738-0.785,3.429-2.522,3.772l-1.965,0.391c-1.74,0.346-3.43-0.786-3.773-2.523
						l-2.337-11.791c-0.345-1.738,0.786-3.43,2.524-3.772l1.967-0.392c1.737-0.344,3.429,0.788,3.771,2.525L86.398,113.755z"/>
					
						<path fill="none" stroke="#7F4699" stroke-width="3" stroke-linecap="round" stroke-linejoin="round" stroke-miterlimit="10" d="
						M86.398,113.755c0.347,1.738-0.785,3.429-2.522,3.772l-1.965,0.391c-1.74,0.346-3.43-0.786-3.773-2.523l-2.337-11.791
						c-0.345-1.738,0.786-3.43,2.524-3.772l1.967-0.392c1.737-0.344,3.429,0.788,3.771,2.525L86.398,113.755z"/>
				</g>
				<g>
					<path fill="#2AC699" d="M81.622,112.632c-1.377,0.272-2.729,0.318-3.998,0.175l0.512,2.586
						c0.345,1.738,2.033,2.871,3.773,2.524l1.965-0.392c1.737-0.344,2.871-2.033,2.522-3.771l-0.547-2.766
						C84.62,111.743,83.193,112.32,81.622,112.632z"/>
					<path fill="none" stroke="#138962" stroke-width="3" stroke-miterlimit="10" d="M81.622,112.632
						c-1.377,0.272-2.729,0.318-3.998,0.175l0.512,2.586c0.345,1.738,2.033,2.871,3.773,2.524l1.965-0.392
						c1.737-0.344,2.871-2.033,2.522-3.771l-0.547-2.766C84.62,111.743,83.193,112.32,81.622,112.632z"/>
				</g>
			</g>
			<g>
				<g>
					<path fill="#C57FE5" d="M106.852,103.977c0.346,1.736-0.783,3.428-2.523,3.771l-1.967,0.391
						c-1.736,0.344-3.428-0.787-3.771-2.522l-2.336-11.793c-0.346-1.738,0.785-3.429,2.523-3.771l1.967-0.39
						c1.738-0.345,3.428,0.786,3.771,2.524L106.852,103.977z"/>
					
						<path fill="none" stroke="#7F4699" stroke-width="3" stroke-linecap="round" stroke-linejoin="round" stroke-miterlimit="10" d="
						M106.852,103.977c0.346,1.736-0.783,3.428-2.523,3.771l-1.967,0.391c-1.736,0.344-3.428-0.787-3.771-2.522l-2.336-11.793
						c-0.346-1.738,0.785-3.429,2.523-3.771l1.967-0.39c1.738-0.345,3.428,0.786,3.771,2.524L106.852,103.977z"/>
				</g>
				<g>
					<path fill="#2AC699" d="M102.075,102.852c-1.375,0.271-2.728,0.318-3.998,0.176l0.512,2.589
						c0.347,1.735,2.035,2.866,3.772,2.522l1.966-0.391c1.739-0.346,2.868-2.035,2.524-3.771l-0.549-2.769
						C105.072,101.963,103.646,102.539,102.075,102.852z"/>
					<path fill="none" stroke="#138962" stroke-width="3" stroke-miterlimit="10" d="M102.075,102.852
						c-1.375,0.271-2.728,0.318-3.998,0.176l0.512,2.589c0.347,1.735,2.035,2.866,3.772,2.522l1.966-0.391
						c1.739-0.346,2.868-2.035,2.524-3.771l-0.549-2.769C105.072,101.963,103.646,102.539,102.075,102.852z"/>
				</g>
			</g>
		</g>
		<g id="Body_18_">
			<path fill="#C57FE5" d="M53.312,24.958c-22.693,4.497-37.445,26.54-32.947,49.234l4.278,21.594c0,0,7.894,4.685,42.507-2.175
				c34.616-6.86,39.678-14.111,39.678-14.111l-4.279-21.596C98.051,35.212,76.008,20.461,53.312,24.958z"/>
			<path fill="none" stroke="#7F4699" stroke-width="3" stroke-linecap="round" stroke-linejoin="round" stroke-miterlimit="10" d="
				M53.312,24.958c-22.693,4.497-37.445,26.54-32.947,49.234l4.278,21.594c0,0,7.894,4.685,42.507-2.175
				c34.616-6.86,39.678-14.111,39.678-14.111l-4.279-21.596C98.051,35.212,76.008,20.461,53.312,24.958z"/>
		</g>
		<g id="Eyes_15_">
			<g>
				<circle fill="#2F2831" cx="49.128" cy="50.888" r="8.06"/>
				
					<ellipse transform="matrix(0.7442 0.6679 -0.6679 0.7442 44.7835 -19.0173)" fill="#FFFFFF" cx="47.222" cy="48.963" rx="3.131" ry="3.769"/>
				
					<ellipse transform="matrix(0.7692 0.639 -0.639 0.7692 45.4149 -21.0053)" fill="#FFFFFF" cx="51.787" cy="52.369" rx="1.631" ry="2.472"/>
			</g>
			<g>
				<circle fill="#2F2831" cx="67.101" cy="47.326" r="8.06"/>
				
					<ellipse transform="matrix(0.7441 0.6681 -0.6681 0.7441 47.0126 -31.9392)" fill="#FFFFFF" cx="65.194" cy="45.392" rx="3.131" ry="3.769"/>
				
					<ellipse transform="matrix(0.7691 0.6391 -0.6391 0.7691 47.2922 -33.312)" fill="#FFFFFF" cx="69.75" cy="48.797" rx="1.632" ry="2.472"/>
			</g>
			
				<path fill="none" stroke="#282828" stroke-width="1.4708" stroke-linecap="round" stroke-linejoin="round" stroke-miterlimit="10" d="
				M38.042,57.072c-0.715-0.804-1.229-1.802-1.453-2.933c-0.284-1.438-0.051-2.861,0.57-4.072"/>
			
				<path fill="none" stroke="#282828" stroke-width="1.4708" stroke-linecap="round" stroke-linejoin="round" stroke-miterlimit="10" d="
				M79.676,48.822c0.353-1.017,0.446-2.134,0.224-3.265c-0.285-1.439-1.042-2.664-2.08-3.547"/>
		</g>
		<g id="Mouth_15_">
			<path fill="#FFA4DC" stroke="#6E2C91" stroke-width="2" stroke-miterlimit="10" d="M56.982,63.458l1.16,5.859
				c0.418,2.104,2.461,3.471,4.567,3.054c2.104-0.416,3.472-2.46,3.057-4.563l-1.162-5.859L56.982,63.458z"/>
			
				<line fill="none" stroke="#6E2C91" stroke-width="2" stroke-linecap="round" stroke-miterlimit="10" x1="54.821" y1="63.888" x2="66.766" y2="61.519"/>
		</g>
		<g id="Arms_2_">
			<g>
				<path fill="#C57FE5" d="M34.193,80.507c3.589,2.6,10.905,6.114,12.595,3.889c1.686-2.227-9.467-11.366-9.467-11.366"/>
				
					<path fill="none" stroke="#7F4699" stroke-width="3" stroke-linecap="round" stroke-linejoin="round" stroke-miterlimit="10" d="
					M34.193,80.507c3.589,2.6,10.905,6.114,12.595,3.889c1.686-2.227-9.467-11.366-9.467-11.366"/>
			</g>
			<g>
				<path fill="#C57FE5" d="M85.322,65.881c-1.688,4-4.181,11.706-1.797,13.007c2.386,1.299,8.685-9.879,8.685-9.879"/>
				
					<path fill="none" stroke="#7F4699" stroke-width="3" stroke-linecap="round" stroke-linejoin="round" stroke-miterlimit="10" d="
					M85.322,65.881c-1.688,4-4.181,11.706-1.797,13.007c2.386,1.299,8.685-9.879,8.685-9.879"/>
			</g>
		</g>
		<g id="Hair_x5F_Color_1_">
			<path fill="#68D649" d="M41.481,23.774c3.835,1.743,7.713-3.957,13.069-3.729c7.12,0.333,10.354,11.68,18.897,8.849
				c1.731-0.574,3.225-1.222,4.525-1.89c1.059-2.408,1.359-5.853,0.684-9.229c-0.322,0.352-0.634,0.696-0.914,1.013
				c-1.549,1.748-7.076,6.409-15.091-0.728c-4.411-3.928-7.456-4.676-10.012-4.302c-1.712,2.521-3.384,4.875-7.66,5.47
				c-3.776,0.524-5.929-1.059-7.153-3.138C37.854,19.741,38.77,22.54,41.481,23.774z"/>
			<path fill="#42B0F4" d="M62.653,18.06c8.016,7.137,13.542,2.475,15.092,0.728c0.279-0.317,0.59-0.661,0.914-1.013
				c-1.244-6.196-5.805-12.157-15.17-11.034c-6.695,0.749-8.801,4-10.848,7.017C55.198,13.384,58.243,14.132,62.653,18.06z"/>
			<path fill="#FFF24D" d="M77.975,27.004c-1.302,0.668-2.794,1.316-4.524,1.89c-8.545,2.831-11.777-8.515-18.898-8.849
				c-5.356-0.229-9.234,5.471-13.069,3.729c-2.712-1.233-3.627-4.033-3.653-7.685c-1.826-3.094-1.598-7.291-1.598-7.291
				s-1.781,1.914-3.416,5.03c0.137,5.307,1.125,10.374,2.723,12.867c2.197,3.434,7.361,4.611,11.176,2.034
				c4.473-3.086,7.262-4.322,11.562-1.381c4.301,2.94,7.52,6.551,15.508,3.982c0.185-0.06,0.354-0.116,0.534-0.173
				c1.148-0.747,2.175-1.704,2.993-2.927C77.557,27.863,77.778,27.452,77.975,27.004z"/>
			<path fill="#F7466C" d="M58.274,27.349c-4.301-2.941-7.09-1.705-11.562,1.381c-3.813,2.577-8.979,1.4-11.176-2.034
				c-1.598-2.493-2.586-7.56-2.723-12.867c-1.938,3.691-3.669,9.071-1.995,14.982c3.089,10.9,14.112,8.436,17.207,5.78
				c3.095-2.655,5.976-5.455,11.203-2.962c4.16,1.984,10.604,2.443,15.087-0.471c-0.181,0.058-0.352,0.113-0.535,0.173
				C65.794,33.9,62.575,30.289,58.274,27.349z"/>
		</g>
		<path id="Hair_x5F_Outline_1_" fill="none" stroke="#661B4D" stroke-width="3" stroke-linecap="round" stroke-miterlimit="10" d="
			M77.31,28.23c4.01-5.993,1.595-23.339-13.82-21.49c-12.287,1.376-9.111,11.182-18.508,12.487
			C35.585,20.532,36.23,8.799,36.23,8.799s-8.499,9.112-5.411,20.012c3.09,10.9,14.112,8.436,17.207,5.78
			c3.096-2.655,5.977-5.455,11.203-2.962C64.456,34.122,73.298,34.225,77.31,28.23z"/>
		
			<path id="Skirt_1_" fill="#FF94F0" stroke="#B2348E" stroke-width="3" stroke-linecap="round" stroke-linejoin="round" stroke-miterlimit="10" d="
			M105.928,79.287c-2.31,0.457-19.714,7.071-38.216,10.737c-19.478,3.861-40.088,4.781-42.32,5.223
			c-4.777,0.947-7.883,5.587-6.936,10.366c0.946,4.779,5.588,7.884,10.365,6.937c3.284-0.649,5.778-3.048,6.711-6.032
			c1.553,5.514,7.104,8.994,12.816,7.86c5.493-1.088,9.214-6.062,8.906-11.495c1.718,5.262,7.123,8.53,12.688,7.43
			c5.563-1.104,9.313-6.188,8.896-11.706c1.787,5.143,7.125,8.316,12.615,7.229c6.01-1.188,9.914-7.024,8.727-13.035
			c-0.021-0.101-0.053-0.196-0.076-0.296c1.869,3.08,5.517,4.827,9.252,4.086c4.779-0.947,7.888-5.588,6.938-10.367
			C115.348,81.445,110.706,78.339,105.928,79.287z"/>
	</g>
	<g>
		<g>
			<path fill="#FFFFFF" d="M10.335,26.015C5.567,33.29,2.14,42.765,2.034,51.511c-0.039,3.227,4.961,3.223,5,0
				c0.096-7.891,3.33-16.426,7.62-22.972C16.426,25.832,12.095,23.33,10.335,26.015L10.335,26.015z"/>
		</g>
	</g>
	<g>
		<g>
			<path fill="#FFFFFF" d="M113.452,38.362c-2.729-5.604-5.662-10.535-12.099-12.171c-3.127-0.795-4.453,4.027-1.33,4.821
				c5.084,1.292,6.982,5.504,9.109,9.874C110.546,43.784,114.855,41.248,113.452,38.362L113.452,38.362z"/>
		</g>
	</g>
</g>
</svg>
