<?xml version="1.0" encoding="utf-8"?>
<!-- Generator: Adobe Illustrator 15.0.0, SVG Export Plug-In . SVG Version: 6.00 Build 0)  -->
<!DOCTYPE svg PUBLIC "-//W3C//DTD SVG 1.1//EN" "http://www.w3.org/Graphics/SVG/1.1/DTD/svg11.dtd">
<svg version="1.1" id="Layer_2" xmlns="http://www.w3.org/2000/svg" xmlns:xlink="http://www.w3.org/1999/xlink" x="0px" y="0px"
	 width="106px" height="180px" viewBox="0 0 106 180" enable-background="new 0 0 106 180" xml:space="preserve">
<g>
	<path fill="#FFFFFF" d="M65.244,179.438c-0.534,0-1.069-0.06-1.587-0.179l-0.214-0.051c-0.858-0.233-1.598-0.58-2.313-1.074
		l-0.136-0.097c-0.374-0.271-0.7-0.545-1.02-0.852l-0.139-0.141c-0.095-0.093-0.211-0.211-0.339-0.35l-4.672-5l0.931-0.086
		l-1.109-1.773c-0.246-0.396-0.5-0.807-0.76-1.229l-0.924-1.478l0.021-0.015l-0.762-1.28l-0.627-1.063l-0.738-1.297
		c-0.086-0.15-0.178-0.318-0.268-0.486l-0.103-0.188c-0.103-0.176-0.235-0.428-0.368-0.685c-0.061-0.114-0.1-0.194-0.142-0.27
		c-0.142-0.244-0.272-0.518-0.39-0.801l-0.373-0.646c-0.422-0.729-0.848-1.469-1.277-2.228c-0.99,0.759-2.079,1.569-3.143,2.365
		c0,0-1.129,0.842-1.604,1.2c0.515,1.408,0.718,2.849,0.604,4.304c-0.156,1.981-1,4.883-4.133,7.457
		c-2.064,1.696-4.48,2.597-6.984,2.597c-6.438,0-10.567-5.8-11.924-7.705l-0.269-0.365c-2.622-3.487-4.212-5.849-3.963-8.867
		c0.085-1.299,0.608-2.613,1.509-3.75l0.152-0.193l0.181-0.193c0.078-0.09,0.197-0.219,0.343-0.365l0.165-0.162
		c0.197-0.189,0.313-0.301,0.444-0.418l0.611-0.547l1.469-1.242l1.895-1.547l1.262-1.012c0.683-0.547,3.232-2.562,3.232-2.562
		l2.2-1.727l1.745-1.355c2.354-1.828,4.523-3.496,6.188-4.768c-2.025-3.963-3.834-7.562-5.162-10.224
		c-8.24-5.231-13.586-14.065-14.379-23.84c-0.394-3.229-0.084-7.978,0.273-13.47c0.094-1.437,0.189-2.894,0.271-4.342
		c-1.235,0.604-2.158,1.041-2.617,1.256c-1.702,0.899-3.771,1.396-5.842,1.396c-4.012,0-7.316-1.754-9.069-4.812
		c-1.572-2.74-1.593-6.145-0.058-9.334c1.071-2.225,2.752-4.107,4.737-5.307l0.036-0.023c2.15-1.412,6.195-3.971,10.428-6.52
		c-1.085-5.961-2.617-19.81,0.383-31.004v-2.405l0.996-0.723c5.1-14.008,18.635-23.773,33.564-24.129
		c1.221-1.387,2.882-2.316,4.768-2.596c0.392-0.059,0.771-0.086,1.157-0.086c0.142,0,0.275,0.004,0.416,0.012
		C60.285,1.196,63.134,0.2,66.32,0.2c2.275,0,4.66,0.545,7.092,1.619c5.658,2.498,9.033,6.902,9.479,12.254
		c0.387,0.371,0.731,0.779,1.035,1.219c1.875,2.713,1.814,6.199,0.125,8.814c0.818,1.412,1.545,2.881,2.17,4.387
		c3.535,8.018,5.316,24.338,5.521,36.611c4.658,6.447,10.615,16.547,11.455,17.977c2.938,4.637,2.709,11.821-2.324,15.188
		c-1.496,1.002-3.281,1.533-5.158,1.533c-2.564,0-5.262-1.023-7.396-2.701c-0.043,0.17-0.086,0.334-0.127,0.496
		c-0.09,0.338-0.158,0.596-0.229,0.854c-0.084,0.303-0.179,0.635-0.272,0.965c-0.075,0.261-0.157,0.541-0.244,0.821
		c-0.104,0.33-0.203,0.65-0.309,0.972c-0.087,0.271-0.177,0.547-0.271,0.828c-0.112,0.33-0.381,1.086-0.381,1.086
		s-0.19,0.53-0.272,0.748c-0.119,0.319-0.248,0.649-0.381,0.979c-0.099,0.252-0.211,0.537-0.328,0.822
		c-0.14,0.334-0.278,0.66-0.422,0.984c0,0-0.265,0.607-0.369,0.84c-0.144,0.312-0.28,0.604-0.42,0.896l-0.097,0.195
		c-0.116,0.244-0.237,0.496-0.362,0.746c-0.162,0.318-0.332,0.646-0.506,0.975l0,0c0,0-0.326,0.619-0.44,0.826
		c-0.171,0.312-0.352,0.619-0.529,0.932l-0.146,0.256c-0.117,0.203-0.238,0.412-0.363,0.619c-0.162,0.269-0.33,0.533-0.498,0.797
		l-0.203,0.32c-0.172,0.268-0.301,0.471-0.434,0.672c-0.172,0.254-0.352,0.514-0.529,0.771l-0.229,0.33
		c-0.154,0.224-0.312,0.446-0.476,0.67c-0.19,0.267-0.396,0.533-0.604,0.804l-0.215,0.28c-0.157,0.207-0.316,0.42-0.485,0.629
		c-0.217,0.271-0.42,0.517-0.625,0.759l-0.256,0.307c-0.177,0.213-0.362,0.438-0.556,0.656c-0.069,0.078-0.141,0.156-0.211,0.233
		c0.996,5.563,1.105,14.228-5.562,20.367c-1.392,1.28-3.116,2.731-5.235,4.405c1.104,2.105,2.088,3.961,2.938,5.55
		c0.396,0.739,0.769,1.424,1.106,2.049c1.148-0.36,2.428-0.614,3.807-0.614c3.312,0,6.262,1.479,8.305,4.155
		c2.484,3.256,2.62,6.397,2.295,8.461c-0.83,5.281-5.356,8.42-7.289,9.761C76.561,174.531,69.328,179.438,65.244,179.438z"/>
	
		<path id="Arm2_4_" fill="#65CEFC" stroke="#3D94B2" stroke-width="3.5" stroke-linecap="round" stroke-linejoin="round" stroke-miterlimit="10" d="
		M77.828,68.298c3.208,7.539,14.402,21.535,14.402,21.535c1.125,1.683,4.068,3.138,5.748,2.013c1.681-1.123,1.461-4.398,0.338-6.081
		c0,0-10.198-17.445-14.403-21.537"/>
	
		<path id="Back_x5F_Leg_4_" fill="#65CEFC" stroke="#3D94B2" stroke-width="3.5" stroke-linecap="round" stroke-linejoin="round" stroke-miterlimit="10" d="
		M69.729,116.533c1.065,3.101,3.522,12.697-2.478,18.224c-5.996,5.522-17.736,13.464-21.474,16.405
		c-3.735,2.941-10.511,7.679-10.57,8.396c-0.059,0.717,5.425,4.303,1.029,7.91c-4.394,3.613-8.544-2.992-9.412-4.148
		c-0.866-1.155-2.821-3.729-2.763-4.442c0.061-0.718,18.583-14.959,21.662-17.233c3.08-2.274,15.955-10.842,15.882-14.34
		c-0.07-3.5-0.688-4.757-0.688-4.757L69.729,116.533z"/>
	
		<path id="Body_8_" fill="#65CEFC" stroke="#3D94B2" stroke-width="3.5" stroke-linecap="round" stroke-linejoin="round" stroke-miterlimit="10" d="
		M25.849,69.929c-2.573-8.545-5.551-25.446-1.43-36.594c0-0.002,0.002-0.002,0.002-0.002c3.865-13.43,16.775-22.719,31.237-21.521
		c11.595,0.961,21.088,8.414,25.226,18.484l0,0l0,0c3.904,8.753,5.818,32.814,4.681,44.078c-1.396,13.766-2.108,35.133-22.467,48.42
		c-3.072,2.021-9.396,3.97-14.784,3.521c-12.184-1.008-21.516-10.767-22.405-22.582C25.046,97.277,28.244,77.882,25.849,69.929z"/>
	
		<path id="Belly_x5F_Patch_3_" fill="#FFDF24" stroke="#E2A700" stroke-width="3.5" stroke-linecap="round" stroke-linejoin="round" stroke-miterlimit="10" d="
		M85.464,75.369c-1.338,13.785-2.491,34.451-22.366,47.427c-0.361,0.237-0.772,0.476-1.22,0.709
		c-5.765-6.534-8.137-16.646-5.429-26.802C60.311,82.205,73.105,72.931,85.464,75.369z"/>
	
		<path id="Body_x5F_Outline_4_" fill="none" stroke="#3D94B2" stroke-width="3.2854" stroke-linecap="round" stroke-linejoin="round" stroke-miterlimit="10" d="
		M25.849,69.929c-2.573-8.545-5.551-25.446-1.43-36.594c0-0.002,0.002-0.002,0.002-0.002c3.865-13.43,16.775-22.719,31.237-21.521
		c11.595,0.961,21.088,8.414,25.226,18.484l0,0l0,0c3.904,8.753,5.818,32.814,4.681,44.078c-1.396,13.766-2.108,35.133-22.467,48.42
		c-3.072,2.021-9.396,3.97-14.784,3.521c-12.184-1.008-21.516-10.767-22.405-22.582C25.046,97.277,28.244,77.882,25.849,69.929z"/>
	
		<path id="Arm1_4_" fill="#65CEFC" stroke="#3D94B2" stroke-width="3.5" stroke-linecap="round" stroke-linejoin="round" stroke-miterlimit="10" d="
		M36.593,68.986c-6.227,5.324-22.479,12.879-22.479,12.879c-1.754,1.004-5.038,0.996-6.043-0.758
		c-1.006-1.754,0.649-4.59,2.403-5.597c0,0,16.896-11.086,22.48-12.879"/>
	
		<path id="Leg1_4_" fill="#65CEFC" stroke="#3D94B2" stroke-width="3.5" stroke-linecap="round" stroke-linejoin="round" stroke-miterlimit="10" d="
		M45.117,117.025c0,0,21.52,42.609,22.688,43.064c1.166,0.459,6.534-4.756,9.577-0.771c3.041,3.984-1.312,7.117-3.483,8.623
		s-7.084,4.108-7.912,3.92c-1.25-0.34-6.793-9.264-12.457-19.7c-8.736-16.097-18.447-36.095-18.447-36.095"/>
	<g id="Shoes_3_">
		
			<path fill="#FF5122" stroke="#AD391E" stroke-width="3.5" stroke-linecap="round" stroke-linejoin="round" stroke-miterlimit="10" d="
			M63.585,152.833c2.272,4.237,3.92,7.144,4.22,7.26c1.166,0.46,6.534-4.756,9.577-0.771c3.041,3.982-1.312,7.117-3.483,8.623
			s-7.084,4.107-7.912,3.92c-1.028-0.278-4.978-6.395-9.502-14.369L63.585,152.833z"/>
		
			<path fill="#FF5122" stroke="#AD391E" stroke-width="3.5" stroke-linecap="round" stroke-linejoin="round" stroke-miterlimit="10" d="
			M24.063,158.878c0.035-0.431,6.652-5.679,12.636-10.323l4.466,6.104c-3.037,2.27-5.918,4.438-5.955,4.902
			c-0.061,0.719,5.424,4.303,1.028,7.91c-4.394,3.613-8.544-2.992-9.412-4.148C25.96,162.165,24.005,159.594,24.063,158.878z"/>
	</g>
	<g id="Eyes_7_">
		<path fill="#2D3442" d="M72.13,45.048c-0.082,0.998,0.658,1.873,1.654,1.955l0.153,0.012c1,0.085,1.873-0.655,1.955-1.653
			l0.529-6.387c0.082-0.998-0.658-1.873-1.656-1.955l-0.152-0.015c-0.997-0.082-1.872,0.658-1.954,1.656L72.13,45.048z"/>
		<path fill="#2D3442" d="M61.8,44.193c-0.082,0.998,0.658,1.871,1.655,1.955l0.154,0.012c0.996,0.084,1.871-0.657,1.955-1.653
			l0.527-6.39c0.084-0.996-0.658-1.871-1.654-1.953l-0.154-0.014c-0.996-0.082-1.873,0.658-1.955,1.653L61.8,44.193z"/>
	</g>
	<g id="Mouth_7_">
		
			<path fill="none" stroke="#2D3442" stroke-width="1.8" stroke-linecap="round" stroke-linejoin="round" stroke-miterlimit="10" d="
			M77.583,50.896c-2.085-0.175-3.912,1.375-4.086,3.461c-0.173,2.084,1.376,3.914,3.461,4.086"/>
		
			<path fill="none" stroke="#2D3442" stroke-width="1.8" stroke-linecap="round" stroke-linejoin="round" stroke-miterlimit="10" d="
			M60.684,49.494c2.086,0.175,3.637,2.005,3.463,4.089s-2.004,3.635-4.09,3.461"/>
		
			<line fill="none" stroke="#2D3442" stroke-width="1.8" stroke-linecap="round" stroke-linejoin="round" stroke-miterlimit="10" x1="73.497" y1="54.357" x2="64.146" y2="53.583"/>
	</g>
	<g id="Hat_3_">
		<path fill="#6CA346" d="M66.314,18.877c-2.188-0.969-3.996-2.563-5.229-4.49c1.988-4.398,4.078-7.434,9.479-5.049
			c5.385,2.377,4.568,5.949,2.674,10.365C70.96,20.111,68.537,19.855,66.314,18.877z"/>
		<path fill="#3A6618" d="M57.046,10.422c0.685,4.619,3.861,8.707,8.295,10.664c4.489,1.98,9.695,1.545,13.589-1.139
			c0.549-0.379,0.688-1.131,0.309-1.68c-0.377-0.549-1.131-0.688-1.682-0.309c-0.425,0.293-0.869,0.549-1.33,0.775
			c1.332-3.738,1.936-8.684-4.687-11.607c-6.66-2.939-9.91,0.902-11.771,4.424c-0.146-0.484-0.26-0.979-0.336-1.482
			c-0.096-0.662-0.709-1.115-1.369-1.02C57.404,9.146,56.947,9.761,57.046,10.422z M66.314,18.877
			c-2.188-0.969-3.996-2.563-5.229-4.49c1.988-4.398,4.078-7.434,9.479-5.049c5.385,2.377,4.568,5.949,2.674,10.365
			C70.96,20.111,68.537,19.855,66.314,18.877z"/>
	</g>
</g>
</svg>
